<?xml version="1.0" encoding="UTF-8"?>
<svg version="1.1" xmlns="http://www.w3.org/2000/svg" width="200" height="200">
<path d="M0 0 C4.27664876 2.39121506 4.27664876 2.39121506 9 3 C9.04125 3.721875 9.0825 4.44375 9.125 5.1875 C10.14750751 8.47413128 11.62416054 9.50988319 14.3125 11.5390625 C16.87878792 13.7608025 18.67853037 16.45419113 20.60546875 19.23046875 C22.05952104 21.26368682 22.05952104 21.26368682 25 23 C25.37872934 24.65694085 25.70250054 26.32656552 26 28 C26.71643177 29.6608191 27.43458833 31.32098953 28.171875 32.97265625 C31.08093006 40.09435236 33.14275367 47.58912279 33.09765625 55.30078125 C33.09443359 56.27724609 33.09121094 57.25371094 33.08789062 58.25976562 C33.07951172 59.26716797 33.07113281 60.27457031 33.0625 61.3125 C33.05798828 62.33923828 33.05347656 63.36597656 33.04882812 64.42382812 C33.03708184 66.94927882 33.02065565 69.47460905 33 72 C33.99 72 34.98 72 36 72 C37.421875 73.42578125 37.421875 73.42578125 38.75 75.3125 C39.19859375 75.92738281 39.6471875 76.54226562 40.109375 77.17578125 C41 79 41 79 40 82 C40.66 82 41.32 82 42 82 C44.71276903 87.72695683 43.50821265 92.12957232 42 98 C41.01 98 40.02 98 39 98 C37.98133771 99.65532623 36.98189187 101.32260138 36 103 C35.01 103.33 34.02 103.66 33 104 C33.02320313 105.01578125 33.04640625 106.0315625 33.0703125 107.078125 C33.2609634 119.01054308 32.13944229 129.71061193 28 141 C27.34 141 26.68 141 26 141 C25.73445312 141.70511719 25.46890625 142.41023437 25.1953125 143.13671875 C23.93501033 146.15567786 22.46042006 148.95185076 20.875 151.8125 C20.33617187 152.78832031 19.79734375 153.76414063 19.2421875 154.76953125 C18.83226562 155.50558594 18.42234375 156.24164063 18 157 C17.34 157 16.68 157 16 157 C16 157.66 16 158.32 16 159 C15.34 159 14.68 159 14 159 C13.7421875 159.58265625 13.484375 160.1653125 13.21875 160.765625 C11.90165983 163.1802903 10.44911616 164.81740177 8.5 166.75 C7.8915625 167.36359375 7.283125 167.9771875 6.65625 168.609375 C5 170 5 170 3 170 C3 170.66 3 171.32 3 172 C-1.78632652 177.69941035 -10.42943023 179.60146047 -17.1875 182.1875 C-18.20299927 182.58062378 -18.20299927 182.58062378 -19.23901367 182.98168945 C-35.30481023 189.02236593 -52.86101715 186.36610164 -69 182 C-69 181.34 -69 180.68 -69 180 C-69.845625 179.731875 -70.69125 179.46375 -71.5625 179.1875 C-82.47346072 175.41825902 -82.47346072 175.41825902 -85 172 C-85 171.34 -85 170.68 -85 170 C-85.804375 169.6596875 -85.804375 169.6596875 -86.625 169.3125 C-96.79439001 163.69257394 -103.20544201 153.27405285 -108 143 C-108 142.34 -108 141.68 -108 141 C-108.66 141 -109.32 141 -110 141 C-114.52193669 128.66744538 -115.29674994 116.99105312 -115 104 C-115.66 104 -116.32 104 -117 104 C-117 103.34 -117 102.68 -117 102 C-117.66 101.34 -118.32 100.68 -119 100 C-119 99.01 -119 98.02 -119 97 C-120.32 97 -121.64 97 -123 97 C-123.33 96.67 -123.66 96.34 -124 96 C-124.33 96 -124.66 96 -125 96 C-125 90.72 -125 85.44 -125 80 C-124.34 80 -123.68 80 -123 80 C-122.6596875 79.13375 -122.6596875 79.13375 -122.3125 78.25 C-121 76 -121 76 -118.45703125 74.515625 C-114.66540605 70.63357949 -115.34456518 66.72522322 -115.375 61.5 C-115.13714557 49.0075603 -112.66360344 38.67695551 -107.8125 27.1875 C-106.82590674 24.92020725 -106.82590674 24.92020725 -107 22 C-106.38125 21.7525 -105.7625 21.505 -105.125 21.25 C-102.64931313 19.79371361 -102.04874998 18.62187494 -101 16 C-100.34 16 -99.68 16 -99 16 C-98.67 15.01 -98.34 14.02 -98 13 C-97.01 12.21625 -96.02 11.4325 -95 10.625 C-91.82791788 8.31112431 -91.82791788 8.31112431 -91.125 5.1875 C-91.08375 4.465625 -91.0425 3.74375 -91 3 C-90.25621094 2.88011719 -89.51242188 2.76023437 -88.74609375 2.63671875 C-86.06898842 2.01599589 -84.38571355 1.23403067 -82.0625 -0.1875 C-55.23463773 -15.54321484 -26.76581849 -14.45354198 0 0 Z M-120 76 C-119.67 76.66 -119.34 77.32 -119 78 C-118.34 77.34 -117.68 76.68 -117 76 C-117.99 76 -118.98 76 -120 76 Z M38 77 C39 79 39 79 39 79 Z M-124 89 C-123 92 -123 92 -123 92 Z M34 101 C35 103 35 103 35 103 Z " fill="#454645" transform="translate(141,12)"/>
<path d="M0 0 C1.46179688 0.77150391 1.46179688 0.77150391 2.953125 1.55859375 C3.62859375 2.03425781 4.3040625 2.50992187 5 3 C5 3.99 5 4.98 5 6 C5.58007812 6.25007813 6.16015625 6.50015625 6.7578125 6.7578125 C16.91476237 12.38483351 21.94842309 25.20984339 25.45703125 35.671875 C27.25476532 43.38014482 27.04140034 50.90296843 26.69726562 58.75390625 C26.58141913 64.39176895 27.19353117 67.53961699 31 72 C33.6091387 74.32277416 33.6091387 74.32277416 36 76 C33.36 78.31 30.72 80.62 28 83 C28.33 83.33 28.66 83.66 29 84 C31.31 82.68 33.62 81.36 36 80 C39.54610598 95.80272167 37.52110101 113.94245179 32 129 C31.34 129 30.68 129 30 129 C29.73445312 129.70511719 29.46890625 130.41023437 29.1953125 131.13671875 C27.93501033 134.15567786 26.46042006 136.95185076 24.875 139.8125 C24.33617187 140.78832031 23.79734375 141.76414063 23.2421875 142.76953125 C22.83226562 143.50558594 22.42234375 144.24164063 22 145 C21.34 145 20.68 145 20 145 C20 145.66 20 146.32 20 147 C19.34 147 18.68 147 18 147 C17.7421875 147.58265625 17.484375 148.1653125 17.21875 148.765625 C15.90165983 151.1802903 14.44911616 152.81740177 12.5 154.75 C11.8915625 155.36359375 11.283125 155.9771875 10.65625 156.609375 C9 158 9 158 7 158 C7 158.66 7 159.32 7 160 C2.21367348 165.69941035 -6.42943023 167.60146047 -13.1875 170.1875 C-14.20299927 170.58062378 -14.20299927 170.58062378 -15.23901367 170.98168945 C-20.97122176 173.13697721 -26.20522103 174.14353499 -32.3125 174.125 C-33.17488281 174.12757813 -34.03726563 174.13015625 -34.92578125 174.1328125 C-37 174 -37 174 -38 173 C-38.07244053 170.98035801 -38.08377188 168.95832876 -38.0625 166.9375 C-38.05347656 165.83277344 -38.04445313 164.72804687 -38.03515625 163.58984375 C-38.02355469 162.73519531 -38.01195313 161.88054687 -38 161 C-39.95292969 161.07927734 -39.95292969 161.07927734 -41.9453125 161.16015625 C-46.97040059 161.15327795 -51.1585887 160.08878359 -55.875 158.4375 C-56.65367432 158.17155029 -57.43234863 157.90560059 -58.23461914 157.6315918 C-66.01838952 154.84712081 -73.28066233 151.08714073 -79 145 C-77.87548273 142.0280615 -76.77706209 139.66559313 -75 137 C-71.67523356 137.61873456 -69.59385386 138.83104747 -66.875 140.8125 C-58.45014172 146.54360262 -50.03100327 148.69010954 -40 150 C-40 149.34 -40 148.68 -40 148 C-39.34 148 -38.68 148 -38 148 C-37.67 145.03 -37.34 142.06 -37 139 C-35.96101563 138.84144531 -34.92203125 138.68289062 -33.8515625 138.51953125 C-19.47945289 136.18084883 -8.39129537 131.52258914 0.8125 119.625 C7.22548007 109.89496128 9.30596366 98.65710603 9.3359375 87.20703125 C9.3425943 86.29853928 9.3492511 85.3900473 9.35610962 84.45402527 C9.36617318 82.54220585 9.37092861 80.63035174 9.37060547 78.71850586 C9.37496277 75.83711921 9.4113061 72.95728692 9.44921875 70.07617188 C9.54955832 53.82019675 7.46800534 38.51141817 -3.9140625 25.875 C-8.42568465 21.70489507 -13.52997448 18.74767486 -19 16 C-19.12955078 16.82177734 -19.12955078 16.82177734 -19.26171875 17.66015625 C-20.38515743 23.99882404 -22.20367157 29.93487145 -24.32299805 35.99633789 C-25.57575691 39.41658684 -25.57575691 39.41658684 -26 43 C-25.278125 43.433125 -24.55625 43.86625 -23.8125 44.3125 C-18.3232738 47.60603572 -13.04716277 52.85851168 -11 59 C-10.96045766 61.33299825 -10.95598268 63.66708189 -11 66 C-13.64 66.99 -16.28 67.98 -19 69 C-16.63707344 71.52588702 -15.33537489 72.88820837 -12 74 C-12 74.66 -12 75.32 -12 76 C-13.79296875 77.33203125 -13.79296875 77.33203125 -16.1875 78.8125 C-26.12365386 85.27100001 -31.64240274 94.15727269 -36 105 C-36.66 105 -37.32 105 -38 105 C-38.4846875 103.9378125 -38.969375 102.875625 -39.46875 101.78125 C-44.60358283 90.83479061 -49.67168772 82.98057175 -60.53125 77.0078125 C-61.0159375 76.67523438 -61.500625 76.34265625 -62 76 C-62 75.34 -62 74.68 -62 74 C-60.34850074 72.92189651 -58.65144899 71.91327446 -56.9375 70.9375 C-51.14552061 67.3286513 -47.70197498 63.65682388 -44 58 C-43.20275513 56.88129517 -43.20275513 56.88129517 -42.3894043 55.73999023 C-36.02365631 45.34289973 -37.33851947 34.02633159 -37.625 22.25 C-37.65514579 20.08857893 -37.68251342 17.92711724 -37.70703125 15.765625 C-37.77263866 10.50951935 -37.87261713 5.25495258 -38 0 C-40.0388771 -0.04261075 -42.07801809 -0.07268392 -44.1171875 -0.09765625 C-45.25269043 -0.11578369 -46.38819336 -0.13391113 -47.55810547 -0.15258789 C-56.74838507 0.25484045 -64.14617312 4.31261365 -71.52734375 9.51171875 C-74.10136761 11.06101273 -76.09044366 11.41904898 -79 12 C-88.84750547 19.69411976 -93.39496714 34.07689873 -95 46 C-95.33812087 49.71052081 -95.49574385 53.40026603 -95.5625 57.125 C-95.58940918 58.01364746 -95.61631836 58.90229492 -95.64404297 59.81787109 C-95.6183745 64.1674338 -95.40152664 67.07302449 -92.578125 70.5 C-91.30195312 71.7375 -91.30195312 71.7375 -90 73 C-89.401875 73.61875 -88.80375 74.2375 -88.1875 74.875 C-87.795625 75.24625 -87.40375 75.6175 -87 76 C-88.36125 76.99 -88.36125 76.99 -89.75 78 C-93.44506865 81.03836213 -95.16700722 84.65472888 -97 89 C-97.66 89 -98.32 89 -99 89 C-99.21914062 88.48050781 -99.43828125 87.96101563 -99.6640625 87.42578125 C-102.02183544 82.24059768 -104.39481569 79.34922495 -109 76 C-106.66666667 73.66666667 -104.33333333 71.33333333 -102 69 C-101.69373902 66.41440512 -101.69373902 66.41440512 -101.7265625 63.390625 C-101.70009644 61.67939453 -101.70009644 61.67939453 -101.6730957 59.93359375 C-101.65722412 58.71800781 -101.64135254 57.50242187 -101.625 56.25 C-101.13935833 37.55830052 -97.40444079 22.96914217 -83.953125 9.2890625 C-81.87793946 7.12972139 -81.87793946 7.12972139 -81.0859375 4.4609375 C-78.57025447 -1.2400708 -70.53941627 -4.60697344 -64.88720703 -6.83154297 C-60.31530612 -8.43320372 -55.6812668 -9.75911813 -51 -11 C-50.31421875 -11.20109375 -49.6284375 -11.4021875 -48.921875 -11.609375 C-31.66535245 -15.11679828 -14.71931016 -8.2584148 0 0 Z " fill="#626662" transform="translate(137,24)"/>
<path d="M0 0 C4.27664876 2.39121506 4.27664876 2.39121506 9 3 C9.04125 3.721875 9.0825 4.44375 9.125 5.1875 C10.14750751 8.47413128 11.62416054 9.50988319 14.3125 11.5390625 C16.87878792 13.7608025 18.67853037 16.45419113 20.60546875 19.23046875 C22.05952104 21.26368682 22.05952104 21.26368682 25 23 C25.37872934 24.65694085 25.70250054 26.32656552 26 28 C26.71643177 29.6608191 27.43458833 31.32098953 28.171875 32.97265625 C31.08093006 40.09435236 33.14275367 47.58912279 33.09765625 55.30078125 C33.09443359 56.27724609 33.09121094 57.25371094 33.08789062 58.25976562 C33.07951172 59.26716797 33.07113281 60.27457031 33.0625 61.3125 C33.05798828 62.33923828 33.05347656 63.36597656 33.04882812 64.42382812 C33.03708184 66.94927882 33.02065565 69.47460905 33 72 C33.99 72 34.98 72 36 72 C37.421875 73.42578125 37.421875 73.42578125 38.75 75.3125 C39.19859375 75.92738281 39.6471875 76.54226562 40.109375 77.17578125 C41 79 41 79 40 82 C40.66 82 41.32 82 42 82 C44.71276903 87.72695683 43.50821265 92.12957232 42 98 C41.01 98 40.02 98 39 98 C37.98133771 99.65532623 36.98189187 101.32260138 36 103 C35.01 103.33 34.02 103.66 33 104 C32.01 98.555 32.01 98.555 31 93 C28.36 94.65 25.72 96.3 23 98 C24.04524779 93.81900884 24.4105742 93.27154064 27.5625 90.75 C28.20316406 90.22921875 28.84382812 89.7084375 29.50390625 89.171875 C29.99761719 88.78515625 30.49132812 88.3984375 31 88 C30.27683594 87.41992188 30.27683594 87.41992188 29.5390625 86.828125 C28.90742188 86.30734375 28.27578125 85.7865625 27.625 85.25 C26.99851563 84.73953125 26.37203125 84.2290625 25.7265625 83.703125 C23.34939109 81.35822289 22.11478004 79.2432113 21.8046875 75.88452148 C21.82789063 75.13759033 21.85109375 74.39065918 21.875 73.62109375 C21.89208008 72.78763428 21.90916016 71.9541748 21.92675781 71.09545898 C21.95092773 70.21833252 21.97509766 69.34120605 22 68.4375 C22.20185416 52.31367826 19.08897741 38.02064419 9 25 C6.9145325 22.99853557 4.80523531 21.18423932 2.50390625 19.4375 C1.75947266 18.7259375 1.75947266 18.7259375 1 18 C1 17.01 1 16.02 1 15 C0.32453125 14.74992187 -0.3509375 14.49984375 -1.046875 14.2421875 C-3.88889168 13.04673604 -6.55451962 11.64768539 -9.26416016 10.18164062 C-26.35093688 1.08997974 -43.63271252 -1.6269279 -62.43554688 3.71948242 C-68.40289596 5.58138287 -73.45563523 8.14429284 -78.71484375 11.546875 C-81 13 -81 13 -84 14 C-84.226875 14.825 -84.45375 15.65 -84.6875 16.5 C-86.01780052 20.04746805 -87.11087938 21.34409874 -89.6875 24 C-102.13153547 37.4395583 -104.53924448 53.78414253 -104.17578125 71.41210938 C-104.24308687 79.98396139 -104.24308687 79.98396139 -106.60742188 83.15771484 C-108.3393915 84.64593547 -110.01385034 85.87964919 -112 87 C-111.2575 87.680625 -110.515 88.36125 -109.75 89.0625 C-106.74937096 92.05458023 -104.92049242 95.23014451 -103 99 C-103 99.66 -103 100.32 -103 101 C-102.34 101 -101.68 101 -101 101 C-100.9071875 99.948125 -100.9071875 99.948125 -100.8125 98.875 C-99.41742381 93.93857658 -95.66336156 90.47055306 -92 87 C-92.94875 86.236875 -93.8975 85.47375 -94.875 84.6875 C-97.56679952 82.52235691 -99.77140616 80.58498134 -100.29052734 76.9855957 C-100.69717447 56.30124918 -98.04473315 39.78965241 -84.02734375 23.6796875 C-81.63547825 21.69798776 -80.02343216 21.51630918 -77 21 C-74.70131776 19.74292175 -74.70131776 19.74292175 -72.4375 18.1875 C-62.53754562 12.10986528 -53.54480504 10.32965648 -42 11 C-40.99503148 14.01490557 -40.89664697 16.04181692 -40.9375 19.1875 C-40.94652344 20.08855469 -40.95554687 20.98960938 -40.96484375 21.91796875 C-40.97644531 22.60503906 -40.98804687 23.29210938 -41 24 C-42.0621875 24.17015625 -43.124375 24.3403125 -44.21875 24.515625 C-55.13522632 26.25376159 -55.13522632 26.25376159 -65 31 C-65.67289063 31.4434375 -66.34578125 31.886875 -67.0390625 32.34375 C-77.39847288 39.63801649 -84.5339164 50.45079751 -87 63 C-87.27011513 66.575362 -87.25701928 70.13467019 -87.23046875 73.71875 C-87.23001053 74.73545776 -87.22955231 75.75216553 -87.2290802 76.79968262 C-87.22607018 78.94117404 -87.21822152 81.08266352 -87.20581055 83.22412109 C-87.1875596 86.48933736 -87.18530111 89.75426928 -87.18554688 93.01953125 C-87.18063056 95.10677327 -87.17480174 97.19401338 -87.16796875 99.28125 C-87.16685593 100.25122925 -87.1657431 101.2212085 -87.16459656 102.22058105 C-87.06349596 116.76566184 -82.55421987 128.37994508 -72.3828125 138.87890625 C-63.25999566 146.99970878 -52.95768862 150.03567027 -41 151 C-41.33 153.97 -41.66 156.94 -42 160 C-42.66 160 -43.32 160 -44 160 C-44 160.66 -44 161.32 -44 162 C-54.64871776 162.70991452 -64.1734251 158.72534588 -73 153 C-74 152 -75 151 -76 150 C-76.99 149.67 -77.98 149.34 -79 149 C-80.49821059 152.37097383 -81 154.20442119 -81 158 C-79.1991706 159.70002977 -79.1991706 159.70002977 -76.8125 161.0625 C-76.03519531 161.54847656 -75.25789063 162.03445312 -74.45703125 162.53515625 C-73.24080078 163.26025391 -73.24080078 163.26025391 -72 164 C-71.23558594 164.50144531 -70.47117188 165.00289062 -69.68359375 165.51953125 C-66.33973919 167.36424868 -62.88566175 168.51557594 -59.25 169.625 C-58.54423828 169.84373779 -57.83847656 170.06247559 -57.11132812 170.2878418 C-52.06646914 171.80095205 -47.27539181 172.71738972 -42 173 C-41.505 179.435 -41.505 179.435 -41 186 C-50.73991324 186.6283815 -59.60720547 184.29192372 -69 182 C-69 181.34 -69 180.68 -69 180 C-69.845625 179.731875 -70.69125 179.46375 -71.5625 179.1875 C-82.47346072 175.41825902 -82.47346072 175.41825902 -85 172 C-85 171.34 -85 170.68 -85 170 C-85.804375 169.6596875 -85.804375 169.6596875 -86.625 169.3125 C-96.79439001 163.69257394 -103.20544201 153.27405285 -108 143 C-108 142.34 -108 141.68 -108 141 C-108.66 141 -109.32 141 -110 141 C-114.52193669 128.66744538 -115.29674994 116.99105312 -115 104 C-115.66 104 -116.32 104 -117 104 C-117 103.34 -117 102.68 -117 102 C-117.66 101.34 -118.32 100.68 -119 100 C-119 99.01 -119 98.02 -119 97 C-120.32 97 -121.64 97 -123 97 C-123.33 96.67 -123.66 96.34 -124 96 C-124.33 96 -124.66 96 -125 96 C-125 90.72 -125 85.44 -125 80 C-124.34 80 -123.68 80 -123 80 C-122.6596875 79.13375 -122.6596875 79.13375 -122.3125 78.25 C-121 76 -121 76 -118.45703125 74.515625 C-114.66540605 70.63357949 -115.34456518 66.72522322 -115.375 61.5 C-115.13714557 49.0075603 -112.66360344 38.67695551 -107.8125 27.1875 C-106.82590674 24.92020725 -106.82590674 24.92020725 -107 22 C-106.38125 21.7525 -105.7625 21.505 -105.125 21.25 C-102.64931313 19.79371361 -102.04874998 18.62187494 -101 16 C-100.34 16 -99.68 16 -99 16 C-98.67 15.01 -98.34 14.02 -98 13 C-97.01 12.21625 -96.02 11.4325 -95 10.625 C-91.82791788 8.31112431 -91.82791788 8.31112431 -91.125 5.1875 C-91.08375 4.465625 -91.0425 3.74375 -91 3 C-90.25621094 2.88011719 -89.51242188 2.76023437 -88.74609375 2.63671875 C-86.06898842 2.01599589 -84.38571355 1.23403067 -82.0625 -0.1875 C-55.23463773 -15.54321484 -26.76581849 -14.45354198 0 0 Z M-120 76 C-119.67 76.66 -119.34 77.32 -119 78 C-118.34 77.34 -117.68 76.68 -117 76 C-117.99 76 -118.98 76 -120 76 Z M38 77 C39 79 39 79 39 79 Z M-124 89 C-123 92 -123 92 -123 92 Z M34 101 C35 103 35 103 35 103 Z " fill="#51585A" transform="translate(141,12)"/>
<path d="M0 0 C8.57372336 -0.1264627 8.57372336 -0.1264627 12.1484375 0.8828125 C12.83929443 1.07786377 13.53015137 1.27291504 14.24194336 1.47387695 C14.94585205 1.68874756 15.64976074 1.90361816 16.375 2.125 C17.11306885 2.34438232 17.8511377 2.56376465 18.61157227 2.78979492 C23.95969358 4.46624667 28.56421388 6.69638578 33.21484375 9.86328125 C34.9284458 11.17903811 34.9284458 11.17903811 37 11 C37.33 10.34 37.66 9.68 38 9 C46.90886318 12.89033327 52.65968791 23.34300358 56.2265625 31.96484375 C58.7992634 39.45158846 59.56803171 46.54856084 59.8359375 54.38671875 C59.96590394 57.24907487 60.26693092 59.82762127 60.8125 62.625 C61.05937947 67.06883051 59.87384392 68.67239125 57 72 C55.36345179 73.37013339 53.70196405 74.7120272 52 76 C51.67 76.66 51.34 77.32 51 78 C51.556875 78.04125 52.11375 78.0825 52.6875 78.125 C56.2769637 79.48317545 58.32905644 81.63148429 60 85 C60.61270127 88.72571882 60.34704666 92.25283401 60 96 C59.90460938 97.12277344 59.80921875 98.24554688 59.7109375 99.40234375 C58.07638287 113.90500981 51.50585618 129.40107343 40 139 C38.01961905 139.72286633 36.01651368 140.3850878 34 141 C31.77690761 142.11692899 29.569162 143.26475824 27.375 144.4375 C17.8667377 149.32670604 8.74586223 151.64189885 -2 151 C-2 150.34 -2 149.68 -2 149 C-1.34 149 -0.68 149 0 149 C0.33 146.03 0.66 143.06 1 140 C2.03898437 139.84144531 3.07796875 139.68289062 4.1484375 139.51953125 C18.52054711 137.18084883 29.60870463 132.52258914 38.8125 120.625 C45.22548007 110.89496128 47.30596366 99.65710603 47.3359375 88.20703125 C47.3425943 87.29853928 47.3492511 86.3900473 47.35610962 85.45402527 C47.36617318 83.54220585 47.37092861 81.63035174 47.37060547 79.71850586 C47.37496277 76.83711921 47.4113061 73.95728692 47.44921875 71.07617188 C47.54955832 54.82019675 45.46800534 39.51141817 34.0859375 26.875 C29.57431535 22.70489507 24.47002552 19.74767486 19 17 C18.91363281 17.54785156 18.82726562 18.09570312 18.73828125 18.66015625 C17.61484257 24.99882404 15.79632843 30.93487145 13.67700195 36.99633789 C12.42424309 40.41658684 12.42424309 40.41658684 12 44 C12.721875 44.433125 13.44375 44.86625 14.1875 45.3125 C19.6767262 48.60603572 24.95283723 53.85851168 27 60 C27.03954234 62.33299825 27.04401732 64.66708189 27 67 C24.36 67.99 21.72 68.98 19 70 C21.36292656 72.52588702 22.66462511 73.88820837 26 75 C26 75.66 26 76.32 26 77 C24.20703125 78.33203125 24.20703125 78.33203125 21.8125 79.8125 C11.87634614 86.27100001 6.35759726 95.15727269 2 106 C1.34 106 0.68 106 0 106 C-0.4846875 104.9378125 -0.969375 103.875625 -1.46875 102.78125 C-6.60358283 91.83479061 -11.67168772 83.98057175 -22.53125 78.0078125 C-23.0159375 77.67523438 -23.500625 77.34265625 -24 77 C-24 76.34 -24 75.68 -24 75 C-22.34850074 73.92189651 -20.65144899 72.91327446 -18.9375 71.9375 C-13.1445935 68.32807364 -9.70423367 64.65597865 -6 59 C-5.46850342 58.25999756 -4.93700684 57.51999512 -4.3894043 56.75756836 C2.07063211 46.26290619 0.6578574 34.6424638 0.375 22.75 C0.34485584 20.54040101 0.31748793 18.33076231 0.29296875 16.12109375 C0.22734481 10.74651913 0.12735251 5.37344789 0 0 Z " fill="#606360" transform="translate(99,23)"/>
<path d="M0 0 C0 9.57 0 19.14 0 29 C-2.97 29.66 -5.94 30.32 -9 31 C-16.6798235 34.2491561 -21.51199549 38.73481746 -25.09228516 46.31152344 C-26.82728722 51.45026542 -26.36925286 56.87642396 -26.375 62.25 C-26.39949219 63.43980469 -26.42398438 64.62960938 -26.44921875 65.85546875 C-26.48191957 75.72021691 -24.4721141 83.15739654 -17.6953125 90.49609375 C-12.17135396 95.39637955 -7.40163625 96.07479547 0 97 C0 106.9 0 116.8 0 127 C-13.7030194 127 -23.67483617 123.04122735 -33.6875 113.75 C-44.24819241 102.67474949 -47.13771705 90.18351188 -47.203125 75.3515625 C-47.20882507 74.33959808 -47.21452515 73.32763367 -47.22039795 72.28500366 C-47.22980952 70.15192702 -47.23636657 68.01883609 -47.24023438 65.88574219 C-47.24994813 62.64231806 -47.28101188 59.39952598 -47.3125 56.15625 C-47.3190305 54.07552456 -47.32428079 51.99479463 -47.328125 49.9140625 C-47.3404718 48.95440582 -47.3528186 47.99474915 -47.36553955 47.00601196 C-47.34524912 40.80142884 -46.32719534 35.74680089 -44 30 C-43.64679687 29.10410156 -43.29359375 28.20820312 -42.9296875 27.28515625 C-37.39637826 15.62421937 -28.2826086 6.5458805 -16.13671875 1.90625 C-10.35094673 0.1777206 -6.30344025 0 0 0 Z " fill="#333433" transform="translate(100,36)"/>
<path d="M0 0 C4.27664876 2.39121506 4.27664876 2.39121506 9 3 C9.04125 3.721875 9.0825 4.44375 9.125 5.1875 C10.14750751 8.47413128 11.62416054 9.50988319 14.3125 11.5390625 C16.87878792 13.7608025 18.67853037 16.45419113 20.60546875 19.23046875 C22.05952104 21.26368682 22.05952104 21.26368682 25 23 C25.37872934 24.65694085 25.70250054 26.32656552 26 28 C26.71643177 29.6608191 27.43458833 31.32098953 28.171875 32.97265625 C31.08093006 40.09435236 33.14275367 47.58912279 33.09765625 55.30078125 C33.09443359 56.27724609 33.09121094 57.25371094 33.08789062 58.25976562 C33.07951172 59.26716797 33.07113281 60.27457031 33.0625 61.3125 C33.05798828 62.33923828 33.05347656 63.36597656 33.04882812 64.42382812 C33.03708184 66.94927882 33.02065565 69.47460905 33 72 C33.99 72 34.98 72 36 72 C37.421875 73.42578125 37.421875 73.42578125 38.75 75.3125 C39.19859375 75.92738281 39.6471875 76.54226562 40.109375 77.17578125 C41 79 41 79 40 82 C40.66 82 41.32 82 42 82 C44.71276903 87.72695683 43.50821265 92.12957232 42 98 C41.01 98 40.02 98 39 98 C37.98133771 99.65532623 36.98189187 101.32260138 36 103 C35.01 103.33 34.02 103.66 33 104 C32.01 98.555 32.01 98.555 31 93 C28.36 94.65 25.72 96.3 23 98 C24.04524779 93.81900884 24.4105742 93.27154064 27.5625 90.75 C28.20316406 90.22921875 28.84382812 89.7084375 29.50390625 89.171875 C29.99761719 88.78515625 30.49132812 88.3984375 31 88 C30.27683594 87.41992188 30.27683594 87.41992188 29.5390625 86.828125 C28.90742188 86.30734375 28.27578125 85.7865625 27.625 85.25 C26.99851563 84.73953125 26.37203125 84.2290625 25.7265625 83.703125 C23.34939109 81.35822289 22.11478004 79.2432113 21.8046875 75.88452148 C21.82789063 75.13759033 21.85109375 74.39065918 21.875 73.62109375 C21.89208008 72.78763428 21.90916016 71.9541748 21.92675781 71.09545898 C21.95092773 70.21833252 21.97509766 69.34120605 22 68.4375 C22.20185416 52.31367826 19.08897741 38.02064419 9 25 C6.9145325 22.99853557 4.80523531 21.18423932 2.50390625 19.4375 C1.75947266 18.7259375 1.75947266 18.7259375 1 18 C1 17.01 1 16.02 1 15 C0.32453125 14.74992187 -0.3509375 14.49984375 -1.046875 14.2421875 C-3.88889168 13.04673604 -6.55451962 11.64768539 -9.26416016 10.18164062 C-26.35093688 1.08997974 -43.63271252 -1.6269279 -62.43554688 3.71948242 C-68.40289596 5.58138287 -73.45563523 8.14429284 -78.71484375 11.546875 C-81 13 -81 13 -84 14 C-84.226875 14.825 -84.45375 15.65 -84.6875 16.5 C-86.01780052 20.04746805 -87.11087938 21.34409874 -89.6875 24 C-102.13153547 37.4395583 -104.53924448 53.78414253 -104.17578125 71.41210938 C-104.24308687 79.98396139 -104.24308687 79.98396139 -106.60742188 83.15771484 C-108.3393915 84.64593547 -110.01385034 85.87964919 -112 87 C-112.66 86.67 -113.32 86.34 -114 86 C-114.33 91.94 -114.66 97.88 -115 104 C-115.66 104 -116.32 104 -117 104 C-117 103.34 -117 102.68 -117 102 C-117.66 101.34 -118.32 100.68 -119 100 C-119 99.01 -119 98.02 -119 97 C-120.32 97 -121.64 97 -123 97 C-123.33 96.67 -123.66 96.34 -124 96 C-124.33 96 -124.66 96 -125 96 C-125 90.72 -125 85.44 -125 80 C-124.34 80 -123.68 80 -123 80 C-122.6596875 79.13375 -122.6596875 79.13375 -122.3125 78.25 C-121 76 -121 76 -118.45703125 74.515625 C-114.66540605 70.63357949 -115.34456518 66.72522322 -115.375 61.5 C-115.13714557 49.0075603 -112.66360344 38.67695551 -107.8125 27.1875 C-106.82590674 24.92020725 -106.82590674 24.92020725 -107 22 C-106.38125 21.7525 -105.7625 21.505 -105.125 21.25 C-102.64931313 19.79371361 -102.04874998 18.62187494 -101 16 C-100.34 16 -99.68 16 -99 16 C-98.67 15.01 -98.34 14.02 -98 13 C-97.01 12.21625 -96.02 11.4325 -95 10.625 C-91.82791788 8.31112431 -91.82791788 8.31112431 -91.125 5.1875 C-91.08375 4.465625 -91.0425 3.74375 -91 3 C-90.25621094 2.88011719 -89.51242188 2.76023437 -88.74609375 2.63671875 C-86.06898842 2.01599589 -84.38571355 1.23403067 -82.0625 -0.1875 C-55.23463773 -15.54321484 -26.76581849 -14.45354198 0 0 Z M-120 76 C-119.67 76.66 -119.34 77.32 -119 78 C-118.34 77.34 -117.68 76.68 -117 76 C-117.99 76 -118.98 76 -120 76 Z M38 77 C39 79 39 79 39 79 Z M-124 89 C-123 92 -123 92 -123 92 Z M34 101 C35 103 35 103 35 103 Z " fill="#606460" transform="translate(141,12)"/>
<path d="M0 0 C1.46179688 0.77150391 1.46179688 0.77150391 2.953125 1.55859375 C3.62859375 2.03425781 4.3040625 2.50992187 5 3 C5 3.99 5 4.98 5 6 C5.58007812 6.25007813 6.16015625 6.50015625 6.7578125 6.7578125 C16.91476237 12.38483351 21.94842309 25.20984339 25.45703125 35.671875 C27.25476532 43.38014482 27.04140034 50.90296843 26.69726562 58.75390625 C26.58141913 64.39176895 27.19353117 67.53961699 31 72 C33.6091387 74.32277416 33.6091387 74.32277416 36 76 C35.45730469 76.44730469 34.91460937 76.89460938 34.35546875 77.35546875 C30.4460764 80.65908139 27.47755877 83.45780892 25 88 C24.34 88 23.68 88 23 88 C21.88671875 86.35546875 21.88671875 86.35546875 20.6875 84.1875 C18.59258848 80.66480652 16.81320419 78.74317906 13 77 C14 74 14 74 16.9375 71.5625 C19.76989662 69.19253548 20.76913307 68.30410258 22 65 C22.96077315 46.07295986 18.32437043 27.53021013 6 13 C4.05975349 11.23443994 2.06543549 9.6226299 0 8 C-0.495 9.485 -0.495 9.485 -1 11 C-4.22010918 9.85738061 -6.98020506 8.4034657 -9.875 6.625 C-23.33825126 -0.81289455 -39.64016332 -2.07099504 -54.62109375 0.66015625 C-60.92410645 2.55351897 -66.16676333 5.73586497 -71.52734375 9.51171875 C-74.10136761 11.06101273 -76.09044366 11.41904898 -79 12 C-88.84750547 19.69411976 -93.39496714 34.07689873 -95 46 C-95.33812087 49.71052081 -95.49574385 53.40026603 -95.5625 57.125 C-95.58940918 58.01364746 -95.61631836 58.90229492 -95.64404297 59.81787109 C-95.6183745 64.1674338 -95.40152664 67.07302449 -92.578125 70.5 C-91.30195312 71.7375 -91.30195312 71.7375 -90 73 C-89.401875 73.61875 -88.80375 74.2375 -88.1875 74.875 C-87.795625 75.24625 -87.40375 75.6175 -87 76 C-88.36125 76.99 -88.36125 76.99 -89.75 78 C-93.44506865 81.03836213 -95.16700722 84.65472888 -97 89 C-97.66 89 -98.32 89 -99 89 C-99.21914062 88.48050781 -99.43828125 87.96101563 -99.6640625 87.42578125 C-102.02183544 82.24059768 -104.39481569 79.34922495 -109 76 C-106.66666667 73.66666667 -104.33333333 71.33333333 -102 69 C-101.69373902 66.41440512 -101.69373902 66.41440512 -101.7265625 63.390625 C-101.70009644 61.67939453 -101.70009644 61.67939453 -101.6730957 59.93359375 C-101.65722412 58.71800781 -101.64135254 57.50242187 -101.625 56.25 C-101.13935833 37.55830052 -97.40444079 22.96914217 -83.953125 9.2890625 C-81.87793946 7.12972139 -81.87793946 7.12972139 -81.0859375 4.4609375 C-78.57025447 -1.2400708 -70.53941627 -4.60697344 -64.88720703 -6.83154297 C-60.31530612 -8.43320372 -55.6812668 -9.75911813 -51 -11 C-50.31421875 -11.20109375 -49.6284375 -11.4021875 -48.921875 -11.609375 C-31.66535245 -15.11679828 -14.71931016 -8.2584148 0 0 Z " fill="#A8A9A8" transform="translate(137,24)"/>
<path d="M0 0 C-0.33 3.63 -0.66 7.26 -1 11 C-2.12921875 11.12955078 -2.12921875 11.12955078 -3.28125 11.26171875 C-16.28733497 12.98218387 -28.15256809 15.98724234 -38.9609375 23.64453125 C-41 25 -41 25 -43 25 C-43.165 25.804375 -43.33 26.60875 -43.5 27.4375 C-44.96129433 30.90807402 -46.13243763 32.35597995 -48.6875 35 C-61.13153547 48.4395583 -63.53924448 64.78414253 -63.17578125 82.41210938 C-63.24308687 90.98396139 -63.24308687 90.98396139 -65.60742188 94.15771484 C-67.3393915 95.64593547 -69.01385034 96.87964919 -71 98 C-71.66 97.67 -72.32 97.34 -73 97 C-73.33 102.94 -73.66 108.88 -74 115 C-74.66 115 -75.32 115 -76 115 C-76 114.34 -76 113.68 -76 113 C-76.66 112.34 -77.32 111.68 -78 111 C-78 110.01 -78 109.02 -78 108 C-79.32 108 -80.64 108 -82 108 C-82.33 107.67 -82.66 107.34 -83 107 C-83.33 107 -83.66 107 -84 107 C-84 101.72 -84 96.44 -84 91 C-83.34 91 -82.68 91 -82 91 C-81.6596875 90.13375 -81.6596875 90.13375 -81.3125 89.25 C-80 87 -80 87 -77.45703125 85.515625 C-73.66540605 81.63357949 -74.34456518 77.72522322 -74.375 72.5 C-74.13714557 60.0075603 -71.66360344 49.67695551 -66.8125 38.1875 C-65.82590674 35.92020725 -65.82590674 35.92020725 -66 33 C-65.38125 32.7525 -64.7625 32.505 -64.125 32.25 C-61.64931313 30.79371361 -61.04874998 29.62187494 -60 27 C-59.34 27 -58.68 27 -58 27 C-57.67 26.01 -57.34 25.02 -57 24 C-56.01 23.21625 -55.02 22.4325 -54 21.625 C-50.82791788 19.31112431 -50.82791788 19.31112431 -50.125 16.1875 C-50.08375 15.465625 -50.0425 14.74375 -50 14 C-49.25621094 13.88011719 -48.51242188 13.76023437 -47.74609375 13.63671875 C-45.06898842 13.01599589 -43.38571355 12.23403067 -41.0625 10.8125 C-27.6057916 3.11015775 -15.42251144 -0.40058471 0 0 Z M-79 87 C-78.67 87.66 -78.34 88.32 -78 89 C-77.34 88.34 -76.68 87.68 -76 87 C-76.99 87 -77.98 87 -79 87 Z M-83 100 C-82 103 -82 103 -82 103 Z " fill="#51585A" transform="translate(100,1)"/>
<path d="M0 0 C6.0061414 -0.50051178 9.94192465 0.71706314 15 4 C17.6875 6.375 17.6875 6.375 20 9 C20.45503906 9.51046875 20.91007812 10.0209375 21.37890625 10.546875 C25.64899482 15.46173478 26.1210757 18.5829877 26 25 C23.36 25.99 20.72 26.98 18 28 C20.36292656 30.52588702 21.66462511 31.88820837 25 33 C25 33.66 25 34.32 25 35 C23.20703125 36.33203125 23.20703125 36.33203125 20.8125 37.8125 C10.87634614 44.27100001 5.35759726 53.15727269 1 64 C0.34 64 -0.32 64 -1 64 C-1.72703125 62.40671875 -1.72703125 62.40671875 -2.46875 60.78125 C-7.60358283 49.83479061 -12.67168772 41.98057175 -23.53125 36.0078125 C-24.0159375 35.67523438 -24.500625 35.34265625 -25 35 C-25 34.34 -25 33.68 -25 33 C-23.34850074 31.92189651 -21.65144899 30.91327446 -19.9375 29.9375 C-10.15942723 23.8450085 -2.96589292 13.46490361 -0.3359375 2.140625 C-0.16964844 1.08101563 -0.16964844 1.08101563 0 0 Z " fill="#BBBCBB" transform="translate(100,65)"/>
<path d="M0 0 C-0.97210405 9.99878453 -6.44561683 20.25376015 -14 27 C-21.90178571 33 -21.90178571 33 -25 33 C-24.0784156 35.33208274 -24.0784156 35.33208274 -21 36.5625 C-11.27879131 42.02071963 -5.32275745 50.96453094 -1 61 C-1 61.99 -1 62.98 -1 64 C-0.34 64 0.32 64 1 64 C1.10699219 63.2884375 1.21398437 62.576875 1.32421875 61.84375 C2.07168945 58.69832416 3.24593011 56.3237918 4.8125 53.5 C5.31394531 52.5821875 5.81539062 51.664375 6.33203125 50.71875 C9.45082584 45.63518786 12.77254081 42.16008198 17.625 38.6875 C18.58664063 37.99011719 19.54828125 37.29273438 20.5390625 36.57421875 C23 35 23 35 25 35 C25 34.34 25 33.68 25 33 C24.4225 32.9175 23.845 32.835 23.25 32.75 C20.3840696 31.79468987 19.0009236 30.21530827 17 28 C22.625 25 22.625 25 26 25 C26 23.35 26 21.7 26 20 C26.33 20 26.66 20 27 20 C27.14707005 24.27046182 27.23466116 28.54025981 27.3125 32.8125 C27.35439453 34.00810547 27.39628906 35.20371094 27.43945312 36.43554688 C27.55308684 44.77626163 26.12371034 50.73538921 22 58 C21.34 58 20.68 58 20 58 C19.75507812 58.59296875 19.51015625 59.1859375 19.2578125 59.796875 C16.74196463 64.20351537 12.63331499 66.23194974 8 68 C-0.01672846 69.14753971 -8.15743535 69.32944159 -15.10546875 64.61328125 C-21.80976832 58.90425915 -26.41408325 52.95316232 -27.29980469 43.95385742 C-27.43875933 40.46401665 -27.45840138 36.99242985 -27.4375 33.5 C-27.45748047 32.31535156 -27.47746094 31.13070312 -27.49804688 29.91015625 C-27.49274046 20.39044549 -25.56036054 14.15675696 -19 7 C-13.28986135 1.75284557 -7.77128616 -0.47579303 0 0 Z " fill="#5D5E5D" transform="translate(100,65)"/>
<path d="M0 0 C3.32476644 0.61873456 5.40614614 1.83104747 8.125 3.8125 C20.32827015 12.18966235 33.89864223 13.43711163 48.2890625 11.57421875 C55.45158243 10.00078108 61.57370611 6.90416661 67.96875 3.42578125 C71 2 71 2 75 2 C77.3125 4.3125 77.3125 4.3125 79 7 C77.66531883 11.00404351 75.19385391 11.98850049 71.6875 13.9375 C71.06029053 14.29013916 70.43308105 14.64277832 69.78686523 15.00610352 C55.33826158 22.89295958 36.96415039 26.00991861 20.74609375 22.12890625 C11.64193424 19.2809384 2.6029613 15.0746014 -4 8 C-2.87548273 5.0280615 -1.77706209 2.66559313 0 0 Z " fill="#A4A5A5" transform="translate(62,161)"/>
<path d="M0 0 C0.33 0.99 0.66 1.98 1 3 C2.32295638 3.68702885 3.65812182 4.3507041 5 5 C15.60469863 14.57428257 21.951651 28.83889558 23 43 C23.02358172 47.25328404 22.8835125 51.50495213 22.69726562 55.75390625 C22.58141913 61.39176895 23.19353117 64.53961699 27 69 C29.6091387 71.32277416 29.6091387 71.32277416 32 73 C31.45730469 73.44730469 30.91460937 73.89460938 30.35546875 74.35546875 C26.4460764 77.65908139 23.47755877 80.45780892 21 85 C20.34 85 19.68 85 19 85 C17.88671875 83.35546875 17.88671875 83.35546875 16.6875 81.1875 C14.59258848 77.66480652 12.81320419 75.74317906 9 74 C10 71 10 71 12.9375 68.5625 C15.76989662 66.19253548 16.76913307 65.30410258 18 62 C19.17129597 38.9257023 11.54475835 21.23349008 -3 4 C-2.01 2.68 -1.02 1.36 0 0 Z " fill="#787B78" transform="translate(141,27)"/>
<path d="M0 0 C1.32 1.32 2.64 2.64 4 4 C3.154375 4.928125 2.30875 5.85625 1.4375 6.8125 C-9.8368644 20.11251852 -14.11071693 34.27354903 -14.375 51.5 C-14.41238281 52.42425781 -14.44976562 53.34851563 -14.48828125 54.30078125 C-14.54634654 58.81051854 -14.54196721 61.97058536 -11.58984375 65.5390625 C-10.73519531 66.35117188 -9.88054688 67.16328125 -9 68 C-8.401875 68.61875 -7.80375 69.2375 -7.1875 69.875 C-6.795625 70.24625 -6.40375 70.6175 -6 71 C-7.36125 71.99 -7.36125 71.99 -8.75 73 C-12.44506865 76.03836213 -14.16700722 79.65472888 -16 84 C-16.66 84 -17.32 84 -18 84 C-18.21914063 83.48050781 -18.43828125 82.96101563 -18.6640625 82.42578125 C-21.02183544 77.24059768 -23.39481569 74.34922495 -28 71 C-25.66666667 68.66666667 -23.33333333 66.33333333 -21 64 C-20.69373902 61.41440512 -20.69373902 61.41440512 -20.7265625 58.390625 C-20.70891846 57.24980469 -20.69127441 56.10898438 -20.6730957 54.93359375 C-20.65722412 53.71800781 -20.64135254 52.50242188 -20.625 51.25 C-20.13394227 32.34984343 -16.2075713 17.97442557 -2.85546875 3.99609375 C-0.94939789 2.13329806 -0.94939789 2.13329806 0 0 Z " fill="#6D6F6E" transform="translate(56,29)"/>
<path d="M0 0 C4 5 4 5 5.3125 7.75 C9.57433566 15.9579798 15.96719249 23.98906416 25 27 C25 27.66 25 28.32 25 29 C23.20703125 30.33203125 23.20703125 30.33203125 20.8125 31.8125 C11.15502798 38.08985681 5.8433531 46.75444537 1 57 C0.67 57 0.34 57 0 57 C0 38.19 0 19.38 0 0 Z " fill="#D3D3D3" transform="translate(100,71)"/>
<path d="M0 0 C-0.97210405 9.99878453 -6.44561683 20.25376015 -14 27 C-21.90178571 33 -21.90178571 33 -25 33 C-25.33 33.66 -25.66 34.32 -26 35 C-27.89827044 33.10172956 -27.2614668 29.97035826 -27.3125 27.4375 C-27.26846488 21.24741975 -26.57413192 17.04800075 -23 12 C-22.360625 11.0925 -21.72125 10.185 -21.0625 9.25 C-15.09911136 2.74448513 -8.96170455 -0.54867579 0 0 Z " fill="#616261" transform="translate(100,65)"/>
<path d="M0 0 C10.22556313 3.33442276 18.01163441 11.66240315 23 21 C27 29.5875 27 29.5875 27 34 C20.01631456 34.63488049 15.64055929 33.18231775 10 29 C3.91736528 23.48209733 0.24724342 17.88305751 -0.171875 9.60546875 C-0.18578056 6.39676141 -0.13194282 3.20572188 0 0 Z " fill="#505050" transform="translate(73,99)"/>
<path d="M0 0 C14.93626809 -0.75947126 30.345714 4.51050504 42 14 C40.62845496 16.95409701 39.01136276 19.44008376 37 22 C33.77989082 20.85738061 31.01979494 19.4034657 28.125 17.625 C19.77022874 12.894828 9.50736826 10.77611169 0 10 C0 6.7 0 3.4 0 0 Z " fill="#E1E3E1" transform="translate(99,13)"/>
<path d="M0 0 C3.72940389 1.24313463 4.84656811 2.76985216 7 6 C5.66531883 10.00404351 3.19385391 10.98850049 -0.3125 12.9375 C-0.93970947 13.29013916 -1.56691895 13.64277832 -2.21313477 14.00610352 C-12.71650761 19.73943193 -23.07877898 22.20914423 -35 22 C-35 18.7 -35 15.4 -35 12 C-33.36804688 11.76216797 -33.36804688 11.76216797 -31.703125 11.51953125 C-21.24277484 9.89729961 -11.26827096 7.8496166 -2.4375 1.625 C-1.633125 1.08875 -0.82875 0.5525 0 0 Z " fill="#E7E8E6" transform="translate(134,162)"/>
<path d="M0 0 C5.04955491 1.2917466 7.5594494 3.11835317 11 7 C11.45761719 7.51304688 11.91523437 8.02609375 12.38671875 8.5546875 C16.6517511 13.46741817 17.12097944 16.58808967 17 23 C13.7 24.32 10.4 25.64 7 27 C5.70601853 25.56458334 4.41489889 24.12658648 3.125 22.6875 C2.40570313 21.88699219 1.68640625 21.08648437 0.9453125 20.26171875 C-3.04174432 15.62616474 -3.04174432 15.62616474 -2.75 11.25 C-2.15575028 7.38379703 -1.16576022 3.73043272 0 0 Z " fill="#8A8A8A" transform="translate(109,67)"/>
<path d="M0 0 C0.33 0.66 0.66 1.32 1 2 C1.99 1.67 2.98 1.34 4 1 C7.78862364 12.36587091 3.41156684 25.46551537 -1.63623047 35.84008789 C-5.68444744 43.65964378 -10.74206969 49.82349258 -17 56 C-17.66 56.66 -18.32 57.32 -19 58 C-20.32 56.35 -21.64 54.7 -23 53 C-22.26910156 52.45601562 -21.53820312 51.91203125 -20.78515625 51.3515625 C-13.84239987 45.48965599 -8.70772343 37.71803894 -5.75390625 29.15625 C-5 27 -5 27 -4.00610352 25.20410156 C-2.82864429 22.62460583 -2.49221297 20.39083335 -2.1484375 17.578125 C-2.01953125 16.55332031 -1.890625 15.52851562 -1.7578125 14.47265625 C-1.56832031 12.87744141 -1.56832031 12.87744141 -1.375 11.25 C-1.2409375 10.17105469 -1.106875 9.09210938 -0.96875 7.98046875 C-0.63926424 5.32104794 -0.31660208 2.66098018 0 0 Z " fill="#797A79" transform="translate(159,110)"/>
<path d="M0 0 C2 3 2 3 2 5 C2.99 5 3.98 5 5 5 C5.08636719 5.99257812 5.17273437 6.98515625 5.26171875 8.0078125 C7.06376767 26.2773286 13.30558769 40.66120127 26 54 C25.01 55.65 24.02 57.3 23 59 C10.87957258 47.23605574 0.56902583 32.44029711 -0.07617188 14.93310547 C-0.09796849 12.66278988 -0.08751141 10.39526615 -0.0625 8.125 C-0.05798828 7.34125 -0.05347656 6.5575 -0.04882812 5.75 C-0.03714093 3.83329986 -0.01920908 1.91663952 0 0 Z " fill="#6D6F6E" transform="translate(36,108)"/>
<path d="M0 0 C8.25 0.33 16.5 0.66 25 1 C25.33 10.9 25.66 20.8 26 31 C25.34 31 24.68 31 24 31 C23.27296875 29.40671875 23.27296875 29.40671875 22.53125 27.78125 C17.39641717 16.83479061 12.32831228 8.98057175 1.46875 3.0078125 C0.9840625 2.67523438 0.499375 2.34265625 0 2 C0 1.34 0 0.68 0 0 Z " fill="#9D9E9D" transform="translate(75,98)"/>
<path d="M0 0 C4 5 4 5 5.3125 7.75 C9.41703614 15.65503258 14.59368262 20.88147674 22.05859375 25.6875 C22.69925781 26.120625 23.33992188 26.55375 24 27 C24 27.33 24 27.66 24 28 C16.08 28 8.16 28 0 28 C0 18.76 0 9.52 0 0 Z " fill="#FCFCFC" transform="translate(100,71)"/>
<path d="M0 0 C2.05384283 1.84845855 3.37117401 3.58150594 4.875 5.9375 C6.98054635 8.97196386 9.02469127 10.85116592 12 13 C11.45730469 13.44730469 10.91460937 13.89460938 10.35546875 14.35546875 C6.4460764 17.65908139 3.47755877 20.45780892 1 25 C0.34 25 -0.32 25 -1 25 C-2.11328125 23.35546875 -2.11328125 23.35546875 -3.3125 21.1875 C-5.40741152 17.66480652 -7.18679581 15.74317906 -11 14 C-9.85386179 10.56158537 -8.33516297 9.59456857 -5.56640625 7.40625 C-3.15275346 5.23937966 -1.67260077 2.76622435 0 0 Z " fill="#B9B9B9" transform="translate(161,87)"/>
<path d="M0 0 C0.66 0 1.32 0 2 0 C2.32871094 0.77923828 2.32871094 0.77923828 2.6640625 1.57421875 C5.02183544 6.75940232 7.39481569 9.65077505 12 13 C11.2575 13.70125 10.515 14.4025 9.75 15.125 C6.28682569 18.74559133 3.5921543 22.22353711 2 27 C1.34 27 0.68 27 0 27 C-0.21914063 26.48050781 -0.43828125 25.96101563 -0.6640625 25.42578125 C-3.02183544 20.24059768 -5.39481569 17.34922495 -10 14 C-8.88625 12.948125 -8.88625 12.948125 -7.75 11.875 C-4.28682569 8.25440867 -1.5921543 4.77646289 0 0 Z " fill="#B9BABA" transform="translate(38,86)"/>
<path d="M0 0 C0.99 0 1.98 0 3 0 C4.421875 1.42578125 4.421875 1.42578125 5.75 3.3125 C6.19859375 3.92738281 6.6471875 4.54226562 7.109375 5.17578125 C8 7 8 7 7 10 C7.66 10 8.32 10 9 10 C11.71276903 15.72695683 10.50821265 20.12957232 9 26 C8.01 26 7.02 26 6 26 C4.98133771 27.65532623 3.98189187 29.32260138 3 31 C2.01 31.33 1.02 31.66 0 32 C0 21.44 0 10.88 0 0 Z M5 5 C6 7 6 7 6 7 Z M1 29 C2 31 2 31 2 31 Z " fill="#000000" transform="translate(174,84)"/>
<path d="M0 0 C0 10.56 0 21.12 0 32 C-0.66 32 -1.32 32 -2 32 C-2 31.34 -2 30.68 -2 30 C-2.66 29.34 -3.32 28.68 -4 28 C-4 27.01 -4 26.02 -4 25 C-5.32 25 -6.64 25 -8 25 C-8.33 24.67 -8.66 24.34 -9 24 C-9.33 24 -9.66 24 -10 24 C-10 18.72 -10 13.44 -10 8 C-9.34 8 -8.68 8 -8 8 C-7.773125 7.4225 -7.54625 6.845 -7.3125 6.25 C-5.90250077 3.83285847 -3.0972673 0 0 0 Z M-5 4 C-4.67 4.66 -4.34 5.32 -4 6 C-3.34 5.34 -2.68 4.68 -2 4 C-2.99 4 -3.98 4 -5 4 Z M-9 17 C-8 20 -8 20 -8 20 Z " fill="#000000" transform="translate(26,84)"/>
<path d="M0 0 C2.02846445 2.53558056 4.05635467 5.07172412 6.0625 7.625 C7.62944607 9.5457726 9.20602511 11.29572385 11 13 C10.0925 13.680625 9.185 14.36125 8.25 15.0625 C4.77393779 17.92901576 3.03435118 21.00954191 1 25 C0.67 25 0.34 25 0 25 C0 16.75 0 8.5 0 0 Z " fill="#F2F2F3" transform="translate(39,87)"/>
<path d="M0 0 C6.75 -0.125 6.75 -0.125 9 1 C8.44854729 6.23880078 7.57077907 10.97350697 6 16 C3.77304595 13.77304595 3.03967825 12.032382 1.875 9.125 C1.52179688 8.26132813 1.16859375 7.39765625 0.8046875 6.5078125 C0 4 0 4 0 0 Z " fill="#A6A6A6" transform="translate(100,65)"/>
<path d="M0 0 C0.33 0 0.66 0 1 0 C1 4.95 1 9.9 1 15 C0.34 15 -0.32 15 -1 15 C-1 14.34 -1 13.68 -1 13 C-1.86625 12.87625 -1.86625 12.87625 -2.75 12.75 C-5.6159304 11.79468987 -6.9990764 10.21530827 -9 8 C-3.375 5 -3.375 5 0 5 C0 3.35 0 1.7 0 0 Z " fill="#6D6E6D" transform="translate(126,85)"/>
<path d="M0 0 C4.02871174 1.34290391 4.67538369 3.51307554 7 7 C9.6091387 9.32277416 9.6091387 9.32277416 12 11 C8.04 11 4.08 11 0 11 C0 7.37 0 3.74 0 0 Z " fill="#F3F3F3" transform="translate(161,89)"/>
<path d="M0 0 C0.33 0 0.66 0 1 0 C1 7.26 1 14.52 1 22 C0.34 20.68 -0.32 19.36 -1 18 C-3.64 19.65 -6.28 21.3 -9 23 C-7.95475221 18.81900884 -7.5894258 18.27154064 -4.4375 15.75 C-3.79683594 15.22921875 -3.15617188 14.7084375 -2.49609375 14.171875 C-2.00238281 13.78515625 -1.50867188 13.3984375 -1 13 C-1.33 12.01 -1.66 11.02 -2 10 C-1.34 10 -0.68 10 0 10 C0 6.7 0 3.4 0 0 Z " fill="#4F504E" transform="translate(173,87)"/>
<path d="M0 0 C3.63 0 7.26 0 11 0 C10.278125 0.680625 9.55625 1.36125 8.8125 2.0625 C6.6923193 4.16455949 4.95693063 6.36407472 3.25 8.8125 C2.5075 9.864375 1.765 10.91625 1 12 C0.67 12 0.34 12 0 12 C0 8.04 0 4.08 0 0 Z " fill="#CBCCCC" transform="translate(161,100)"/>
<path d="M0 0 C3.3 0 6.6 0 10 0 C10.33 4.29 10.66 8.58 11 13 C10.34 13 9.68 13 9 13 C8.76925781 12.48050781 8.53851563 11.96101563 8.30078125 11.42578125 C6.09758071 6.71458958 3.8883021 3.45626853 0 0 Z " fill="#9C9D9C" transform="translate(29,100)"/>
<path d="M0 0 C3.3 0 6.6 0 10 0 C8.63875 1.5778125 8.63875 1.5778125 7.25 3.1875 C4.77093769 6.07778118 2.35686471 9.00859479 0 12 C0 8.04 0 4.08 0 0 Z " fill="#D0D1D0" transform="translate(39,100)"/>
<path d="M0 0 C3.63 0 7.26 0 11 0 C11 3.96 11 7.92 11 12 C10.01 10.68 9.02 9.36 8 8 C5.55365953 4.88240757 3.33903974 2.22602649 0 0 Z " fill="#9B9C9B" transform="translate(150,100)"/>
<path d="M0 0 C2.64 0 5.28 0 8 0 C7.67 2.31 7.34 4.62 7 7 C5.68 6.34 4.36 5.68 3 5 C3 4.01 3 3.02 3 2 C2.01 2 1.02 2 0 2 C0 1.34 0 0.68 0 0 Z " fill="#B4B4B4" transform="translate(101,66)"/>
<path d="M0 0 C0.33 0.66 0.66 1.32 1 2 C1.99 1.67 2.98 1.34 4 1 C5.04976964 4.14930893 5.10131595 6.38814456 5.0625 9.6875 C5.05347656 10.68136719 5.04445312 11.67523438 5.03515625 12.69921875 C5.02355469 13.45847656 5.01195312 14.21773437 5 15 C4.67 15 4.34 15 4 15 C4 12.03 4 9.06 4 6 C2.68 6.33 1.36 6.66 0 7 C0 4.69 0 2.38 0 0 Z " fill="#717471" transform="translate(159,110)"/>
<path d="M0 0 C0.99 0 1.98 0 3 0 C2.34 1.65 1.68 3.3 1 5 C0.67 5 0.34 5 0 5 C0 3.35 0 1.7 0 0 Z M-3 6 C-2.34 6.33 -1.68 6.66 -1 7 C-1.99 7.66 -2.98 8.32 -4 9 C-3.67 8.01 -3.34 7.02 -3 6 Z M-7 10 C-6.34 10.33 -5.68 10.66 -5 11 C-5.99 11 -6.98 11 -8 11 C-7.67 10.67 -7.34 10.34 -7 10 Z " fill="#2F3237" transform="translate(50,15)"/>
<path d="M0 0 C2 2 2 2 2.125 5.125 C2.08375 6.07375 2.0425 7.0225 2 8 C1.01 7.34 0.02 6.68 -1 6 C-1.25 3.4375 -1.25 3.4375 -1 1 C-0.67 0.67 -0.34 0.34 0 0 Z " fill="#767576" transform="translate(107,76)"/>
<path d="M0 0 C0.66 0 1.32 0 2 0 C2 0.99 2 1.98 2 3 C2.99 3.33 3.98 3.66 5 4 C4.67 5.65 4.34 7.3 4 9 C1.3144406 6.3144406 0.93950026 3.62378672 0 0 Z " fill="#9D9DA1" transform="translate(102,72)"/>
<path d="M0 0 C0 3 0 3 0 3 Z " fill="#000000" transform="translate(183,91)"/>
<path d="M0 0 C0.66 0 1.32 0 2 0 C1.67 0.66 1.34 1.32 1 2 C0.67 1.34 0.34 0.68 0 0 Z " fill="#000000" transform="translate(19,111)"/>
<path d="" fill="#000000" transform="translate(0,0)"/>
<path d="" fill="#000000" transform="translate(0,0)"/>
</svg>
