<?xml version="1.0" encoding="UTF-8"?>
<svg version="1.1" xmlns="http://www.w3.org/2000/svg" width="200" height="200">
<path d="M0 0 C2.16182481 -0.00217487 4.32312957 -0.02030076 6.48486328 -0.03930664 C7.86897613 -0.04224307 9.25309139 -0.0442262 10.63720703 -0.04516602 C11.89178711 -0.0492749 13.14636719 -0.05338379 14.43896484 -0.05761719 C17.95309378 0.1866241 20.64278809 0.98240354 23.93408203 2.18530273 C25.19220703 2.35030273 26.45033203 2.51530273 27.74658203 2.68530273 C28.79845703 2.85030273 29.85033203 3.01530273 30.93408203 3.18530273 C31.26408203 3.84530273 31.59408203 4.50530273 31.93408203 5.18530273 C33.80255802 6.17620524 35.70467229 7.10418798 37.62158203 7.99780273 C42.34811425 10.30191677 46.21523108 12.46645179 49.93408203 16.18530273 C49.93408203 16.84530273 49.93408203 17.50530273 49.93408203 18.18530273 C50.92408203 18.51530273 51.91408203 18.84530273 52.93408203 19.18530273 C54.53955078 20.74389648 54.53955078 20.74389648 56.12158203 22.62280273 C56.65138672 23.24026367 57.18119141 23.85772461 57.72705078 24.49389648 C58.93408203 26.18530273 58.93408203 26.18530273 58.93408203 28.18530273 C59.92408203 28.18530273 60.91408203 28.18530273 61.93408203 28.18530273 C62.01529297 28.86334961 62.09650391 29.54139648 62.18017578 30.23999023 C63.14251458 33.99959361 64.99673558 37.0290348 66.99658203 40.31030273 C70.93408203 46.78530273 70.93408203 46.78530273 70.93408203 50.18530273 C71.59408203 50.18530273 72.25408203 50.18530273 72.93408203 50.18530273 C73.24112061 50.77545166 73.54815918 51.36560059 73.86450195 51.97363281 C75.26984259 54.6557881 76.69539541 57.32667785 78.12158203 59.99780273 C78.84571289 61.39095703 78.84571289 61.39095703 79.58447266 62.81225586 C80.06464844 63.70493164 80.54482422 64.59760742 81.03955078 65.51733398 C81.47420654 66.33951416 81.9088623 67.16169434 82.35668945 68.00878906 C84.22055586 70.5805843 86.20690203 71.61765808 88.93408203 73.18530273 C90.09598578 76.50502772 90.05792052 77.81378727 88.93408203 81.18530273 C90.25408203 80.85530273 91.57408203 80.52530273 92.93408203 80.18530273 C95.93408203 83.93530273 95.93408203 83.93530273 95.93408203 86.18530273 C97.25408203 86.51530273 98.57408203 86.84530273 99.93408203 87.18530273 C100.77431391 91.53863009 101.04179198 95.62972792 100.99658203 100.06030273 C100.98755859 101.21272461 100.97853516 102.36514648 100.96923828 103.55249023 C100.95183594 104.85573242 100.95183594 104.85573242 100.93408203 106.18530273 C98.45908203 106.68030273 98.45908203 106.68030273 95.93408203 107.18530273 C95.60408203 108.17530273 95.27408203 109.16530273 94.93408203 110.18530273 C94.27408203 110.84530273 93.61408203 111.50530273 92.93408203 112.18530273 C92.53189453 113.39186523 92.53189453 113.39186523 92.12158203 114.62280273 C90.93408203 117.18530273 90.93408203 117.18530273 88.55908203 118.49780273 C85.53072534 120.44460347 84.69231329 122.30496268 83.24267578 125.52905273 C81.12700212 129.8235545 78.54956038 133.84452522 76.01904297 137.9050293 C74.13017967 140.98417882 72.68349055 143.65561269 71.93408203 147.18530273 C71.27408203 147.18530273 70.61408203 147.18530273 69.93408203 147.18530273 C69.56283203 148.17530273 69.56283203 148.17530273 69.18408203 149.18530273 C66.45805783 155.72776082 63.31866512 162.57780872 58.93408203 168.18530273 C58.27408203 168.18530273 57.61408203 168.18530273 56.93408203 168.18530273 C56.85029297 168.76795898 56.76650391 169.35061523 56.68017578 169.95092773 C55.71681507 172.8359661 54.30428499 173.98230999 51.99658203 175.93530273 C51.28630859 176.54889648 50.57603516 177.16249023 49.84423828 177.79467773 C47.93408203 179.18530273 47.93408203 179.18530273 45.93408203 179.18530273 C45.60408203 180.17530273 45.27408203 181.16530273 44.93408203 182.18530273 C43.34033203 183.28295898 43.34033203 183.28295898 41.43408203 184.24780273 C38.60389135 185.60975802 38.60389135 185.60975802 36.93408203 188.18530273 C33.87158203 188.81030273 33.87158203 188.81030273 30.93408203 189.18530273 C30.93408203 189.84530273 30.93408203 190.50530273 30.93408203 191.18530273 C30.16322266 191.31807617 29.39236328 191.45084961 28.59814453 191.58764648 C27.59525391 191.76424805 26.59236328 191.94084961 25.55908203 192.12280273 C24.56134766 192.29682617 23.56361328 192.47084961 22.53564453 192.65014648 C19.96498547 193.06242335 19.96498547 193.06242335 17.93408203 194.18530273 C13.56328375 194.39740819 9.18860448 194.3710978 4.81323242 194.37060547 C2.64042337 194.37278384 0.4681288 194.39092024 -1.70458984 194.40991211 C-3.0919579 194.41284782 -4.47932837 194.41483143 -5.86669922 194.41577148 C-7.75642456 194.42193481 -7.75642456 194.42193481 -9.68432617 194.42822266 C-12.97165529 194.19207419 -15.09146095 193.51719179 -18.06591797 192.18530273 C-20.39189308 191.80399534 -22.72503955 191.4607002 -25.06591797 191.18530273 C-25.06591797 190.52530273 -25.06591797 189.86530273 -25.06591797 189.18530273 C-26.02498047 188.84499023 -26.02498047 188.84499023 -27.00341797 188.49780273 C-29.68712226 187.34764375 -32.23738822 186.11314863 -34.81591797 184.74780273 C-35.59451172 184.3365918 -36.37310547 183.92538086 -37.17529297 183.50170898 C-39.06591797 182.18530273 -39.06591797 182.18530273 -40.06591797 179.18530273 C-40.96310547 178.99967773 -40.96310547 178.99967773 -41.87841797 178.81030273 C-45.0895729 177.8928299 -46.08868751 175.82161002 -48.06591797 173.18530273 C-49.27248047 172.04061523 -49.27248047 172.04061523 -50.50341797 170.87280273 C-53.19252022 168.05252477 -55.01527044 165.21443786 -56.95263672 161.85717773 C-57.9730476 160.02481826 -57.9730476 160.02481826 -60.06591797 159.18530273 C-60.80111319 157.20946559 -61.45664279 155.20352676 -62.06591797 153.18530273 C-62.62279297 151.51467773 -62.62279297 151.51467773 -63.19091797 149.81030273 C-63.47966797 148.94405273 -63.76841797 148.07780273 -64.06591797 147.18530273 C-64.72591797 147.18530273 -65.38591797 147.18530273 -66.06591797 147.18530273 C-66.47841797 146.17725586 -66.89091797 145.16920898 -67.31591797 144.13061523 C-68.96986541 140.27334579 -70.9498677 136.6798624 -73.06591797 133.06030273 C-73.40880859 132.46604492 -73.75169922 131.87178711 -74.10498047 131.25952148 C-75.63841081 128.60820871 -77.19449668 125.97923238 -78.81591797 123.38061523 C-80.06591797 121.18530273 -80.06591797 121.18530273 -80.06591797 119.18530273 C-81.17966797 118.81405273 -81.17966797 118.81405273 -82.31591797 118.43530273 C-85.31565252 117.07178703 -86.98669064 115.72658058 -89.06591797 113.18530273 C-89.06591797 112.19530273 -89.06591797 111.20530273 -89.06591797 110.18530273 C-91.04963157 109.15667019 -91.04963157 109.15667019 -93.12841797 108.37280273 C-95.06591797 107.18530273 -95.06591797 107.18530273 -95.81591797 105.06030273 C-95.89841797 104.44155273 -95.98091797 103.82280273 -96.06591797 103.18530273 C-95.40591797 103.18530273 -94.74591797 103.18530273 -94.06591797 103.18530273 C-94.72591797 102.85530273 -95.38591797 102.52530273 -96.06591797 102.18530273 C-97.38703773 97.14102729 -97.43826698 91.93000075 -95.06591797 87.18530273 C-94.40591797 87.18530273 -93.74591797 87.18530273 -93.06591797 87.18530273 C-92.40591797 85.86530273 -91.74591797 84.54530273 -91.06591797 83.18530273 C-90.40591797 83.18530273 -89.74591797 83.18530273 -89.06591797 83.18530273 C-89.06591797 82.52530273 -89.06591797 81.86530273 -89.06591797 81.18530273 C-87.11375362 79.23313839 -85.53391844 78.33703629 -83.06591797 77.18530273 C-83.39591797 75.86530273 -83.72591797 74.54530273 -84.06591797 73.18530273 C-83.16228516 72.83081055 -82.25865234 72.47631836 -81.32763672 72.11108398 C-77.4550209 69.8246174 -75.87851393 67.24722798 -73.87841797 63.37280273 C-73.5490625 62.76887695 -73.21970703 62.16495117 -72.88037109 61.54272461 C-70.85472709 57.80152524 -68.95198297 53.99830721 -67.06591797 50.18530273 C-66.40591797 50.18530273 -65.74591797 50.18530273 -65.06591797 50.18530273 C-64.98341797 49.52530273 -64.90091797 48.86530273 -64.81591797 48.18530273 C-63.81832006 44.1949111 -61.99425114 40.7998063 -60.06591797 37.18530273 C-59.40591797 37.18530273 -58.74591797 37.18530273 -58.06591797 37.18530273 C-57.29269914 34.20288727 -56.65395593 31.20949798 -56.06591797 28.18530273 C-55.07591797 28.18530273 -54.08591797 28.18530273 -53.06591797 28.18530273 C-52.83904297 27.46342773 -52.61216797 26.74155273 -52.37841797 25.99780273 C-50.80256669 22.62097856 -48.8571518 20.62763234 -46.06591797 18.18530273 C-45.40591797 18.18530273 -44.74591797 18.18530273 -44.06591797 18.18530273 C-43.84548828 17.60006836 -43.62505859 17.01483398 -43.39794922 16.41186523 C-41.64860165 13.48773587 -39.64571861 12.33716943 -36.75341797 10.56030273 C-35.80853516 9.96991211 -34.86365234 9.37952148 -33.89013672 8.77124023 C-31.06591797 7.18530273 -31.06591797 7.18530273 -28.27294922 6.09936523 C-25.89965448 5.39880638 -25.89965448 5.39880638 -25.06591797 3.18530273 C-22.85107422 2.58764648 -22.85107422 2.58764648 -20.12841797 2.12280273 C-13.19888695 0.9163664 -7.16663822 -0.00080869 0 0 Z M-87.06591797 110.18530273 C-87.06591797 113.18530273 -87.06591797 113.18530273 -87.06591797 113.18530273 Z " fill="#296D79" transform="translate(97.06591796875,2.814697265625)"/>
<path d="M0 0 C2.16182481 -0.00217487 4.32312957 -0.02030076 6.48486328 -0.03930664 C7.86897613 -0.04224307 9.25309139 -0.0442262 10.63720703 -0.04516602 C11.89178711 -0.0492749 13.14636719 -0.05338379 14.43896484 -0.05761719 C17.95309378 0.1866241 20.64278809 0.98240354 23.93408203 2.18530273 C25.19220703 2.35030273 26.45033203 2.51530273 27.74658203 2.68530273 C28.79845703 2.85030273 29.85033203 3.01530273 30.93408203 3.18530273 C31.26408203 3.84530273 31.59408203 4.50530273 31.93408203 5.18530273 C33.80255802 6.17620524 35.70467229 7.10418798 37.62158203 7.99780273 C42.34811425 10.30191677 46.21523108 12.46645179 49.93408203 16.18530273 C49.93408203 16.84530273 49.93408203 17.50530273 49.93408203 18.18530273 C50.92408203 18.51530273 51.91408203 18.84530273 52.93408203 19.18530273 C54.53955078 20.74389648 54.53955078 20.74389648 56.12158203 22.62280273 C56.65138672 23.24026367 57.18119141 23.85772461 57.72705078 24.49389648 C58.93408203 26.18530273 58.93408203 26.18530273 58.93408203 28.18530273 C59.92408203 28.18530273 60.91408203 28.18530273 61.93408203 28.18530273 C62.01529297 28.86334961 62.09650391 29.54139648 62.18017578 30.23999023 C63.14251458 33.99959361 64.99673558 37.0290348 66.99658203 40.31030273 C70.93408203 46.78530273 70.93408203 46.78530273 70.93408203 50.18530273 C71.59408203 50.18530273 72.25408203 50.18530273 72.93408203 50.18530273 C73.24112061 50.77545166 73.54815918 51.36560059 73.86450195 51.97363281 C75.26984259 54.6557881 76.69539541 57.32667785 78.12158203 59.99780273 C78.84571289 61.39095703 78.84571289 61.39095703 79.58447266 62.81225586 C80.06464844 63.70493164 80.54482422 64.59760742 81.03955078 65.51733398 C81.47420654 66.33951416 81.9088623 67.16169434 82.35668945 68.00878906 C84.22055586 70.5805843 86.20690203 71.61765808 88.93408203 73.18530273 C90.09598578 76.50502772 90.05792052 77.81378727 88.93408203 81.18530273 C90.25408203 80.85530273 91.57408203 80.52530273 92.93408203 80.18530273 C95.93408203 83.93530273 95.93408203 83.93530273 95.93408203 86.18530273 C97.25408203 86.51530273 98.57408203 86.84530273 99.93408203 87.18530273 C100.77431391 91.53863009 101.04179198 95.62972792 100.99658203 100.06030273 C100.98755859 101.21272461 100.97853516 102.36514648 100.96923828 103.55249023 C100.95183594 104.85573242 100.95183594 104.85573242 100.93408203 106.18530273 C98.45908203 106.68030273 98.45908203 106.68030273 95.93408203 107.18530273 C95.60408203 108.17530273 95.27408203 109.16530273 94.93408203 110.18530273 C94.27408203 110.84530273 93.61408203 111.50530273 92.93408203 112.18530273 C92.53189453 113.39186523 92.53189453 113.39186523 92.12158203 114.62280273 C90.93408203 117.18530273 90.93408203 117.18530273 88.55908203 118.49780273 C85.53072534 120.44460347 84.69231329 122.30496268 83.24267578 125.52905273 C81.12700212 129.8235545 78.54956038 133.84452522 76.01904297 137.9050293 C74.13017967 140.98417882 72.68349055 143.65561269 71.93408203 147.18530273 C71.27408203 147.18530273 70.61408203 147.18530273 69.93408203 147.18530273 C69.56283203 148.17530273 69.56283203 148.17530273 69.18408203 149.18530273 C66.45805783 155.72776082 63.31866512 162.57780872 58.93408203 168.18530273 C58.27408203 168.18530273 57.61408203 168.18530273 56.93408203 168.18530273 C56.85029297 168.76795898 56.76650391 169.35061523 56.68017578 169.95092773 C55.71681507 172.8359661 54.30428499 173.98230999 51.99658203 175.93530273 C51.28630859 176.54889648 50.57603516 177.16249023 49.84423828 177.79467773 C47.93408203 179.18530273 47.93408203 179.18530273 45.93408203 179.18530273 C45.60408203 180.17530273 45.27408203 181.16530273 44.93408203 182.18530273 C43.34033203 183.28295898 43.34033203 183.28295898 41.43408203 184.24780273 C38.60389135 185.60975802 38.60389135 185.60975802 36.93408203 188.18530273 C33.87158203 188.81030273 33.87158203 188.81030273 30.93408203 189.18530273 C30.93408203 189.84530273 30.93408203 190.50530273 30.93408203 191.18530273 C30.16322266 191.31807617 29.39236328 191.45084961 28.59814453 191.58764648 C27.59525391 191.76424805 26.59236328 191.94084961 25.55908203 192.12280273 C24.56134766 192.29682617 23.56361328 192.47084961 22.53564453 192.65014648 C19.96498547 193.06242335 19.96498547 193.06242335 17.93408203 194.18530273 C13.56328375 194.39740819 9.18860448 194.3710978 4.81323242 194.37060547 C2.64042337 194.37278384 0.4681288 194.39092024 -1.70458984 194.40991211 C-3.0919579 194.41284782 -4.47932837 194.41483143 -5.86669922 194.41577148 C-7.75642456 194.42193481 -7.75642456 194.42193481 -9.68432617 194.42822266 C-12.97165529 194.19207419 -15.09146095 193.51719179 -18.06591797 192.18530273 C-20.39189308 191.80399534 -22.72503955 191.4607002 -25.06591797 191.18530273 C-25.06591797 190.52530273 -25.06591797 189.86530273 -25.06591797 189.18530273 C-26.02498047 188.84499023 -26.02498047 188.84499023 -27.00341797 188.49780273 C-29.68712226 187.34764375 -32.23738822 186.11314863 -34.81591797 184.74780273 C-35.59451172 184.3365918 -36.37310547 183.92538086 -37.17529297 183.50170898 C-39.06591797 182.18530273 -39.06591797 182.18530273 -40.06591797 179.18530273 C-40.96310547 178.99967773 -40.96310547 178.99967773 -41.87841797 178.81030273 C-45.0895729 177.8928299 -46.08868751 175.82161002 -48.06591797 173.18530273 C-49.27248047 172.04061523 -49.27248047 172.04061523 -50.50341797 170.87280273 C-53.19252022 168.05252477 -55.01527044 165.21443786 -56.95263672 161.85717773 C-57.9730476 160.02481826 -57.9730476 160.02481826 -60.06591797 159.18530273 C-60.80111319 157.20946559 -61.45664279 155.20352676 -62.06591797 153.18530273 C-62.62279297 151.51467773 -62.62279297 151.51467773 -63.19091797 149.81030273 C-63.47966797 148.94405273 -63.76841797 148.07780273 -64.06591797 147.18530273 C-64.72591797 147.18530273 -65.38591797 147.18530273 -66.06591797 147.18530273 C-66.47841797 146.17725586 -66.89091797 145.16920898 -67.31591797 144.13061523 C-68.96986541 140.27334579 -70.9498677 136.6798624 -73.06591797 133.06030273 C-73.40880859 132.46604492 -73.75169922 131.87178711 -74.10498047 131.25952148 C-75.63841081 128.60820871 -77.19449668 125.97923238 -78.81591797 123.38061523 C-80.06591797 121.18530273 -80.06591797 121.18530273 -80.06591797 119.18530273 C-81.17966797 118.81405273 -81.17966797 118.81405273 -82.31591797 118.43530273 C-85.31565252 117.07178703 -86.98669064 115.72658058 -89.06591797 113.18530273 C-89.06591797 112.19530273 -89.06591797 111.20530273 -89.06591797 110.18530273 C-91.04963157 109.15667019 -91.04963157 109.15667019 -93.12841797 108.37280273 C-95.06591797 107.18530273 -95.06591797 107.18530273 -95.81591797 105.06030273 C-95.89841797 104.44155273 -95.98091797 103.82280273 -96.06591797 103.18530273 C-95.40591797 103.18530273 -94.74591797 103.18530273 -94.06591797 103.18530273 C-94.72591797 102.85530273 -95.38591797 102.52530273 -96.06591797 102.18530273 C-97.38703773 97.14102729 -97.43826698 91.93000075 -95.06591797 87.18530273 C-94.40591797 87.18530273 -93.74591797 87.18530273 -93.06591797 87.18530273 C-92.40591797 85.86530273 -91.74591797 84.54530273 -91.06591797 83.18530273 C-90.40591797 83.18530273 -89.74591797 83.18530273 -89.06591797 83.18530273 C-89.06591797 82.52530273 -89.06591797 81.86530273 -89.06591797 81.18530273 C-87.11375362 79.23313839 -85.53391844 78.33703629 -83.06591797 77.18530273 C-83.39591797 75.86530273 -83.72591797 74.54530273 -84.06591797 73.18530273 C-83.16228516 72.83081055 -82.25865234 72.47631836 -81.32763672 72.11108398 C-77.4550209 69.8246174 -75.87851393 67.24722798 -73.87841797 63.37280273 C-73.5490625 62.76887695 -73.21970703 62.16495117 -72.88037109 61.54272461 C-70.85472709 57.80152524 -68.95198297 53.99830721 -67.06591797 50.18530273 C-66.40591797 50.18530273 -65.74591797 50.18530273 -65.06591797 50.18530273 C-64.98341797 49.52530273 -64.90091797 48.86530273 -64.81591797 48.18530273 C-63.81832006 44.1949111 -61.99425114 40.7998063 -60.06591797 37.18530273 C-59.40591797 37.18530273 -58.74591797 37.18530273 -58.06591797 37.18530273 C-57.29269914 34.20288727 -56.65395593 31.20949798 -56.06591797 28.18530273 C-55.07591797 28.18530273 -54.08591797 28.18530273 -53.06591797 28.18530273 C-52.83904297 27.46342773 -52.61216797 26.74155273 -52.37841797 25.99780273 C-50.80256669 22.62097856 -48.8571518 20.62763234 -46.06591797 18.18530273 C-45.40591797 18.18530273 -44.74591797 18.18530273 -44.06591797 18.18530273 C-43.84548828 17.60006836 -43.62505859 17.01483398 -43.39794922 16.41186523 C-41.64860165 13.48773587 -39.64571861 12.33716943 -36.75341797 10.56030273 C-35.80853516 9.96991211 -34.86365234 9.37952148 -33.89013672 8.77124023 C-31.06591797 7.18530273 -31.06591797 7.18530273 -28.27294922 6.09936523 C-25.89965448 5.39880638 -25.89965448 5.39880638 -25.06591797 3.18530273 C-22.85107422 2.58764648 -22.85107422 2.58764648 -20.12841797 2.12280273 C-13.19888695 0.9163664 -7.16663822 -0.00080869 0 0 Z M-42.06591797 28.18530273 C-42.06591797 29.17530273 -42.06591797 30.16530273 -42.06591797 31.18530273 C-39.51666891 33.22470198 -37.929431 34.20744409 -34.62841797 34.12280273 C-31.93194034 33.31421001 -31.93194034 33.31421001 -29.80419922 31.17358398 C-24.59706108 27.6331775 -17.73157572 28.50194991 -11.69091797 28.43530273 C-10.38251953 28.4056543 -9.07412109 28.37600586 -7.72607422 28.34545898 C-4.50635148 28.27495411 -1.2861316 28.22784188 1.93408203 28.18530273 C1.93408203 32.14530273 1.93408203 36.10530273 1.93408203 40.18530273 C-0.91216797 39.99967773 -0.91216797 39.99967773 -3.81591797 39.81030273 C-12.39123197 39.83829614 -18.79299895 42.55146378 -25.31201172 48.09545898 C-31.1973408 54.23318034 -35.07739411 61.75176456 -39.06591797 69.18530273 C-40.04410004 70.99833429 -41.02319431 72.81087415 -42.00341797 74.62280273 C-42.46748047 75.4903418 -42.93154297 76.35788086 -43.40966797 77.25170898 C-44.7114721 79.55749885 -46.05797145 81.78911294 -47.47216797 84.02514648 C-48.09877319 85.0268689 -48.09877319 85.0268689 -48.73803711 86.04882812 C-49.56577441 87.36461582 -50.40569801 88.67283531 -51.2590332 89.97216797 C-52.97546129 92.71180207 -54.0831062 94.59402743 -53.98779297 97.87280273 C-53.01829227 100.30477058 -51.91357806 102.19089536 -50.37841797 104.31030273 C-47.5033505 108.45559003 -45.07947248 112.71432272 -42.69873047 117.15795898 C-32.05825298 138.47460443 -32.05825298 138.47460443 -13.68701172 152.50561523 C-8.51470448 153.84686927 -3.37066313 153.40866043 1.93408203 153.18530273 C1.93408203 157.14530273 1.93408203 161.10530273 1.93408203 165.18530273 C-2.12310274 165.09153465 -6.17975856 164.98539001 -10.23632812 164.86791992 C-11.6154704 164.82970936 -12.99470964 164.79484271 -14.37402344 164.76342773 C-16.36008764 164.7176065 -18.34583476 164.65864011 -20.33154297 164.59936523 C-21.52553711 164.56794434 -22.71953125 164.53652344 -23.94970703 164.50415039 C-26.9257984 164.19963963 -28.61715588 163.85453053 -31.06591797 162.18530273 C-31.72591797 161.19530273 -32.38591797 160.20530273 -33.06591797 159.18530273 C-36.14905307 160.38429972 -39.12871289 161.66230751 -42.06591797 163.18530273 C-40.73892963 166.18235444 -39.3636509 168.11516578 -36.87841797 170.24780273 C-36.32798828 170.7337793 -35.77755859 171.21975586 -35.21044922 171.72045898 C-28.2382939 176.48286016 -22.02756619 176.6648061 -13.77294922 176.68920898 C-11.99932259 176.70418678 -11.99932259 176.70418678 -10.18986511 176.71946716 C-7.6927743 176.73461963 -5.19562306 176.74169385 -2.69848633 176.74121094 C1.09218376 176.74775201 4.88020519 176.80221496 8.67041016 176.85913086 C11.10594816 176.8679381 13.54149849 176.87388885 15.97705078 176.87670898 C17.65579536 176.90904381 17.65579536 176.90904381 19.36845398 176.94203186 C28.21062986 176.86629951 35.9456866 174.45485782 42.77018738 168.61378479 C44.14463384 167.23398799 44.14463384 167.23398799 43.93408203 165.18530273 C44.59408203 165.18530273 45.25408203 165.18530273 45.93408203 165.18530273 C45.93408203 164.52530273 45.93408203 163.86530273 45.93408203 163.18530273 C45.27408203 163.18530273 44.61408203 163.18530273 43.93408203 163.18530273 C44.88246461 159.18102074 46.45920845 156.31527569 48.87158203 153.06030273 C52.4445052 148.1308548 55.35355718 142.96614577 58.24658203 137.62280273 C61.89178962 130.89061134 65.60338484 124.21520681 69.49658203 117.62280273 C69.91399658 116.91502686 70.33141113 116.20725098 70.76147461 115.47802734 C72.4275263 112.66831535 74.12173758 109.90381941 75.93408203 107.18530273 C76.92408203 108.17530273 77.91408203 109.16530273 78.93408203 110.18530273 C79.37107422 109.40606445 79.37107422 109.40606445 79.81689453 108.61108398 C82.66108992 103.77237423 85.43129985 100.5362104 89.93408203 97.18530273 C89.21220703 96.69030273 88.49033203 96.19530273 87.74658203 95.68530273 C84.74069218 93.01340064 83.04294432 90.43513014 81.04736328 86.98999023 C79.93648119 85.03399272 79.93648119 85.03399272 77.93408203 83.18530273 C77.27408203 84.17530273 76.61408203 85.16530273 75.93408203 86.18530273 C71.32599979 79.77894449 67.54820378 72.97635673 63.76220703 66.06933594 C60.54746902 60.2274937 57.15403455 54.54396187 53.61376953 48.89233398 C52.24246621 46.68230328 50.94128418 44.46093608 49.68408203 42.18530273 C48.02963252 39.12934393 48.02963252 39.12934393 45.68408203 36.62280273 C43.93408203 34.18530273 43.93408203 34.18530273 44.08251953 31.29858398 C44.22975423 28.11834186 44.22975423 28.11834186 42.17626953 25.91967773 C41.39509766 25.26483398 40.61392578 24.60999023 39.80908203 23.93530273 C39.04337891 23.27014648 38.27767578 22.60499023 37.48876953 21.91967773 C30.93355106 17.46934593 24.09638972 17.84948088 16.44970703 17.81420898 C14.63354889 17.80066628 14.63354889 17.80066628 12.78070068 17.78684998 C10.22215236 17.77236401 7.66356713 17.76346486 5.10498047 17.75976562 C1.21143391 17.74788619 -2.68051882 17.69869376 -6.57373047 17.64819336 C-9.06591028 17.63872642 -11.55809977 17.63149268 -14.05029297 17.62670898 C-15.20478943 17.60717667 -16.35928589 17.58764435 -17.54876709 17.56752014 C-27.29952431 17.62134418 -35.85229428 20.31471273 -42.06591797 28.18530273 Z M-87.06591797 110.18530273 C-87.06591797 113.18530273 -87.06591797 113.18530273 -87.06591797 113.18530273 Z " fill="#5F6460" transform="translate(97.06591796875,2.814697265625)"/>
<path d="M0 0 C1.21647217 -0.00287018 2.43294434 -0.00574036 3.6862793 -0.00869751 C6.25146959 -0.01073383 8.81667557 -0.00523431 11.38183594 0.00732422 C15.29918269 0.02338291 19.21549768 0.00745967 23.1328125 -0.01171875 C25.6302106 -0.00973624 28.12760806 -0.00589242 30.625 0 C31.79184326 -0.00607269 32.95868652 -0.01214539 34.16088867 -0.0184021 C43.74556386 0.06414257 49.63470026 2.05270827 56.8046875 8.58203125 C58.94230068 11.15713521 58.37816851 13.11501213 58.3125 16.3984375 C59.8512691 18.72257243 61.6082797 20.7912147 63.390625 22.93359375 C65.92962617 26.18991436 67.73709816 29.66357943 69.6484375 33.3125 C71.59072063 36.91438656 73.68727899 40.40250399 75.8125 43.8984375 C79.03875543 49.21594619 82.0891429 54.59457467 85.02734375 60.078125 C86.63384888 62.97862362 88.4071313 65.68695127 90.3125 68.3984375 C91.3025 67.4084375 92.2925 66.4184375 93.3125 65.3984375 C93.60382813 66.00171875 93.89515625 66.605 94.1953125 67.2265625 C96.91139546 72.52207015 99.04091201 75.5787509 104.3125 78.3984375 C103.19875 79.48125 103.19875 79.48125 102.0625 80.5859375 C98.4570553 84.27332413 95.37795001 88.26007998 92.3125 92.3984375 C91.6525 91.4084375 90.9925 90.4184375 90.3125 89.3984375 C87.84973004 93.52080049 85.39208785 97.64619871 82.9375 101.7734375 C82.57312836 102.38569183 82.20875671 102.99794617 81.83334351 103.62875366 C76.88930378 111.9441202 72.02920203 120.2899437 67.49658203 128.83935547 C65.75761026 132.06275732 63.98418208 134.91471259 61.59375 137.69921875 C59.28160265 140.43499584 58.62214212 141.88916016 58.3125 145.3984375 C58.9725 145.3984375 59.6325 145.3984375 60.3125 145.3984375 C60.3125 146.0584375 60.3125 146.7184375 60.3125 147.3984375 C59.6525 147.3984375 58.9925 147.3984375 58.3125 147.3984375 C58.06113281 148.00429687 57.80976563 148.61015625 57.55078125 149.234375 C56.13209254 151.71372372 54.93724427 152.57879941 52.5 154.0234375 C51.83355469 154.42820313 51.16710937 154.83296875 50.48046875 155.25 C46.19771784 157.51870048 42.72502075 158.64946036 37.85473633 158.70483398 C36.25200615 158.72881508 36.25200615 158.72881508 34.61689758 158.75328064 C33.47101669 158.75864334 32.3251358 158.76400604 31.14453125 158.76953125 C29.95454025 158.77855972 28.76454926 158.7875882 27.53849792 158.79689026 C25.02105217 158.81138812 22.50356877 158.82027833 19.98608398 158.82397461 C16.15608226 158.8358412 12.32770736 158.88501064 8.49804688 158.93554688 C6.04688282 158.94501508 3.59570892 158.95224821 1.14453125 158.95703125 C0.00877151 158.97656357 -1.12698822 158.99609589 -2.29716492 159.01622009 C-11.47983419 158.96474682 -18.5867768 156.61167354 -25.3125 150.2109375 C-27.6875 147.3984375 -27.6875 147.3984375 -27.6875 145.3984375 C-22.51171875 142.17578125 -22.51171875 142.17578125 -20.6875 141.3984375 C-17.63889986 142.41463755 -16.82083078 143.17235321 -14.6875 145.3984375 C-11.84214275 146.82111612 -9.32531448 146.61815619 -6.1484375 146.71484375 C-4.84648438 146.75673828 -3.54453125 146.79863281 -2.203125 146.84179688 C-0.82291955 146.88161049 0.55728883 146.92132272 1.9375 146.9609375 C3.32553415 147.00413157 4.71355528 147.04774615 6.1015625 147.09179688 C9.50510256 147.1981575 12.90871778 147.30018464 16.3125 147.3984375 C16.3125 143.4384375 16.3125 139.4784375 16.3125 135.3984375 C12.0225 135.3984375 7.7325 135.3984375 3.3125 135.3984375 C3.3125 135.0684375 3.3125 134.7384375 3.3125 134.3984375 C4.11357178 134.39432861 4.91464355 134.39021973 5.73999023 134.38598633 C9.41071564 134.35285465 13.07982445 134.28218531 16.75 134.2109375 C18.01005859 134.20513672 19.27011719 134.19933594 20.56835938 134.19335938 C27.56517026 134.02894345 32.66755339 133.48312504 38.56274414 129.5612793 C40.3125 128.3984375 40.3125 128.3984375 43.3125 127.3984375 C44.34155211 125.63999142 44.34155211 125.63999142 45.3125 123.3984375 C46.54852132 121.36902412 47.80026591 119.34915196 49.0625 117.3359375 C52.0456283 112.54009807 54.84386764 107.69357567 57.4375 102.67578125 C59.03657828 99.88072567 60.73346419 97.29710056 62.5625 94.65234375 C68.99374475 86.07843367 68.99374475 86.07843367 70.99609375 76.0859375 C69.37626545 73.1761676 67.5157803 70.89099741 65.3125 68.3984375 C64.25261484 66.65069758 63.23338932 64.87783505 62.25 63.0859375 C61.33250243 61.53009152 60.41492305 59.9742936 59.49658203 58.41894531 C58.03620189 55.92696468 56.59528518 53.42399232 55.15234375 50.921875 C53.99766386 48.93474006 52.84271356 46.94776223 51.6875 44.9609375 C51.13698975 44.00082764 50.58647949 43.04071777 50.01928711 42.05151367 C45.00432864 33.46814674 39.95799087 27.65046491 30.3125 24.3984375 C25.59663425 23.71044831 20.948152 23.60887426 16.1875 23.5859375 C14.94484375 23.56080078 13.7021875 23.53566406 12.421875 23.50976562 C9.38509738 23.45136606 6.34974577 23.41473928 3.3125 23.3984375 C3.3125 23.0684375 3.3125 22.7384375 3.3125 22.3984375 C7.6025 22.3984375 11.8925 22.3984375 16.3125 22.3984375 C16.3125 18.4384375 16.3125 14.4784375 16.3125 10.3984375 C11.76942939 10.45845164 7.22962986 10.54551239 2.6875 10.6484375 C1.40230469 10.66261719 0.11710937 10.67679688 -1.20703125 10.69140625 C-10.25193033 10.85243697 -10.25193033 10.85243697 -17.6875 15.3984375 C-20.25 16.3359375 -20.25 16.3359375 -22.6875 16.3984375 C-25.5 14.9609375 -25.5 14.9609375 -27.6875 13.3984375 C-27.1190445 10.02414397 -26.17018097 8.52849437 -23.5625 6.3359375 C-23.00304688 5.84996094 -22.44359375 5.36398438 -21.8671875 4.86328125 C-14.69765371 0.04504618 -8.45988735 -0.04402845 0 0 Z " fill="#606663" transform="translate(82.6875,20.6015625)"/>
<path d="M0 0 C1.30839844 0.01804687 2.61679688 0.03609375 3.96484375 0.0546875 C7.18521078 0.10170016 10.40519994 0.17343936 13.625 0.25 C13.625 4.21 13.625 8.17 13.625 12.25 C11.7275 12.29125 9.83 12.3325 7.875 12.375 C-1.05079382 13.08478535 -8.87353343 16.17323087 -15.125 22.75 C-20.24032237 29.25927883 -23.97732565 36.8112285 -27.8984375 44.0703125 C-28.36507812 44.93398437 -28.83171875 45.79765625 -29.3125 46.6875 C-29.7765625 47.55503906 -30.240625 48.42257813 -30.71875 49.31640625 C-32.02055413 51.62219612 -33.36705348 53.8538102 -34.78125 56.08984375 C-35.19898682 56.75765869 -35.61672363 57.42547363 -36.04711914 58.11352539 C-36.87485644 59.42931309 -37.71478004 60.73753257 -38.56811523 62.03686523 C-40.28454332 64.77649933 -41.39218824 66.6587247 -41.296875 69.9375 C-40.32737431 72.36946784 -39.22266009 74.25559263 -37.6875 76.375 C-34.81243253 80.5202873 -32.38855451 84.77901999 -30.0078125 89.22265625 C-26.9107325 94.96485004 -23.67458834 100.62207311 -20.375 106.25 C-19.859375 107.13429688 -19.34375 108.01859375 -18.8125 108.9296875 C-14.15296946 116.45077756 -7.90108411 121.59433446 0.625 124.25 C4.9529534 124.76813527 9.27115706 125.06013317 13.625 125.25 C13.625 129.21 13.625 133.17 13.625 137.25 C9.5865943 137.3244389 5.54845707 137.37873729 1.50952148 137.41479492 C0.13705483 137.42983432 -1.23536414 137.45027133 -2.60766602 137.47631836 C-4.58588656 137.51291221 -6.56446514 137.52816698 -8.54296875 137.54296875 C-9.73172607 137.5586792 -10.9204834 137.57438965 -12.14526367 137.59057617 C-15.69090796 137.21668746 -17.54558165 136.37877583 -20.375 134.25 C-20.705 133.59 -21.035 132.93 -21.375 132.25 C-22.138125 132.559375 -22.90125 132.86875 -23.6875 133.1875 C-25.56289677 133.92893593 -27.46184652 134.61228217 -29.375 135.25 C-29.560625 134.46625 -29.74625 133.6825 -29.9375 132.875 C-31.19542187 129.7028492 -32.32158717 127.81130344 -34.3125 125.125 C-37.88555249 120.19537364 -40.793386 115.03040184 -43.6875 109.6875 C-47.36304506 102.92704291 -51.04420705 96.17412112 -54.875 89.5 C-55.28403564 88.7670874 -55.69307129 88.0341748 -56.11450195 87.27905273 C-57.11618533 85.55047295 -58.23560079 83.89107498 -59.375 82.25 C-60.365 82.25 -61.355 82.25 -62.375 82.25 C-64.05859375 80.203125 -64.05859375 80.203125 -65.8125 77.5 C-68.08159343 74.02783019 -70.34937473 71.09608267 -73.375 68.25 C-72.91609375 67.89808594 -72.4571875 67.54617187 -71.984375 67.18359375 C-67.53627195 63.60455285 -64.92763762 60.35527523 -62.375 55.25 C-61.055 55.58 -59.735 55.91 -58.375 56.25 C-58.12492187 55.39535156 -57.87484375 54.54070312 -57.6171875 53.66015625 C-56.29627842 50.03388698 -54.53767621 46.93701008 -52.5 43.6875 C-48.02846458 36.41519469 -43.79624888 29.02058433 -39.62548828 21.57202148 C-36.79466807 16.56317181 -33.77945471 11.88699894 -30.375 7.25 C-29.66825371 5.93747118 -28.97536728 4.61447109 -28.375 3.25 C-27.385 3.91 -26.395 4.57 -25.375 5.25 C-22.03603324 5.06951531 -20.61224854 4.46315617 -18.10546875 2.2109375 C-12.9038726 -1.33891391 -6.00448446 -0.15658635 0 0 Z " fill="#51595C" transform="translate(85.375,30.75)"/>
<path d="M0 0 C3.650625 0.0309375 3.650625 0.0309375 7.375 0.0625 C7.87 8.9725 7.87 8.9725 8.375 18.0625 C6.32539062 18.07667969 4.27578125 18.09085938 2.1640625 18.10546875 C0.144989 18.14028036 -1.87408535 18.17527368 -3.89306641 18.21508789 C-5.27966878 18.23806404 -6.66644062 18.25261505 -8.05322266 18.25805664 C-18.37875042 18.3065158 -25.77484362 19.88381687 -34.25 25.9375 C-35.93895506 28.09738043 -35.93895506 28.09738043 -35.48046875 31.3203125 C-35.65331971 35.79575089 -36.73974845 37.44124827 -39.3125 41.0625 C-44.39552814 48.46511011 -48.74779562 56.2206386 -53.10620117 64.06640625 C-55.78500686 68.87085263 -58.53589623 73.51347733 -61.625 78.0625 C-62.140625 79.155625 -62.65625 80.24875 -63.1875 81.375 C-64.625 84.0625 -64.625 84.0625 -67.625 85.0625 C-68.12 84.5675 -68.12 84.5675 -68.625 84.0625 C-69.16125 85.114375 -69.6975 86.16625 -70.25 87.25 C-72.45383061 91.15030454 -75.06099992 93.38949994 -78.625 96.0625 C-77.903125 96.743125 -77.18125 97.42375 -76.4375 98.125 C-73.85305387 100.68024335 -71.89030755 103.45816192 -69.93359375 106.51171875 C-68.7169899 108.19209281 -68.7169899 108.19209281 -66.73925781 108.85424805 C-63.95831636 110.44349507 -63.06720116 112.17087819 -61.48828125 114.9453125 C-60.91529297 115.94046875 -60.34230469 116.935625 -59.75195312 117.9609375 C-59.15318359 119.02570313 -58.55441406 120.09046875 -57.9375 121.1875 C-57.31681641 122.2703125 -56.69613281 123.353125 -56.05664062 124.46875 C-53.31063398 129.27069723 -50.60165968 134.09267123 -47.91796875 138.9296875 C-47.52689941 139.63407959 -47.13583008 140.33847168 -46.73291016 141.06420898 C-46.0048179 142.37743842 -45.27915576 143.69201867 -44.55615234 145.00805664 C-42.63212995 148.45997917 -40.5627634 151.56783338 -38.0625 154.625 C-35.76477369 157.44915957 -35.61325628 157.72780403 -35.75 161.625 C-35.96883083 165.01777727 -35.96883083 165.01777727 -34.11328125 166.94921875 C-25.19802824 175.04936292 -17.39196723 175.55329816 -5.6875 175.75 C-4.32223375 175.78322013 -2.95699787 175.81771404 -1.59179688 175.85351562 C1.73018293 175.93568474 5.05257742 176.00077658 8.375 176.0625 C8.045 181.6725 7.715 187.2825 7.375 193.0625 C-5.96044304 194.96756329 -5.96044304 194.96756329 -12.625 192.0625 C-14.95097511 191.6811926 -17.28412158 191.33789746 -19.625 191.0625 C-19.625 190.4025 -19.625 189.7425 -19.625 189.0625 C-20.5840625 188.7221875 -20.5840625 188.7221875 -21.5625 188.375 C-24.24620429 187.22484102 -26.79647025 185.9903459 -29.375 184.625 C-30.15359375 184.21378906 -30.9321875 183.80257812 -31.734375 183.37890625 C-33.625 182.0625 -33.625 182.0625 -34.625 179.0625 C-35.5221875 178.876875 -35.5221875 178.876875 -36.4375 178.6875 C-39.64865493 177.77002716 -40.64776954 175.69880728 -42.625 173.0625 C-43.8315625 171.9178125 -43.8315625 171.9178125 -45.0625 170.75 C-47.75160225 167.92972203 -49.57435247 165.09163513 -51.51171875 161.734375 C-52.53212963 159.90201553 -52.53212963 159.90201553 -54.625 159.0625 C-55.36019522 157.08666285 -56.01572482 155.08072402 -56.625 153.0625 C-57.181875 151.391875 -57.181875 151.391875 -57.75 149.6875 C-58.03875 148.82125 -58.3275 147.955 -58.625 147.0625 C-59.285 147.0625 -59.945 147.0625 -60.625 147.0625 C-61.0375 146.05445313 -61.45 145.04640625 -61.875 144.0078125 C-63.52894744 140.15054305 -65.50894973 136.55705967 -67.625 132.9375 C-67.96789062 132.34324219 -68.31078125 131.74898437 -68.6640625 131.13671875 C-70.19749284 128.48540598 -71.75357872 125.85642965 -73.375 123.2578125 C-74.625 121.0625 -74.625 121.0625 -74.625 119.0625 C-75.73875 118.69125 -75.73875 118.69125 -76.875 118.3125 C-79.87473455 116.9489843 -81.54577267 115.60377785 -83.625 113.0625 C-83.625 112.0725 -83.625 111.0825 -83.625 110.0625 C-85.6087136 109.03386746 -85.6087136 109.03386746 -87.6875 108.25 C-89.625 107.0625 -89.625 107.0625 -90.375 104.9375 C-90.4575 104.31875 -90.54 103.7 -90.625 103.0625 C-89.965 103.0625 -89.305 103.0625 -88.625 103.0625 C-89.285 102.7325 -89.945 102.4025 -90.625 102.0625 C-91.94611976 97.01822455 -91.99734901 91.80719801 -89.625 87.0625 C-88.965 87.0625 -88.305 87.0625 -87.625 87.0625 C-86.965 85.7425 -86.305 84.4225 -85.625 83.0625 C-84.965 83.0625 -84.305 83.0625 -83.625 83.0625 C-83.625 82.4025 -83.625 81.7425 -83.625 81.0625 C-81.67283565 79.11033565 -80.09300047 78.21423355 -77.625 77.0625 C-77.955 75.7425 -78.285 74.4225 -78.625 73.0625 C-77.72136719 72.70800781 -76.81773438 72.35351562 -75.88671875 71.98828125 C-72.01410293 69.70181466 -70.43759596 67.12442524 -68.4375 63.25 C-68.10814453 62.64607422 -67.77878906 62.04214844 -67.43945312 61.41992188 C-65.41380912 57.67872251 -63.511065 53.87550447 -61.625 50.0625 C-60.965 50.0625 -60.305 50.0625 -59.625 50.0625 C-59.5425 49.4025 -59.46 48.7425 -59.375 48.0625 C-58.37740209 44.07210837 -56.55333317 40.67700357 -54.625 37.0625 C-53.965 37.0625 -53.305 37.0625 -52.625 37.0625 C-51.85178118 34.08008453 -51.21303797 31.08669525 -50.625 28.0625 C-49.635 28.0625 -48.645 28.0625 -47.625 28.0625 C-47.398125 27.340625 -47.17125 26.61875 -46.9375 25.875 C-45.36164872 22.49817583 -43.41623384 20.50482961 -40.625 18.0625 C-39.965 18.0625 -39.305 18.0625 -38.625 18.0625 C-38.40457031 17.47726563 -38.18414062 16.89203125 -37.95703125 16.2890625 C-36.20768368 13.36493313 -34.20480064 12.2143667 -31.3125 10.4375 C-30.36761719 9.84710938 -29.42273437 9.25671875 -28.44921875 8.6484375 C-25.625 7.0625 -25.625 7.0625 -22.83203125 5.9765625 C-20.45873652 5.27600364 -20.45873652 5.27600364 -19.625 3.0625 C-17.41015625 2.46484375 -17.41015625 2.46484375 -14.6875 2 C-2.99513662 -0.03564888 -2.99513662 -0.03564888 0 0 Z M-81.625 110.0625 C-81.625 113.0625 -81.625 113.0625 -81.625 113.0625 Z " fill="#4F5759" transform="translate(91.625,2.9375)"/>
<path d="M0 0 C10.66039092 -0.56704207 17.41612676 0.43137644 25.75 7.25 C33.12105568 16.25906806 38.88261667 26.65788613 44.25390625 36.94921875 C45.61087216 39.32011445 46.99795613 41.43980426 48.58984375 43.64453125 C55.29740213 53.17690075 55.29740213 53.17690075 54.51953125 57.9453125 C52.92029719 60.88653118 51.07124154 63.37068434 49 66 C47.64358152 68.15228974 46.31079179 70.31962226 45 72.5 C44.32195312 73.58925781 43.64390625 74.67851563 42.9453125 75.80078125 C40.64185363 79.58899975 38.53562596 83.46113473 36.43359375 87.36328125 C30.62336643 98.04966665 25.05700167 105.47149917 14 111 C9.33091139 111.13996069 4.67201378 111.04247285 0 111 C0 103.41 0 95.82 0 88 C2.31 88 4.62 88 7 88 C7 87.34 7 86.68 7 86 C8.36125 85.4121875 8.36125 85.4121875 9.75 84.8125 C15.37300908 81.67659109 17.68980072 76.90058995 20.6328125 71.3984375 C22.4506196 68.20948447 24.57734283 65.27996661 26.765625 62.3359375 C28.50150166 59.05095573 28.96477393 56.73396393 29 53 C27.79815632 50.07851649 26.10960207 47.58782698 24.3125 45 C23.41155362 43.64663594 22.51180254 42.29247534 21.61328125 40.9375 C21.17105225 40.28289795 20.72882324 39.6282959 20.27319336 38.95385742 C19.04254795 37.06529459 17.92842288 35.14679728 16.8359375 33.17578125 C14.64291579 29.38232029 12.65867812 27.41610819 9 25 C4.545 24.01 4.545 24.01 0 23 C0 15.41 0 7.82 0 0 Z " fill="#3696A6" transform="translate(100,44)"/>
<path d="M0 0 C3.77068832 -0.086985 7.54111932 -0.14038579 11.3125 -0.1875 C12.38435547 -0.21263672 13.45621094 -0.23777344 14.56054688 -0.26367188 C15.58857422 -0.27333984 16.61660156 -0.28300781 17.67578125 -0.29296875 C19.0975769 -0.31653442 19.0975769 -0.31653442 20.5480957 -0.34057617 C23.45429475 0.06310278 24.25086868 0.69595073 26 3 C27.01920533 4.99028151 28.01642648 6.99187074 29 9 C30.43932393 11.39410274 31.96698625 13.72756322 33.5 16.0625 C37.81361567 22.67528706 37.81361567 22.67528706 39.62109375 25.82421875 C41.7014498 29.10682022 44.61223423 30.30611711 48 32 C50.97 32.33 53.94 32.66 57 33 C57 40.59 57 48.18 57 56 C37.49216697 56.82660309 37.49216697 56.82660309 28.828125 49.05078125 C24.48310951 44.5015827 21.42389768 39.57202138 18.55078125 34.00390625 C16.84567441 30.70106705 15.03202315 27.47700599 13.1875 24.25 C12.85814453 23.67258057 12.52878906 23.09516113 12.18945312 22.50024414 C10.32935679 19.2561899 8.42893811 16.04030076 6.48828125 12.84375 C5.86626831 11.81846191 5.86626831 11.81846191 5.23168945 10.77246094 C4.42326072 9.44500333 3.61072435 8.12003682 2.79370117 6.79785156 C0 2.21793271 0 2.21793271 0 0 Z " fill="#297482" transform="translate(43,99)"/>
<path d="M0 0 C2.70860538 -0.09777052 5.36865034 -0.03863361 8.07617188 0.08349609 C9.48672852 0.11733398 9.48672852 0.11733398 10.92578125 0.15185547 C13.24834661 0.21080383 15.56770963 0.29301825 17.88867188 0.39599609 C19.10690353 4.43802624 19.03775495 6.07723063 17.22070312 9.96240234 C16.39701499 11.3044838 15.55593312 12.63598788 14.70117188 13.95849609 C13.77599173 15.45335199 12.85291364 16.94951035 11.93164062 18.44677734 C11.43841309 19.24035645 10.94518555 20.03393555 10.43701172 20.8515625 C7.14333586 26.26415944 4.09272499 31.82154289 1.0012207 37.35131836 C-2.62375068 43.75871343 -5.67691699 48.92573306 -12.23632812 52.64599609 C-13.10515625 53.14615234 -13.97398438 53.64630859 -14.86914062 54.16162109 C-20.76984481 57.41009239 -26.38960883 56.45710263 -33.11132812 56.39599609 C-33.11132812 48.80599609 -33.11132812 41.21599609 -33.11132812 33.39599609 C-30.80132812 33.39599609 -28.49132812 33.39599609 -26.11132812 33.39599609 C-26.11132812 32.73599609 -26.11132812 32.07599609 -26.11132812 31.39599609 C-25.20382813 31.00412109 -24.29632813 30.61224609 -23.36132812 30.20849609 C-17.73446589 27.07043831 -15.43609946 22.29372078 -12.47070312 16.80224609 C-10.6594545 13.59612784 -8.62138072 10.57282961 -6.54101562 7.53662109 C-4.99174269 5.38994209 -4.99174269 5.38994209 -4.06835938 2.64990234 C-2.11132812 0.39599609 -2.11132812 0.39599609 0 0 Z " fill="#3AA3B2" transform="translate(133.111328125,98.60400390625)"/>
<path d="M0 0 C1.21647217 -0.00287018 2.43294434 -0.00574036 3.6862793 -0.00869751 C6.25146959 -0.01073383 8.81667557 -0.00523431 11.38183594 0.00732422 C15.29918269 0.02338291 19.21549768 0.00745967 23.1328125 -0.01171875 C25.6302106 -0.00973624 28.12760806 -0.00589242 30.625 0 C31.79184326 -0.00607269 32.95868652 -0.01214539 34.16088867 -0.0184021 C43.74556386 0.06414257 49.63470026 2.05270827 56.8046875 8.58203125 C58.94230068 11.15713521 58.37816851 13.11501213 58.3125 16.3984375 C59.8512691 18.72257243 61.6082797 20.7912147 63.390625 22.93359375 C65.92962617 26.18991436 67.73709816 29.66357943 69.6484375 33.3125 C71.59072063 36.91438656 73.68727899 40.40250399 75.8125 43.8984375 C79.03875543 49.21594619 82.0891429 54.59457467 85.02734375 60.078125 C86.63384888 62.97862362 88.4071313 65.68695127 90.3125 68.3984375 C91.3025 67.4084375 92.2925 66.4184375 93.3125 65.3984375 C93.60382813 66.00171875 93.89515625 66.605 94.1953125 67.2265625 C96.91139546 72.52207015 99.04091201 75.5787509 104.3125 78.3984375 C103.19875 79.48125 103.19875 79.48125 102.0625 80.5859375 C98.45411627 84.27632995 95.39936138 88.27390238 92.3125 92.3984375 C91.93738281 91.80675781 91.56226563 91.21507813 91.17578125 90.60546875 C88.21813287 86.03862126 85.33570969 82.0666581 81.3125 78.3984375 C83.2925 76.9134375 83.2925 76.9134375 85.3125 75.3984375 C84.7474105 71.89557032 83.88809943 69.2639983 82.08984375 66.2109375 C81.63762451 65.43621094 81.18540527 64.66148438 80.71948242 63.86328125 C80.23455322 63.04988281 79.74962402 62.23648438 79.25 61.3984375 C78.75411377 60.55410156 78.25822754 59.70976563 77.74731445 58.83984375 C74.273728 52.94758285 70.70056567 47.12210771 67.078125 41.3203125 C65.35974018 38.47661373 63.79381716 35.58981546 62.25 32.6484375 C57.65319768 24.14682462 51.93977504 16.14986979 43.3125 11.3984375 C39.05561202 10.458804 34.95864162 10.48416036 30.61328125 10.57421875 C29.41946335 10.57463669 28.22564545 10.57505463 26.99565125 10.57548523 C24.48518959 10.5838302 21.97473282 10.60917829 19.46459961 10.65063477 C15.62582961 10.71092447 11.79034885 10.71219726 7.95117188 10.70507812 C5.50518397 10.72048184 3.05921443 10.73924655 0.61328125 10.76171875 C-1.10250374 10.76369011 -1.10250374 10.76369011 -2.85295105 10.76570129 C-9.15000331 10.89668954 -12.83653383 11.30322165 -17.6875 15.3984375 C-20.25 16.3359375 -20.25 16.3359375 -22.6875 16.3984375 C-25.5 14.9609375 -25.5 14.9609375 -27.6875 13.3984375 C-27.1190445 10.02414397 -26.17018097 8.52849437 -23.5625 6.3359375 C-23.00304688 5.84996094 -22.44359375 5.36398438 -21.8671875 4.86328125 C-14.69765371 0.04504618 -8.45988735 -0.04402845 0 0 Z " fill="#9FB2B8" transform="translate(82.6875,20.6015625)"/>
<path d="M0 0 C0.66 0 1.32 0 2 0 C2.47308594 1.05058594 2.94617188 2.10117188 3.43359375 3.18359375 C8.70536067 14.51823012 14.42150549 23.33392822 26 29 C26 29.66 26 30.32 26 31 C25.01 31.515625 24.02 32.03125 23 32.5625 C14.95629303 37.21938298 9.99989541 42.65858109 6 51 C5.2294145 52.52095892 4.45859686 54.04180026 3.6875 55.5625 C3.130625 56.696875 2.57375 57.83125 2 59 C1.34 59 0.68 59 0 59 C-1.31537364 56.56401192 -2.62739143 54.1263175 -3.9375 51.6875 C-4.49727539 50.65206055 -4.49727539 50.65206055 -5.06835938 49.59570312 C-5.42607422 48.92861328 -5.78378906 48.26152344 -6.15234375 47.57421875 C-6.48226318 46.96151123 -6.81218262 46.34880371 -7.15209961 45.7175293 C-8 44 -8 44 -9 41 C-9.66 41 -10.32 41 -11 41 C-11 40.34 -11 39.68 -11 39 C-11.56203125 38.73445313 -12.1240625 38.46890625 -12.703125 38.1953125 C-15.17930222 36.90668966 -17.43844882 35.43869639 -19.75 33.875 C-20.54921875 33.33617187 -21.3484375 32.79734375 -22.171875 32.2421875 C-22.77515625 31.83226563 -23.3784375 31.42234375 -24 31 C-22.80894344 27.42683033 -22.07887706 27.21779752 -18.9375 25.375 C-9.07414692 18.97164855 -4.38071285 10.73606521 0 0 Z " fill="#9C9E9D" transform="translate(99,70)"/>
<path d="M0 0 C0.91007812 0.00902344 1.82015625 0.01804687 2.7578125 0.02734375 C3.80582031 0.04474609 3.80582031 0.04474609 4.875 0.0625 C4.04069733 10.63033384 -2.6310308 19.06564318 -10.125 26.0625 C-12.23034491 27.57339458 -14.31518192 28.89529659 -16.59375 30.125 C-18.30901414 30.9894457 -18.30901414 30.9894457 -19.125 33.0625 C-18.465 33.26875 -17.805 33.475 -17.125 33.6875 C-13.05319814 35.55374252 -9.43703002 38.03811527 -6.125 41.0625 C-6.125 41.7225 -6.125 42.3825 -6.125 43.0625 C-5.465 43.0625 -4.805 43.0625 -4.125 43.0625 C-2.82356454 45.24467434 -1.53392573 47.43255242 -0.25 49.625 C0.11480469 50.23408203 0.47960937 50.84316406 0.85546875 51.47070312 C3.25709991 55.59714212 4.74025074 59.42197277 5.875 64.0625 C0.07812609 64.41031243 -4.09380169 64.33862914 -9.125 61.0625 C-12.2282366 58.27629347 -14.10821368 55.5784122 -16 51.875 C-18.3628377 47.3892066 -20.93504084 43.19590901 -23.828125 39.03515625 C-25.89867335 35.88567759 -27.125 33.8878945 -27.125 30.0625 C-26.465 30.0625 -25.805 30.0625 -25.125 30.0625 C-25.01542969 29.33417969 -24.90585938 28.60585937 -24.79296875 27.85546875 C-24.08368989 24.8897706 -23.05680504 22.9463374 -21.4375 20.375 C-19.7738424 17.71235183 -18.12398386 15.06071537 -16.5703125 12.33203125 C-12.453124 5.11095193 -8.81292632 -0.11298623 0 0 Z " fill="#274B51" transform="translate(94.125,67.9375)"/>
<path d="M0 0 C1.02104551 0.97850195 2.0206121 1.97980427 3 3 C6.3029325 5.201955 7.34228725 5.25906627 11.18652344 5.29052734 C12.77397369 5.3096669 12.77397369 5.3096669 14.39349365 5.32919312 C15.5372345 5.33141876 16.68097534 5.33364441 17.859375 5.3359375 C19.6259848 5.3459227 19.6259848 5.3459227 21.42828369 5.35610962 C23.92320187 5.36624384 26.4181472 5.3709264 28.91308594 5.37060547 C32.72116167 5.37496697 36.5280678 5.41124854 40.3359375 5.44921875 C42.76041271 5.4550891 45.18489342 5.45905703 47.609375 5.4609375 C49.31284088 5.48249405 49.31284088 5.48249405 51.05072021 5.50448608 C57.5734436 5.46700763 61.72708533 4.96438225 67 1 C67.33 0.34 67.66 -0.32 68 -1 C71.66881155 -0.29445932 74.70450534 1.27735506 78 3 C78 3.66 78 4.32 78 5 C77.34 5 76.68 5 76 5 C75.74863281 5.60585937 75.49726563 6.21171875 75.23828125 6.8359375 C73.81959254 9.31528622 72.62474427 10.18036191 70.1875 11.625 C69.18783203 12.23214844 69.18783203 12.23214844 68.16796875 12.8515625 C63.88521784 15.12026298 60.41252075 16.25102286 55.54223633 16.30639648 C53.93950615 16.33037758 53.93950615 16.33037758 52.30439758 16.35484314 C50.58557625 16.36288719 50.58557625 16.36288719 48.83203125 16.37109375 C47.04704475 16.38463646 47.04704475 16.38463646 45.22599792 16.39845276 C42.70855217 16.41295062 40.19106877 16.42184083 37.67358398 16.42553711 C33.84358226 16.4374037 30.01520736 16.48657314 26.18554688 16.53710938 C23.73438282 16.54657758 21.28320892 16.55381071 18.83203125 16.55859375 C17.69627151 16.57812607 16.56051178 16.59765839 15.39033508 16.61778259 C6.20766581 16.56630932 -0.8992768 14.21323604 -7.625 7.8125 C-10 5 -10 5 -10 3 C-3.375 -1.125 -3.375 -1.125 0 0 Z " fill="#9EB1B6" transform="translate(65,163)"/>
<path d="M0 0 C2.37570543 -0.0816082 4.74855841 -0.14077222 7.125 -0.1875 C7.79015625 -0.21263672 8.4553125 -0.23777344 9.140625 -0.26367188 C14.79997013 -0.34689754 18.63528243 0.94540932 22.90625 4.65625 C26.86468731 9.23561865 29.81452622 13.94263337 32.57421875 19.328125 C33.88483009 21.78417475 35.33839558 23.97689289 36.9375 26.25 C38.67863433 29.03694553 39.00026152 30.00479455 39.1875 33.4375 C37.8732152 37.38035441 36.08076233 40.17992033 33.671875 43.53515625 C31.8896858 46.16263611 30.492381 48.85464435 29.0625 51.6875 C26.53565597 56.42200775 23.72708907 60.28736051 19 63 C18.01 63 17.02 63 16 63 C16 63.66 16 64.32 16 65 C13.69 65 11.38 65 9 65 C8.67 64.01 8.34 63.02 8 62 C8.66 62 9.32 62 10 62 C10.103125 61.29488281 10.20625 60.58976562 10.3125 59.86328125 C12.63150905 50.20513561 19.32849965 42.88479232 27 37 C27.68707031 36.43410156 28.37414062 35.86820313 29.08203125 35.28515625 C31 34 31 34 34 34 C34 33.34 34 32.68 34 32 C33.34 31.814375 32.68 31.62875 32 31.4375 C21.75595212 26.52889372 14.09543459 16.36543623 10 6 C10 5.01 10 4.02 10 3 C9.34 3 8.68 3 8 3 C8 2.34 8 1.68 8 1 C5.36 1 2.72 1 0 1 C0 0.67 0 0.34 0 0 Z " fill="#376970" transform="translate(91,67)"/>
<path d="M0 0 C2.68125 0.061875 5.3625 0.12375 8.125 0.1875 C8.125 7.7775 8.125 15.3675 8.125 23.1875 C5.155 23.5175 2.185 23.8475 -0.875 24.1875 C-3.33626902 25.19643585 -3.33626902 25.19643585 -5.1875 26.625 C-7.68652599 28.38008115 -10.11182715 29.87606035 -12.875 31.1875 C-14.31458847 29.60606529 -15.75158645 28.02227221 -17.1875 26.4375 C-18.38826172 25.11492187 -18.38826172 25.11492187 -19.61328125 23.765625 C-24.81614556 17.83489884 -24.81614556 17.83489884 -25.125 14.4375 C-22.81678919 8.43615188 -17.45139346 4.80736616 -12.12890625 1.4609375 C-7.94183501 -0.17770023 -4.43934468 -0.1455734 0 0 Z " fill="#2F8796" transform="translate(91.875,43.8125)"/>
<path d="M0 0 C2.15825637 0.96749423 3.7900609 1.78093311 5.4375 3.5 C9.82683408 7.71376072 15.01572204 7.33508023 21 8 C21 15.59 21 23.18 21 31 C9.83399658 31.47313574 1.96433408 31.8059102 -6.97265625 24.35546875 C-9.80017124 21.50219053 -10.9056487 19.71437415 -11.4375 15.6875 C-9.55733746 10.86447436 -6.60390887 7.82808938 -3.03125 4.13671875 C-0.96296896 2.1693781 -0.96296896 2.1693781 0 0 Z " fill="#2D7E8C" transform="translate(79,124)"/>
<path d="M0 0 C9.87032092 -0.52501707 16.85972927 0.00837114 24.69140625 6.375 C26.50130539 8.10755302 27.87714636 9.75429273 29 12 C28.45730469 12.80824219 27.91460937 13.61648437 27.35546875 14.44921875 C26.64003906 15.51785156 25.92460938 16.58648437 25.1875 17.6875 C24.47980469 18.74324219 23.77210937 19.79898438 23.04296875 20.88671875 C21.29133435 23.55603542 19.61824006 26.24848142 18 29 C14.82965301 28.01870212 11.94902323 26.9734496 9 25.4375 C5.63263764 23.65306811 5.63263764 23.65306811 0 23 C0 15.41 0 7.82 0 0 Z " fill="#52D3DD" transform="translate(100,44)"/>
<path d="M0 0 C1.37535339 1.97133986 2.70211044 3.97681922 4 6 C4.61875 6.721875 5.2375 7.44375 5.875 8.1875 C8.40749621 11.53933322 10.2590971 15.07025329 12.23046875 18.7734375 C14.22536116 22.41092344 16.34705805 25.95469062 18.5 29.5 C21.7259783 34.81768703 24.77663292 40.19611854 27.71484375 45.6796875 C29.32134888 48.58018612 31.0946313 51.28851377 33 54 C33.99 53.01 34.98 52.02 36 51 C36.29132813 51.60328125 36.58265625 52.2065625 36.8828125 52.828125 C39.59889546 58.12363265 41.72841201 61.1803134 47 64 C45.88625 65.0828125 45.88625 65.0828125 44.75 66.1875 C41.14161627 69.87789245 38.08686138 73.87546488 35 78 C34.43732422 77.11248047 34.43732422 77.11248047 33.86328125 76.20703125 C30.90563287 71.64018376 28.02320969 67.6682206 24 64 C25.32 63.01 26.64 62.02 28 61 C27.4349105 57.49713282 26.57559943 54.8655608 24.77734375 51.8125 C24.32512451 51.03777344 23.87290527 50.26304688 23.40698242 49.46484375 C22.92205322 48.65144531 22.43712402 47.83804688 21.9375 47 C21.44161377 46.15566406 20.94572754 45.31132813 20.43481445 44.44140625 C16.961228 38.54914535 13.38806567 32.72367021 9.765625 26.921875 C8.04724018 24.07817623 6.48131716 21.19137796 4.9375 18.25 C1.73101952 12.24992831 -2.18350178 6.81649822 -7 2 C-2.25 0 -2.25 0 0 0 Z " fill="#448891" transform="translate(140,35)"/>
<path d="M0 0 C2.64 0.99 5.28 1.98 8 3 C7.154375 3.928125 6.30875 4.85625 5.4375 5.8125 C-1.79471786 14.27098175 -7.01707434 24.36813885 -12.5 34 C-13.75790585 36.2097645 -15.01830367 38.41811241 -16.28125 40.625 C-17.19390625 42.22021484 -17.19390625 42.22021484 -18.125 43.84765625 C-20.53283544 47.89582958 -23.14899001 51.78844377 -25.83007812 55.66015625 C-27.19295222 57.88909511 -27.19295222 57.88909511 -26.84570312 60.16796875 C-25.57096539 62.92940985 -23.42780202 64.25696265 -21 66 C-21.81404297 66.65355469 -21.81404297 66.65355469 -22.64453125 67.3203125 C-26.90159075 70.8640269 -29.93629515 73.71175632 -32 79 C-32.8353125 77.948125 -32.8353125 77.948125 -33.6875 76.875 C-38.61081691 70.73117614 -38.61081691 70.73117614 -44 65 C-43.54109375 64.64808594 -43.0821875 64.29617187 -42.609375 63.93359375 C-38.16127195 60.35455285 -35.55263762 57.10527523 -33 52 C-31.68 52.33 -30.36 52.66 -29 53 C-28.74992187 52.14535156 -28.49984375 51.29070312 -28.2421875 50.41015625 C-26.92127842 46.78388698 -25.16267621 43.68701008 -23.125 40.4375 C-18.65346458 33.16519469 -14.42124888 25.77058433 -10.25048828 18.32202148 C-8.05963432 14.44552728 -5.85711581 10.70427025 -3.203125 7.125 C-0.75860026 4.05658738 -0.75860026 4.05658738 0 0 Z " fill="#3C6F76" transform="translate(56,34)"/>
<path d="M0 0 C2.35527012 3.14036016 3.9190701 5.73074731 5.625 9.1875 C10.15559317 17.59664068 16.42499159 23.80371929 25 28 C25 28.66 25 29.32 25 30 C24.01 30.515625 23.02 31.03125 22 31.5625 C13.911148 36.24551958 9.10788495 41.68189844 5 50 C4.23904374 51.35974151 3.46906757 52.71450018 2.6875 54.0625 C1.8521875 55.5165625 1.8521875 55.5165625 1 57 C0.67 57 0.34 57 0 57 C0 38.19 0 19.38 0 0 Z " fill="#F8FAFA" transform="translate(100,71)"/>
<path d="M0 0 C3.66881155 0.70554068 6.70450534 2.27735506 10 4 C10 4.66 10 5.32 10 6 C9.34 6 8.68 6 8 6 C7.62488281 6.90685547 7.62488281 6.90685547 7.2421875 7.83203125 C5.81214229 10.32786487 4.57480307 11.22224043 2.125 12.6875 C1.44695312 13.10386719 0.76890625 13.52023438 0.0703125 13.94921875 C-4.10091816 16.06631507 -7.87155 16.11876568 -12.515625 16.09765625 C-13.76601562 16.09443359 -15.01640625 16.09121094 -16.3046875 16.08789062 C-18.25761719 16.07532227 -18.25761719 16.07532227 -20.25 16.0625 C-22.22613281 16.05573242 -22.22613281 16.05573242 -24.2421875 16.04882812 C-27.49483741 16.03704316 -30.74739584 16.02059011 -34 16 C-34 13.03 -34 10.06 -34 7 C-32.87356079 6.98598145 -32.87356079 6.98598145 -31.72436523 6.97167969 C-28.29476356 6.91772436 -24.86648892 6.83412453 -21.4375 6.75 C-20.25607422 6.73582031 -19.07464844 6.72164062 -17.85742188 6.70703125 C-11.10039833 6.51775888 -6.44556606 6.15644354 -1 2 C-0.67 1.34 -0.34 0.68 0 0 Z " fill="#BBD4D2" transform="translate(133,162)"/>
<path d="M0 0 C4.10719496 -0.1747334 8.21291508 -0.30083742 12.32299805 -0.38452148 C13.7169366 -0.4194464 15.11062401 -0.46700833 16.50366211 -0.52807617 C29.54129492 -1.08476017 29.54129492 -1.08476017 35.34765625 3.40234375 C36.60100612 4.56398876 37.82631853 5.75791432 39 7 C39.66 7.66 40.32 8.32 41 9 C40.875 11 40.875 11 40 13 C37.92770148 14.50062996 36.68853728 15.04590249 34.125 14.875 C32 14 32 14 29.703125 11.9921875 C24.70257301 8.61228349 18.43254642 9.31921236 12.625 9.25 C11.41199219 9.22035156 10.19898437 9.19070312 8.94921875 9.16015625 C5.96607979 9.0896884 2.98371205 9.0368752 0 9 C0 6.03 0 3.06 0 0 Z " fill="#CAE4EA" transform="translate(100,22)"/>
<path d="M0 0 C3.24064704 2.13497939 4.7303569 3.92873448 6.32421875 7.44921875 C9.1670384 13.43553046 12.45164935 19.10443199 15.8125 24.8125 C16.4297998 25.86405273 17.04709961 26.91560547 17.68310547 27.99902344 C19.45019154 31.00246667 21.22349737 34.00211905 23 37 C23.67409912 38.14057861 23.67409912 38.14057861 24.36181641 39.30419922 C25.44154713 41.12444341 26.52999491 42.93891529 27.625 44.75 C28.19476563 45.69359375 28.76453125 46.6371875 29.3515625 47.609375 C30.9434519 50.08560073 30.9434519 50.08560073 33.2109375 52.140625 C35 54 35 54 35 57 C33.02 57.99 31.04 58.98 29 60 C28.814375 59.21625 28.62875 58.4325 28.4375 57.625 C27.17957813 54.4528492 26.05341283 52.56130344 24.0625 49.875 C19.91317641 44.15031081 16.63541838 38.0437036 13.28198242 31.83544922 C9.7150919 25.24673765 5.9807736 18.7801742 2.0847168 12.38061523 C-1.57236541 6.29400815 -1.57236541 6.29400815 -2 3 C-1.34 2.01 -0.68 1.02 0 0 Z " fill="#3B7077" transform="translate(27,106)"/>
<path d="M0 0 C0.99 0 1.98 0 3 0 C4 3 4 3 3.26245117 4.90673828 C2.65880737 5.97770752 2.65880737 5.97770752 2.04296875 7.0703125 C1.5946167 7.8761377 1.14626465 8.68196289 0.68432617 9.51220703 C0.19037354 10.37442871 -0.3035791 11.23665039 -0.8125 12.125 C-1.31225342 13.01429199 -1.81200684 13.90358398 -2.3269043 14.81982422 C-6.75951365 22.67283376 -11.30561015 30.46023371 -15.92919922 38.20214844 C-16.89921138 39.83077807 -17.85844394 41.4658161 -18.81640625 43.1015625 C-20.8429519 46.54516639 -22.80441415 49.75683922 -25.3125 52.875 C-26.9923724 54.99039487 -27.60839068 56.35663709 -28 59 C-29.65 58.34 -31.3 57.68 -33 57 C-33 53.34789631 -32.15327812 52.54310393 -29.9921875 49.66796875 C-25.94620475 44.05668499 -22.52577425 38.15713411 -19.14602661 32.13223267 C-17.41130249 29.04050703 -15.65976337 25.95831962 -13.91015625 22.875 C-13.57050339 22.27549026 -13.23085052 21.67598053 -12.88090515 21.05830383 C-2.15887146 2.15887146 -2.15887146 2.15887146 0 0 Z " fill="#44878F" transform="translate(169,106)"/>
<path d="M0 0 C0.66 0.33 1.32 0.66 2 1 C1.67 10.57 1.34 20.14 1 30 C-6.26 30 -13.52 30 -21 30 C-21 29.01 -21 28.02 -21 27 C-19.49609375 25.67578125 -19.49609375 25.67578125 -17.4375 24.3125 C-8.42793281 17.79764542 -4.24090395 10.19059704 0 0 Z " fill="#B9BBBA" transform="translate(99,70)"/>
<path d="M0 0 C0.33 0.66 0.66 1.32 1 2 C0.01 2.515625 -0.98 3.03125 -2 3.5625 C-10.088852 8.24551958 -14.89211505 13.68189844 -19 22 C-19.76095626 23.35974151 -20.53093243 24.71450018 -21.3125 26.0625 C-22.1478125 27.5165625 -22.1478125 27.5165625 -23 29 C-23.33 29 -23.66 29 -24 29 C-24 19.76 -24 10.52 -24 1 C-16.08 0.67 -8.16 0.34 0 0 Z " fill="#D2D4D3" transform="translate(124,99)"/>
<path d="M0 0 C1.75364045 2.27973259 3.34832231 4.5573157 4.875 7 C6.98587496 9.98005877 9.05590578 11.87370973 12 14 C11.45730469 14.43570313 10.91460937 14.87140625 10.35546875 15.3203125 C6.09840925 18.8640269 3.06370485 21.71175632 1 27 C-1.02754039 25.17521365 -2.37028096 23.43223586 -3.875 21.125 C-5.98764865 18.01816376 -8.27529462 15.57333286 -11 13 C-10.54109375 12.64808594 -10.0821875 12.29617187 -9.609375 11.93359375 C-5.16127195 8.35455285 -2.55263762 5.10527523 0 0 Z " fill="#BABBBB" transform="translate(175,86)"/>
<path d="M0 0 C1.75364045 2.27973259 3.34832231 4.5573157 4.875 7 C6.98587496 9.98005877 9.05590578 11.87370973 12 14 C11.45730469 14.43570313 10.91460937 14.87140625 10.35546875 15.3203125 C6.09840925 18.8640269 3.06370485 21.71175632 1 27 C0.443125 26.29875 -0.11375 25.5975 -0.6875 24.875 C-5.61081691 18.73117614 -5.61081691 18.73117614 -11 13 C-10.54109375 12.64808594 -10.0821875 12.29617187 -9.609375 11.93359375 C-5.16127195 8.35455285 -2.55263762 5.10527523 0 0 Z " fill="#CECFCF" transform="translate(23,86)"/>
<path d="M0 0 C0.33 0.66 0.66 1.32 1 2 C-0.328125 4.42578125 -0.328125 4.42578125 -2.25 7.3125 C-3.501267 9.20749734 -4.75128624 11.10331922 -6 13 C-6.59296875 13.85980469 -7.1859375 14.71960938 -7.796875 15.60546875 C-9.20460906 17.83859264 -9.20460906 17.83859264 -8.73168945 19.86547852 C-7.89840809 22.29636907 -6.79855985 24.33118554 -5.49609375 26.546875 C-5.00302734 27.39121094 -4.50996094 28.23554687 -4.00195312 29.10546875 C-3.48568359 29.97816406 -2.96941406 30.85085937 -2.4375 31.75 C-1.91736328 32.63816406 -1.39722656 33.52632812 -0.86132812 34.44140625 C0.42137705 36.6302426 1.70861056 38.81627981 3 41 C2.01 41.495 2.01 41.495 1 42 C-0.17539996 41.07347299 -1.34010577 40.13336613 -2.5 39.1875 C-3.1496875 38.66542969 -3.799375 38.14335938 -4.46875 37.60546875 C-6 36 -6 36 -6 33 C-7.9837136 31.97136746 -7.9837136 31.97136746 -10.0625 31.1875 C-12 30 -12 30 -12.75 27.875 C-12.8325 27.25625 -12.915 26.6375 -13 26 C-12.34 26 -11.68 26 -11 26 C-11.66 25.67 -12.32 25.34 -13 25 C-14.32111976 19.95572455 -14.37234901 14.74469801 -12 10 C-11.34 10 -10.68 10 -10 10 C-9.34 8.68 -8.68 7.36 -8 6 C-7.34 6 -6.68 6 -6 6 C-6 5.34 -6 4.68 -6 4 C-4.04783565 2.04783565 -2.46800047 1.15173355 0 0 Z M-4 33 C-4 36 -4 36 -4 36 Z " fill="#000000" transform="translate(14,80)"/>
<path d="M0 0 C4.29 0 8.58 0 13 0 C11.68 0.33 10.36 0.66 9 1 C8.86722656 2.08539063 8.73445313 3.17078125 8.59765625 4.2890625 C8.41933746 5.73438322 8.24094831 7.17969526 8.0625 8.625 C7.97548828 9.33785156 7.88847656 10.05070312 7.79882812 10.78515625 C7.29217395 14.87591961 6.7110957 18.93842635 6 23 C4.02 23 2.04 23 0 23 C0 15.41 0 7.82 0 0 Z " fill="#40B0BF" transform="translate(100,44)"/>
<path d="M0 0 C0.66 0 1.32 0 2 0 C5 3.46153846 5 3.46153846 5 6 C6.32 6.33 7.64 6.66 9 7 C9.84023188 11.35332736 10.10770995 15.44442519 10.0625 19.875 C10.05347656 21.02742188 10.04445312 22.17984375 10.03515625 23.3671875 C10.02355469 24.23601562 10.01195312 25.10484375 10 26 C8.35 26.33 6.7 26.66 5 27 C4.67 27.99 4.34 28.98 4 30 C3.01 30 2.02 30 1 30 C2.01133273 26.46033545 3.06016303 23.91405282 5.1875 20.875 C7.21063341 18.30986263 7.21063341 18.30986263 6.83984375 16.203125 C5.26261729 12.06565652 2.72005683 8.43281914 0.3984375 4.6796875 C-0.06304687 3.79539062 -0.52453125 2.91109375 -1 2 C-0.67 1.34 -0.34 0.68 0 0 Z " fill="#000000" transform="translate(188,83)"/>
<path d="M0 0 C0.33 0 0.66 0 1 0 C1 7.92 1 15.84 1 24 C-1.94347418 21.05652582 -4.43114559 18.23178458 -7 15 C-7.99040833 13.99049946 -8.98860511 12.98847376 -10 12 C-9.52949219 11.63648437 -9.05898437 11.27296875 -8.57421875 10.8984375 C-4.52807056 7.63136132 -1.99716574 4.93417419 0 0 Z " fill="#B5B6B6" transform="translate(22,87)"/>
<path d="M0 0 C0.66 0 1.32 0 2 0 C2.66 1.98 3.32 3.96 4 6 C3.31292969 6.74765625 2.62585938 7.4953125 1.91796875 8.265625 C1.0077189 9.26033102 0.09756787 10.25512748 -0.8125 11.25 C-1.26431641 11.74113281 -1.71613281 12.23226562 -2.18164062 12.73828125 C-4.13836284 14.88067783 -6.00236328 17.00328142 -7.69921875 19.359375 C-8.12847656 19.90078125 -8.55773437 20.4421875 -9 21 C-9.66 21 -10.32 21 -11 21 C-12.625 18.5 -12.625 18.5 -14 16 C-12.68 16.33 -11.36 16.66 -10 17 C-9.7525 16.30519531 -9.505 15.61039063 -9.25 14.89453125 C-7.80988144 11.55975671 -6.00924962 8.71245485 -4 5.6875 C-3.29875 4.61886719 -2.5975 3.55023438 -1.875 2.44921875 C-1.25625 1.64097656 -0.6375 0.83273438 0 0 Z " fill="#42B1C1" transform="translate(128,56)"/>
<path d="M0 0 C-0.48359115 4.19112331 -2.66969251 5.7521592 -5.8125 8.375 C-10.04035752 11.99755328 -10.04035752 11.99755328 -13.3125 16.4375 C-15.25791218 19.39164442 -16.64351951 20.06764431 -20 21 C-19.59342464 14.49479431 -15.08254224 9.89821785 -10.484375 5.70703125 C-3.57533186 0 -3.57533186 0 0 0 Z " fill="#3A6267" transform="translate(125,101)"/>
<path d="M0 0 C4.45042822 4.03320058 7.7670637 8.68042079 11.23046875 13.57421875 C12.92395273 16.02698289 12.92395273 16.02698289 15 18 C13.02 18.99 13.02 18.99 11 20 C9.56041153 18.41856529 8.12341355 16.83477221 6.6875 15.25 C5.88699219 14.36828125 5.08648437 13.4865625 4.26171875 12.578125 C0.32173913 8.08695652 0.32173913 8.08695652 -1 6 C-0.6875 2.75 -0.6875 2.75 0 0 Z " fill="#2D7D8B" transform="translate(68,55)"/>
<path d="M0 0 C3.66666667 3.66666667 7.33333333 7.33333333 11 11 C7.37 11 3.74 11 0 11 C0 7.37 0 3.74 0 0 Z " fill="#F5F6F6" transform="translate(24,89)"/>
<path d="M0 0 C0.66 0 1.32 0 2 0 C2.598125 0.9075 3.19625 1.815 3.8125 2.75 C5.94224941 5.91419912 7.93373561 7.78547572 11 10 C7.37 10 3.74 10 0 10 C0 6.7 0 3.4 0 0 Z " fill="#F7F8F7" transform="translate(176,90)"/>
<path d="M0 0 C3.3 0 6.6 0 10 0 C10 3.96 10 7.92 10 12 C9.01 10.68 8.02 9.36 7 8 C4.76834039 5.23194742 2.51646079 2.51646079 0 0 Z " fill="#9D9E9D" transform="translate(165,100)"/>
<path d="M0 0 C3.3 0 6.6 0 10 0 C10 3.63 10 7.26 10 11 C7.06806077 8.17277289 4.52219757 5.19478359 2 2 C1.34 1.34 0.68 0.68 0 0 Z " fill="#9B9B9B" transform="translate(13,100)"/>
<path d="M0 0 C3.3 0 6.6 0 10 0 C6.66666667 3.33333333 3.33333333 6.66666667 0 10 C0 6.7 0 3.4 0 0 Z " fill="#D1D1D1" transform="translate(176,100)"/>
<path d="M0 0 C1.32 1.65 2.64 3.3 4 5 C2.515 7.475 2.515 7.475 1 10 C-1.25245881 7.31158141 -2.88213958 5.35358125 -4 2 C-2.68 1.34 -1.36 0.68 0 0 Z " fill="#3A7780" transform="translate(169,85)"/>
<path d="M0 0 C0.99 0 1.98 0 3 0 C4 3 4 3 2.5625 6.1875 C1.7890625 7.5796875 1.7890625 7.5796875 1 9 C0.67 8.01 0.34 7.02 0 6 C-0.99 6 -1.98 6 -3 6 C-1.125 1.125 -1.125 1.125 0 0 Z " fill="#3B747B" transform="translate(169,106)"/>
<path d="M0 0 C1.32 0.99 2.64 1.98 4 3 C2.74458443 5.51083114 1.49936512 5.87125446 -1 7 C-1.625 5.1875 -1.625 5.1875 -2 3 C-1.34 2.01 -0.68 1.02 0 0 Z " fill="#3B6064" transform="translate(27,106)"/>
<path d="M0 0 C0.66 0.66 1.32 1.32 2 2 C0.02 3.32 -1.96 4.64 -4 6 C-4 5.01 -4 4.02 -4 3 C-2 1.3125 -2 1.3125 0 0 Z " fill="#305C62" transform="translate(110,116)"/>
<path d="M0 0 C0.66 0.99 1.32 1.98 2 3 C0.68 4.32 -0.64 5.64 -2 7 C-2.33 5.68 -2.66 4.36 -3 3 C-2.01 2.67 -1.02 2.34 0 2 C0 1.34 0 0.68 0 0 Z " fill="#396C73" transform="translate(171,88)"/>
<path d="M0 0 C0.99 0.33 1.98 0.66 3 1 C2.01 1.33 1.02 1.66 0 2 C0 1.34 0 0.68 0 0 Z " fill="#000000" transform="translate(11,78)"/>
<path d="M0 0 C0.99 0.33 1.98 0.66 3 1 C2.01 1 1.02 1 0 1 C0 0.67 0 0.34 0 0 Z " fill="#000000" transform="translate(13,122)"/>
<path d="M0 0 C2 1 2 1 2 1 Z " fill="#000000" transform="translate(4,111)"/>
<path d="" fill="#000000" transform="translate(0,0)"/>
<path d="" fill="#000000" transform="translate(0,0)"/>
<path d="" fill="#000000" transform="translate(0,0)"/>
</svg>
