<?xml version="1.0" encoding="UTF-8"?>
<svg version="1.1" xmlns="http://www.w3.org/2000/svg" width="200" height="200">
<path d="M0 0 C2.49755275 1.17072785 4.75825555 2.31846234 7 3.9375 C7 4.9275 7 5.9175 7 6.9375 C7.99 7.2675 8.98 7.5975 10 7.9375 C10 8.5975 10 9.2575 10 9.9375 C10.66 9.9375 11.32 9.9375 12 9.9375 C12.5878125 10.989375 12.5878125 10.989375 13.1875 12.0625 C15.24859472 15.33182266 17.56156609 17.24150321 20.57421875 19.60546875 C21.04472656 20.04503906 21.51523438 20.48460938 22 20.9375 C22 21.5975 22 22.2575 22 22.9375 C23.485 23.4325 23.485 23.4325 25 23.9375 C27.1875 25.875 27.1875 25.875 29 27.9375 C29 28.5975 29 29.2575 29 29.9375 C30.175625 30.2778125 30.175625 30.2778125 31.375 30.625 C34.66874075 32.27187038 34.79513255 33.58108353 36 36.9375 C37.485 37.4325 37.485 37.4325 39 37.9375 C40.02019573 38.9168879 41.02149805 39.91645449 42 40.9375 C42.66 41.2675 43.32 41.5975 44 41.9375 C44 42.9275 44 43.9175 44 44.9375 C44.66 44.9375 45.32 44.9375 46 44.9375 C48.125 46.8125 48.125 46.8125 50 48.9375 C50 49.5975 50 50.2575 50 50.9375 C50.99 50.9375 51.98 50.9375 53 50.9375 C53 51.9275 53 52.9175 53 53.9375 C53.99 53.9375 54.98 53.9375 56 53.9375 C56.226875 54.55625 56.45375 55.175 56.6875 55.8125 C58.37929835 58.55160209 59.99244161 58.98774472 63 59.9375 C63 60.9275 63 61.9175 63 62.9375 C63.99 62.9375 64.98 62.9375 66 62.9375 C66 64.2575 66 65.5775 66 66.9375 C66.99 66.9375 67.98 66.9375 69 66.9375 C69.66 68.2575 70.32 69.5775 71 70.9375 C71.99 70.9375 72.98 70.9375 74 70.9375 C74.66 71.2675 75.32 71.5975 76 71.9375 C75.67 73.2575 75.34 74.5775 75 75.9375 C75.66 76.2675 76.32 76.5975 77 76.9375 C78.65177773 78.58927773 79.17252291 80.78605958 80 82.9375 C81.32 82.6075 82.64 82.2775 84 81.9375 C84.66 83.5875 85.32 85.2375 86 86.9375 C85.67 87.2675 85.34 87.5975 85 87.9375 C85.66 88.2675 86.32 88.5975 87 88.9375 C86.91621094 89.54078125 86.83242187 90.1440625 86.74609375 90.765625 C86.59333984 91.96445313 86.59333984 91.96445313 86.4375 93.1875 C86.33308594 93.97640625 86.22867188 94.7653125 86.12109375 95.578125 C85.99972651 97.94282874 86.30366743 99.6886037 87 101.9375 C86.01 101.9375 85.02 101.9375 84 101.9375 C84.33 102.5975 84.66 103.2575 85 103.9375 C84.67 104.5975 84.34 105.2575 84 105.9375 C83.01 105.9375 82.02 105.9375 81 105.9375 C80.67 106.5975 80.34 107.2575 80 107.9375 C79.34 107.9375 78.68 107.9375 78 107.9375 C77.87625 108.865625 77.7525 109.79375 77.625 110.75 C77 113.9375 77 113.9375 75 116.9375 C74.01 117.2675 73.02 117.5975 72 117.9375 C70.28547658 119.62903744 70.28547658 119.62903744 68.625 121.6875 C65.8777388 124.92903831 63.00552509 127.93197491 60 130.9375 C58.8907371 132.22479275 57.78703355 133.5168871 56.6875 134.8125 C53.6395733 138.34623161 50.33464703 141.33410223 46.78125 144.34765625 C44.55264908 146.33678032 42.80931437 148.56667428 41 150.9375 C39.3545622 152.62512851 37.68711423 154.2915349 36 155.9375 C35.175 156.7625 34.35 157.5875 33.5 158.4375 C31.78096593 160.15653407 30.02859843 161.84266965 28.25 163.5 C25.86952572 165.67333714 25.86952572 165.67333714 25.5 168.125 C25.335 168.723125 25.17 169.32125 25 169.9375 C24.26499268 170.21062012 23.52998535 170.48374023 22.77270508 170.76513672 C19.45095933 172.16964698 17.65765508 173.93808386 15.13671875 176.5078125 C13.80737305 177.85166016 13.80737305 177.85166016 12.45117188 179.22265625 C11.53916016 180.15980469 10.62714844 181.09695312 9.6875 182.0625 C8.74744428 183.01761605 7.80669569 183.97205067 6.86523438 184.92578125 C4.56991933 187.25640883 2.28190354 189.59375196 0 191.9375 C-4.64426831 189.77810301 -6.57641401 188.45418298 -9 183.9375 C-11.38240349 181.25729608 -12.56612823 180.08212392 -16 178.9375 C-17.03789581 177.29416496 -18.03567924 175.62506133 -19 173.9375 C-21.06467856 171.52870835 -21.88994659 170.97418447 -25 169.9375 C-25 168.9475 -25 167.9575 -25 166.9375 C-25.99 166.9375 -26.98 166.9375 -28 166.9375 C-29.05771739 165.30685236 -30.05273046 163.63469127 -31 161.9375 C-33.06650528 159.5116025 -35.09841136 158.23821215 -38 156.9375 C-38 155.9475 -38 154.9575 -38 153.9375 C-38.99 153.9375 -39.98 153.9375 -41 153.9375 C-41.20560547 153.24076172 -41.41121094 152.54402344 -41.62304688 151.82617188 C-43.41525221 148.06635387 -46.06446982 145.55685658 -49.03125 142.71875 C-49.91882996 141.84820984 -49.91882996 141.84820984 -50.82434082 140.96008301 C-52.70915341 139.11180598 -54.6032787 137.27354933 -56.5 135.4375 C-58.99828194 133.01913264 -61.48639374 130.59094989 -63.96875 128.15625 C-64.54274536 127.60714966 -65.11674072 127.05804932 -65.70812988 126.49230957 C-68.73830052 123.51837597 -70.78921963 121.04048929 -72 116.9375 C-72.99 116.9375 -73.98 116.9375 -75 116.9375 C-75 115.9475 -75 114.9575 -75 113.9375 C-75.99 113.9375 -76.98 113.9375 -78 113.9375 C-78.433125 112.7928125 -78.433125 112.7928125 -78.875 111.625 C-79.96269013 108.78720692 -79.96269013 108.78720692 -82 105.9375 C-81.505 105.4425 -81.505 105.4425 -81 104.9375 C-81.66 104.6075 -82.32 104.2775 -83 103.9375 C-83.495 104.9275 -83.495 104.9275 -84 105.9375 C-85.5625 103.6875 -85.5625 103.6875 -87 100.9375 C-86.625 99.0625 -86.625 99.0625 -86 96.9375 C-86.165 95.82375 -86.33 94.71 -86.5 93.5625 C-87.08605915 89.31357114 -86.93516011 85.80782022 -85 81.9375 C-84.01 82.2675 -83.02 82.5975 -82 82.9375 C-81.67 81.6175 -81.34 80.2975 -81 78.9375 C-80.34 79.5975 -79.68 80.2575 -79 80.9375 C-78.34 79.6175 -77.68 78.2975 -77 76.9375 C-76.34 76.9375 -75.68 76.9375 -75 76.9375 C-74.67 74.6275 -74.34 72.3175 -74 69.9375 C-71.525 69.4425 -71.525 69.4425 -69 68.9375 C-69 68.2775 -69 67.6175 -69 66.9375 C-68.01 66.4425 -68.01 66.4425 -67 65.9375 C-66.505 64.4525 -66.505 64.4525 -66 62.9375 C-65.01 62.9375 -64.02 62.9375 -63 62.9375 C-63 61.9475 -63 60.9575 -63 59.9375 C-61.35666496 58.89960419 -59.68756133 57.90182076 -58 56.9375 C-57.34 55.9475 -56.68 54.9575 -56 53.9375 C-55.34 53.9375 -54.68 53.9375 -54 53.9375 C-54 52.9475 -54 51.9575 -54 50.9375 C-53.01 50.6075 -52.02 50.2775 -51 49.9375 C-49.66104368 48.27534732 -48.32869858 46.60786393 -47 44.9375 C-46.030625 44.133125 -45.06125 43.32875 -44.0625 42.5 C-40.86760658 39.82672183 -38.61108933 37.16700523 -36 33.9375 C-33.77693584 31.57101235 -31.52572652 29.5521528 -29 27.5 C-26.23321323 25.13670296 -24.20757756 22.80735082 -22 19.9375 C-19.875 17.625 -19.875 17.625 -18 15.9375 C-17.34 15.9375 -16.68 15.9375 -16 15.9375 C-15.731875 15.339375 -15.46375 14.74125 -15.1875 14.125 C-13.9858765 11.91148302 -12.8026513 10.67081856 -11 8.9375 C-10.38125 8.133125 -9.7625 7.32875 -9.125 6.5 C-3.64041605 -0.113763 -3.64041605 -0.113763 0 0 Z M-86 98.9375 C-86 99.5975 -86 100.2575 -86 100.9375 C-85.34 100.6075 -84.68 100.2775 -84 99.9375 C-84.66 99.6075 -85.32 99.2775 -86 98.9375 Z " fill="#646864" transform="translate(100,5.0625)"/>
<path d="M0 0 C2.49755275 1.17072785 4.75825555 2.31846234 7 3.9375 C7 4.9275 7 5.9175 7 6.9375 C7.99 7.2675 8.98 7.5975 10 7.9375 C10 8.5975 10 9.2575 10 9.9375 C10.66 9.9375 11.32 9.9375 12 9.9375 C12.5878125 10.989375 12.5878125 10.989375 13.1875 12.0625 C15.24859472 15.33182266 17.56156609 17.24150321 20.57421875 19.60546875 C21.04472656 20.04503906 21.51523438 20.48460938 22 20.9375 C22 21.5975 22 22.2575 22 22.9375 C23.485 23.4325 23.485 23.4325 25 23.9375 C27.1875 25.875 27.1875 25.875 29 27.9375 C29 28.5975 29 29.2575 29 29.9375 C30.175625 30.2778125 30.175625 30.2778125 31.375 30.625 C34.66874075 32.27187038 34.79513255 33.58108353 36 36.9375 C37.485 37.4325 37.485 37.4325 39 37.9375 C40.02019573 38.9168879 41.02149805 39.91645449 42 40.9375 C42.66 41.2675 43.32 41.5975 44 41.9375 C44 42.9275 44 43.9175 44 44.9375 C44.66 44.9375 45.32 44.9375 46 44.9375 C48.125 46.8125 48.125 46.8125 50 48.9375 C50 49.5975 50 50.2575 50 50.9375 C50.99 50.9375 51.98 50.9375 53 50.9375 C53 51.9275 53 52.9175 53 53.9375 C53.99 53.9375 54.98 53.9375 56 53.9375 C56.226875 54.55625 56.45375 55.175 56.6875 55.8125 C58.37929835 58.55160209 59.99244161 58.98774472 63 59.9375 C63 60.9275 63 61.9175 63 62.9375 C63.99 62.9375 64.98 62.9375 66 62.9375 C66 64.2575 66 65.5775 66 66.9375 C66.99 66.9375 67.98 66.9375 69 66.9375 C69.66 68.2575 70.32 69.5775 71 70.9375 C71.99 70.9375 72.98 70.9375 74 70.9375 C74.66 71.2675 75.32 71.5975 76 71.9375 C75.67 73.2575 75.34 74.5775 75 75.9375 C75.66 76.2675 76.32 76.5975 77 76.9375 C78.65177773 78.58927773 79.17252291 80.78605958 80 82.9375 C81.32 82.6075 82.64 82.2775 84 81.9375 C84.66 83.5875 85.32 85.2375 86 86.9375 C85.67 87.2675 85.34 87.5975 85 87.9375 C85.66 88.2675 86.32 88.5975 87 88.9375 C86.91621094 89.54078125 86.83242187 90.1440625 86.74609375 90.765625 C86.59333984 91.96445313 86.59333984 91.96445313 86.4375 93.1875 C86.33308594 93.97640625 86.22867188 94.7653125 86.12109375 95.578125 C85.99972651 97.94282874 86.30366743 99.6886037 87 101.9375 C86.01 101.9375 85.02 101.9375 84 101.9375 C84.33 102.5975 84.66 103.2575 85 103.9375 C84.67 104.5975 84.34 105.2575 84 105.9375 C83.01 105.9375 82.02 105.9375 81 105.9375 C80.67 106.5975 80.34 107.2575 80 107.9375 C79.34 107.9375 78.68 107.9375 78 107.9375 C77.87625 108.865625 77.7525 109.79375 77.625 110.75 C77 113.9375 77 113.9375 75 116.9375 C74.01 117.2675 73.02 117.5975 72 117.9375 C70.28547658 119.62903744 70.28547658 119.62903744 68.625 121.6875 C65.8777388 124.92903831 63.00552509 127.93197491 60 130.9375 C58.8907371 132.22479275 57.78703355 133.5168871 56.6875 134.8125 C53.6395733 138.34623161 50.33464703 141.33410223 46.78125 144.34765625 C44.55264908 146.33678032 42.80931437 148.56667428 41 150.9375 C39.3545622 152.62512851 37.68711423 154.2915349 36 155.9375 C35.175 156.7625 34.35 157.5875 33.5 158.4375 C31.78096593 160.15653407 30.02859843 161.84266965 28.25 163.5 C25.86952572 165.67333714 25.86952572 165.67333714 25.5 168.125 C25.335 168.723125 25.17 169.32125 25 169.9375 C24.26499268 170.21062012 23.52998535 170.48374023 22.77270508 170.76513672 C19.45095933 172.16964698 17.65765508 173.93808386 15.13671875 176.5078125 C13.80737305 177.85166016 13.80737305 177.85166016 12.45117188 179.22265625 C11.53916016 180.15980469 10.62714844 181.09695312 9.6875 182.0625 C8.74744428 183.01761605 7.80669569 183.97205067 6.86523438 184.92578125 C4.56991933 187.25640883 2.28190354 189.59375196 0 191.9375 C-4.64426831 189.77810301 -6.57641401 188.45418298 -9 183.9375 C-11.38240349 181.25729608 -12.56612823 180.08212392 -16 178.9375 C-17.03789581 177.29416496 -18.03567924 175.62506133 -19 173.9375 C-21.06467856 171.52870835 -21.88994659 170.97418447 -25 169.9375 C-25 168.9475 -25 167.9575 -25 166.9375 C-25.99 166.9375 -26.98 166.9375 -28 166.9375 C-29.05771739 165.30685236 -30.05273046 163.63469127 -31 161.9375 C-33.06650528 159.5116025 -35.09841136 158.23821215 -38 156.9375 C-38 155.9475 -38 154.9575 -38 153.9375 C-38.99 153.9375 -39.98 153.9375 -41 153.9375 C-41.20560547 153.24076172 -41.41121094 152.54402344 -41.62304688 151.82617188 C-43.41525221 148.06635387 -46.06446982 145.55685658 -49.03125 142.71875 C-49.91882996 141.84820984 -49.91882996 141.84820984 -50.82434082 140.96008301 C-52.70915341 139.11180598 -54.6032787 137.27354933 -56.5 135.4375 C-58.99828194 133.01913264 -61.48639374 130.59094989 -63.96875 128.15625 C-64.54274536 127.60714966 -65.11674072 127.05804932 -65.70812988 126.49230957 C-68.73830052 123.51837597 -70.78921963 121.04048929 -72 116.9375 C-72.99 116.9375 -73.98 116.9375 -75 116.9375 C-75 115.9475 -75 114.9575 -75 113.9375 C-75.99 113.9375 -76.98 113.9375 -78 113.9375 C-78.433125 112.7928125 -78.433125 112.7928125 -78.875 111.625 C-79.96269013 108.78720692 -79.96269013 108.78720692 -82 105.9375 C-81.505 105.4425 -81.505 105.4425 -81 104.9375 C-81.66 104.6075 -82.32 104.2775 -83 103.9375 C-83.495 104.9275 -83.495 104.9275 -84 105.9375 C-85.5625 103.6875 -85.5625 103.6875 -87 100.9375 C-86.625 99.0625 -86.625 99.0625 -86 96.9375 C-86.165 95.82375 -86.33 94.71 -86.5 93.5625 C-87.08605915 89.31357114 -86.93516011 85.80782022 -85 81.9375 C-84.01 82.2675 -83.02 82.5975 -82 82.9375 C-81.67 81.6175 -81.34 80.2975 -81 78.9375 C-80.34 79.5975 -79.68 80.2575 -79 80.9375 C-78.34 79.6175 -77.68 78.2975 -77 76.9375 C-76.34 76.9375 -75.68 76.9375 -75 76.9375 C-74.67 74.6275 -74.34 72.3175 -74 69.9375 C-71.525 69.4425 -71.525 69.4425 -69 68.9375 C-69 68.2775 -69 67.6175 -69 66.9375 C-68.01 66.4425 -68.01 66.4425 -67 65.9375 C-66.505 64.4525 -66.505 64.4525 -66 62.9375 C-65.01 62.9375 -64.02 62.9375 -63 62.9375 C-63 61.9475 -63 60.9575 -63 59.9375 C-61.35666496 58.89960419 -59.68756133 57.90182076 -58 56.9375 C-57.34 55.9475 -56.68 54.9575 -56 53.9375 C-55.34 53.9375 -54.68 53.9375 -54 53.9375 C-54 52.9475 -54 51.9575 -54 50.9375 C-53.01 50.6075 -52.02 50.2775 -51 49.9375 C-49.66104368 48.27534732 -48.32869858 46.60786393 -47 44.9375 C-46.030625 44.133125 -45.06125 43.32875 -44.0625 42.5 C-40.86760658 39.82672183 -38.61108933 37.16700523 -36 33.9375 C-33.77693584 31.57101235 -31.52572652 29.5521528 -29 27.5 C-26.23321323 25.13670296 -24.20757756 22.80735082 -22 19.9375 C-19.875 17.625 -19.875 17.625 -18 15.9375 C-17.34 15.9375 -16.68 15.9375 -16 15.9375 C-15.731875 15.339375 -15.46375 14.74125 -15.1875 14.125 C-13.9858765 11.91148302 -12.8026513 10.67081856 -11 8.9375 C-10.38125 8.133125 -9.7625 7.32875 -9.125 6.5 C-3.64041605 -0.113763 -3.64041605 -0.113763 0 0 Z M-2 13.9375 C-3.40907943 15.36445359 -4.7522605 16.85678597 -6.0625 18.375 C-9.15101956 21.88986415 -12.28790329 25.28264337 -15.625 28.5625 C-19.08891768 31.97797128 -22.33818716 35.50841536 -25.4921875 39.2109375 C-27 40.9375 -27 40.9375 -28.5078125 42.3515625 C-30.12301241 43.94238883 -30.12301241 43.94238883 -31.30151367 46.23706055 C-33.14866894 49.17387014 -35.18188872 51.31454953 -37.66796875 53.73046875 C-38.56064453 54.60767578 -39.45332031 55.48488281 -40.37304688 56.38867188 C-41.30181641 57.29166016 -42.23058594 58.19464844 -43.1875 59.125 C-45.03965465 60.92637591 -46.88756052 62.73213434 -48.73046875 64.54296875 C-49.54926514 65.33856201 -50.36806152 66.13415527 -51.21166992 66.95385742 C-53.2231986 68.73994846 -53.2231986 68.73994846 -53 70.9375 C-54.485 71.4325 -54.485 71.4325 -56 71.9375 C-58.76591425 75.51691844 -60.46864683 78.42099806 -61 82.9375 C-61.66 82.9375 -62.32 82.9375 -63 82.9375 C-63 82.2775 -63 81.6175 -63 80.9375 C-64.485 81.4325 -64.485 81.4325 -66 81.9375 C-66.6496875 83.29875 -66.6496875 83.29875 -67.3125 84.6875 C-69.3675009 88.64527952 -71.47552154 90.27456072 -75 92.9375 C-73.84479446 96.40311662 -72.28933108 97.33196973 -69.5 99.53125 C-67.24986967 101.64074718 -66.17673735 104.12640523 -65 106.9375 C-63.515 106.4425 -63.515 106.4425 -62 105.9375 C-61.74605469 106.46859375 -61.49210937 106.9996875 -61.23046875 107.546875 C-58.61395894 113.05994291 -58.61395894 113.05994291 -55 117.9375 C-54.34 117.9375 -53.68 117.9375 -53 117.9375 C-52.76877441 118.49759766 -52.53754883 119.05769531 -52.29931641 119.63476562 C-50.6589775 122.5418826 -48.62057669 124.47121221 -46.2109375 126.78125 C-45.26992188 127.69777344 -44.32890625 128.61429687 -43.359375 129.55859375 C-41.86408572 131.00413856 -40.36580106 132.44629215 -38.86230469 133.88330078 C-37.40740551 135.27785633 -35.96521886 136.68563661 -34.5234375 138.09375 C-33.65638184 138.92712891 -32.78932617 139.76050781 -31.89599609 140.61914062 C-30 142.9375 -30 142.9375 -30 146.9375 C-29.34 146.9375 -28.68 146.9375 -28 146.9375 C-27.73807861 147.52539307 -27.47615723 148.11328613 -27.20629883 148.71899414 C-25.93524192 151.05659667 -24.59262044 152.57402604 -22.69921875 154.43359375 C-22.05146484 155.07490234 -21.40371094 155.71621094 -20.73632812 156.37695312 C-19.7221582 157.36598633 -19.7221582 157.36598633 -18.6875 158.375 C-17.69073242 159.35823242 -17.69073242 159.35823242 -16.67382812 160.36132812 C-14.78571144 162.22329879 -12.89347641 164.08098217 -11 165.9375 C-8.27634452 168.61576123 -5.65735746 171.23518327 -3.3125 174.25 C-2.1678125 175.5803125 -2.1678125 175.5803125 -1 176.9375 C1.05274346 177.17207542 1.05274346 177.17207542 2.234375 175.71484375 C2.98460938 174.80412109 2.98460938 174.80412109 3.75 173.875 C7.40466703 169.57403396 11.20953078 165.43497481 15.0625 161.3125 C15.65192383 160.67948975 16.24134766 160.04647949 16.84863281 159.39428711 C17.42581055 158.77690674 18.00298828 158.15952637 18.59765625 157.5234375 C19.1611377 156.91983398 19.72461914 156.31623047 20.30517578 155.69433594 C21.96325656 153.97558784 23.68920515 152.35684178 25.43359375 150.7265625 C28.45141567 148.0786137 28.45141567 148.0786137 28 143.9375 C30.16601563 141.51489258 30.16601563 141.51489258 33 138.9375 C33.85787109 138.09533936 34.71574219 137.25317871 35.59960938 136.38549805 C36.95795898 135.05578979 36.95795898 135.05578979 38.34375 133.69921875 C39.87341034 132.19169856 41.40161927 130.68272384 42.92919922 129.1730957 C43.97371803 128.14367485 45.02091195 127.11696107 46.07080078 126.09301758 C54.54890074 117.82058139 54.54890074 117.82058139 61 107.9375 C61 106.9475 61 105.9575 61 104.9375 C61.66 104.9375 62.32 104.9375 63 104.9375 C63 105.5975 63 106.2575 63 106.9375 C63.66 106.9375 64.32 106.9375 65 106.9375 C65.350625 106.07125 65.70125 105.205 66.0625 104.3125 C68.15808687 100.66212287 70.28964156 98.76411147 73.57421875 96.234375 C74.04472656 95.80640625 74.51523438 95.3784375 75 94.9375 C75 94.2775 75 93.6175 75 92.9375 C73.53509889 91.5695647 73.53509889 91.5695647 71.6875 90.1875 C68.3834031 87.47198716 66.62503049 84.9522812 65 80.9375 C63.68 80.9375 62.36 80.9375 61 80.9375 C59.70996094 79.38623047 59.70996094 79.38623047 58.484375 77.1796875 C54.36745656 70.56931469 48.79824416 65.4479134 43.25 60.0625 C41.66794069 58.51564043 40.08813652 56.96656684 38.51092529 55.4147644 C37.09263157 54.0209879 35.66807186 52.63359601 34.24316406 51.24658203 C32 48.9375 32 48.9375 30 45.9375 C29.34 45.9375 28.68 45.9375 28 45.9375 C27.74114014 45.18895752 27.48228027 44.44041504 27.21557617 43.66918945 C25.95957825 40.84666269 24.75683277 39.35737164 22.55078125 37.23046875 C21.86693359 36.56080078 21.18308594 35.89113281 20.47851562 35.20117188 C19.40633789 34.1734668 19.40633789 34.1734668 18.3125 33.125 C13.50800433 28.47189715 8.87132043 23.78702661 4.53198242 18.69262695 C3.07399041 17.02226766 1.6567837 15.41230678 0 13.9375 C-0.66 13.9375 -1.32 13.9375 -2 13.9375 Z M-86 98.9375 C-86 99.5975 -86 100.2575 -86 100.9375 C-85.34 100.6075 -84.68 100.2775 -84 99.9375 C-84.66 99.6075 -85.32 99.2775 -86 98.9375 Z " fill="#636662" transform="translate(100,5.0625)"/>
<path d="M0 0 C5.21834903 4.3748723 10.14069174 8.95384862 14.98046875 13.7421875 C15.71574295 14.46938995 16.45101715 15.19659241 17.20857239 15.9458313 C18.75208456 17.47559534 20.29411151 19.00685929 21.8347168 20.53955078 C23.40416044 22.09743165 24.97807178 23.65082444 26.55639648 25.19970703 C28.85351719 27.45407172 31.13701788 29.72147692 33.41796875 31.9921875 C34.11907272 32.67578339 34.8201767 33.35937927 35.54252625 34.06369019 C40.74037832 39.28465939 45.57577393 45.1722528 45.5625 52.9375 C44.89764699 63.05989185 37.89882205 69.66445543 30.98046875 76.41015625 C30.12189774 77.26306747 29.26332672 78.1159787 28.3787384 78.99473572 C25.65763944 81.69359926 22.92291073 84.37815092 20.1875 87.0625 C18.33045891 88.89945972 16.47432934 90.73734141 14.61914062 92.57617188 C10.08991595 97.06149946 5.54944355 101.53518655 1 106 C-4.21834903 101.6251277 -9.14069174 97.04615138 -13.98046875 92.2578125 C-14.71574295 91.53061005 -15.45101715 90.80340759 -16.20857239 90.0541687 C-17.75208456 88.52440466 -19.29411151 86.99314071 -20.8347168 85.46044922 C-22.40416044 83.90256835 -23.97807178 82.34917556 -25.55639648 80.80029297 C-27.85351719 78.54592828 -30.13701788 76.27852308 -32.41796875 74.0078125 C-33.11907272 73.32421661 -33.8201767 72.64062073 -34.54252625 71.93630981 C-39.38918085 67.06810001 -43.16372486 62.23056837 -44.53125 55.3125 C-44.5209375 54.549375 -44.510625 53.78625 -44.5 53 C-44.51546875 51.8553125 -44.51546875 51.8553125 -44.53125 50.6875 C-42.796798 41.9132134 -37.02365689 36.48406598 -30.859375 30.46875 C-29.97719299 29.59222778 -29.09501099 28.71570557 -28.18609619 27.81262207 C-25.85877605 25.50380258 -23.5230797 23.2039337 -21.18286133 20.90820312 C-18.7890488 18.55558587 -16.40676596 16.19135424 -14.0234375 13.828125 C-9.35942151 9.20806526 -4.68415779 4.5996325 0 0 Z " fill="#AAB0AD" transform="translate(99,46)"/>
<path d="M0 0 C0.7397791 5.31544986 1.23543991 10.01814848 -1.6875 14.70703125 C-4.01964482 17.27805896 -6.44781727 19.647687 -9 22 C-10.65092088 23.64073001 -12.29700158 25.28634899 -13.9375 26.9375 C-15.03384766 28.00291016 -15.03384766 28.00291016 -16.15234375 29.08984375 C-18.1721034 31.06339101 -18.1721034 31.06339101 -20 34 C-20.66 34 -21.32 34 -22 34 C-22.2475 34.5775 -22.495 35.155 -22.75 35.75 C-24.17288843 38.31119917 -25.9333048 39.9333048 -28 42 C-28.44633789 42.77375977 -28.89267578 43.54751953 -29.35253906 44.34472656 C-31.11370269 47.18325881 -33.02712491 49.22358036 -35.421875 51.546875 C-36.28296875 52.3925 -37.1440625 53.238125 -38.03125 54.109375 C-39.82790061 55.85439772 -41.62477165 57.59919353 -43.421875 59.34375 C-53.40288056 68.99105033 -53.40288056 68.99105033 -60 81 C-60.66 81 -61.32 81 -62 81 C-62 80.34 -62 79.68 -62 79 C-64.29609328 79.88588071 -64.29609328 79.88588071 -65.25 82.75 C-66.8390918 85.70117049 -67.68178841 86.76901389 -70.1875 88.75 C-71.115625 89.4925 -72.04375 90.235 -73 91 C-73 91.66 -73 92.32 -73 93 C-71.49884884 94.36589983 -71.49884884 94.36589983 -69.625 95.75 C-66.2780313 98.49519049 -64.92614126 100.67800744 -64 105 C-63.34 105 -62.68 105 -62 105 C-61.67 104.34 -61.34 103.68 -61 103 C-60.20724852 104.4160599 -59.41584688 105.83287553 -58.625 107.25 C-57.96371094 108.43335937 -57.96371094 108.43335937 -57.2890625 109.640625 C-56.14252177 111.73914197 -55.05350448 113.8536077 -54 116 C-53.34 116 -52.68 116 -52 116 C-50.58984375 117.44238281 -50.58984375 117.44238281 -48.9375 119.453125 C-46.27655584 122.58608311 -43.52636203 125.51088823 -40.5625 128.359375 C-39.81355469 129.08253906 -39.06460938 129.80570313 -38.29296875 130.55078125 C-36.74022235 132.04004228 -35.18007333 133.52161676 -33.61328125 134.99609375 C-32.87464844 135.71410156 -32.13601562 136.43210938 -31.375 137.171875 C-30.70210937 137.8122168 -30.02921875 138.45255859 -29.3359375 139.11230469 C-28 141 -28 141 -28.2890625 143.23925781 C-28.52367187 143.82030273 -28.75828125 144.40134766 -29 145 C-28.34 145 -27.68 145 -27 145 C-25.66015625 146.36328125 -25.66015625 146.36328125 -24.0625 148.3125 C-18.5403259 154.81870932 -12.3991077 160.758879 -6.2265625 166.64453125 C-4 169 -4 169 -3 172 C-2.01 172.33 -1.02 172.66 0 173 C1.53266582 176.06533164 1.10276471 179.26754272 1.0625 182.625 C1.05798828 183.33140625 1.05347656 184.0378125 1.04882812 184.765625 C1.03703875 186.51045275 1.01910324 188.255237 1 190 C-3.64426831 187.84060301 -5.57641401 186.51668298 -8 182 C-10.38240349 179.31979608 -11.56612823 178.14462392 -15 177 C-16.03789581 175.35666496 -17.03567924 173.68756133 -18 172 C-20.06467856 169.59120835 -20.88994659 169.03668447 -24 168 C-24 167.01 -24 166.02 -24 165 C-24.99 165 -25.98 165 -27 165 C-28.05771739 163.36935236 -29.05273046 161.69719127 -30 160 C-32.06650528 157.5741025 -34.09841136 156.30071215 -37 155 C-37 154.01 -37 153.02 -37 152 C-37.99 152 -38.98 152 -40 152 C-40.20560547 151.30326172 -40.41121094 150.60652344 -40.62304688 149.88867188 C-42.41525221 146.12885387 -45.06446982 143.61935658 -48.03125 140.78125 C-48.91882996 139.91070984 -48.91882996 139.91070984 -49.82434082 139.02258301 C-51.70915341 137.17430598 -53.6032787 135.33604933 -55.5 133.5 C-57.99828194 131.08163264 -60.48639374 128.65344989 -62.96875 126.21875 C-63.54274536 125.66964966 -64.11674072 125.12054932 -64.70812988 124.55480957 C-67.73830052 121.58087597 -69.78921963 119.10298929 -71 115 C-71.99 115 -72.98 115 -74 115 C-74 114.01 -74 113.02 -74 112 C-74.99 112 -75.98 112 -77 112 C-77.433125 110.8553125 -77.433125 110.8553125 -77.875 109.6875 C-78.96269013 106.84970692 -78.96269013 106.84970692 -81 104 C-80.505 103.505 -80.505 103.505 -80 103 C-80.66 102.67 -81.32 102.34 -82 102 C-82.495 102.99 -82.495 102.99 -83 104 C-84.5625 101.75 -84.5625 101.75 -86 99 C-85.625 97.125 -85.625 97.125 -85 95 C-85.165 93.88625 -85.33 92.7725 -85.5 91.625 C-86.08605915 87.37607114 -85.93516011 83.87032022 -84 80 C-83.01 80.33 -82.02 80.66 -81 81 C-80.67 79.68 -80.34 78.36 -80 77 C-79.34 77.66 -78.68 78.32 -78 79 C-77.34 77.68 -76.68 76.36 -76 75 C-75.34 75 -74.68 75 -74 75 C-73.67 72.69 -73.34 70.38 -73 68 C-70.525 67.505 -70.525 67.505 -68 67 C-68 66.34 -68 65.68 -68 65 C-67.01 64.505 -67.01 64.505 -66 64 C-65.67 63.01 -65.34 62.02 -65 61 C-64.01 61 -63.02 61 -62 61 C-62 60.01 -62 59.02 -62 58 C-60.35666496 56.96210419 -58.68756133 55.96432076 -57 55 C-56.34 54.01 -55.68 53.02 -55 52 C-54.34 52 -53.68 52 -53 52 C-53 51.01 -53 50.02 -53 49 C-52.01 48.67 -51.02 48.34 -50 48 C-48.66104368 46.33784732 -47.32869858 44.67036393 -46 43 C-45.030625 42.195625 -44.06125 41.39125 -43.0625 40.5625 C-39.86760658 37.88922183 -37.61108933 35.22950523 -35 32 C-32.32224099 29.18189723 -29.51575089 26.80424507 -26.4375 24.4375 C-19.56108793 18.89894769 -13.4655326 12.59577211 -7.28686523 6.30053711 C-6.08912476 5.0824939 -6.08912476 5.0824939 -4.8671875 3.83984375 C-4.14644043 3.10113037 -3.42569336 2.36241699 -2.68310547 1.60131836 C-1 0 -1 0 0 0 Z M-85 97 C-85 97.66 -85 98.32 -85 99 C-84.34 98.67 -83.68 98.34 -83 98 C-83.66 97.67 -84.32 97.34 -85 97 Z " fill="#51595B" transform="translate(99,7)"/>
<path d="M0 0 C3.84223567 1.50944973 5.51995823 3.76843042 8 7 C10.26201652 9.31637181 12.56817287 11.57978503 14.88842773 13.83764648 C17.01429082 15.90720197 19.13220126 17.98469566 21.25 20.0625 C21.9821875 20.76955078 22.714375 21.47660156 23.46875 22.20507812 C24.51289063 23.2347168 24.51289063 23.2347168 25.578125 24.28515625 C26.52800293 25.21146851 26.52800293 25.21146851 27.49707031 26.15649414 C29 28 29 28 29.52636719 30.16967773 C29.68266602 30.77368408 29.83896484 31.37769043 30 32 C31.485 32.495 31.485 32.495 33 33 C34.50561523 34.53344727 34.50561523 34.53344727 36.12109375 36.50390625 C38.76248286 39.61848353 41.49009693 42.54682312 44.41015625 45.40234375 C45.17263672 46.14806641 45.93511719 46.89378906 46.72070312 47.66210938 C48.28196305 49.1790967 49.84707762 50.69212694 51.41601562 52.20117188 C56.38351832 57.07613853 60.39559093 62.04201495 64 68 C64.99 67.67 65.98 67.34 67 67 C67.30292969 67.53109375 67.60585937 68.0621875 67.91796875 68.609375 C70.51164868 72.9827184 72.867567 75.93019263 77 79 C77 79.66 77 80.32 77 81 C75.75146711 82.15271525 74.45031062 83.24895002 73.125 84.3125 C69.9896473 86.96037737 67.99769909 88.88449127 67 93 C66.34 93 65.68 93 65 93 C65 92.34 65 91.68 65 91 C64.34 91 63.68 91 63 91 C62.88309814 91.5772583 62.76619629 92.1545166 62.64575195 92.74926758 C59.93868494 102.1845987 51.13482754 109.19135859 44.3125 115.8125 C42.74070186 117.34904195 41.17117827 118.88781471 39.60429382 120.42936707 C38.19274182 121.81644822 36.77489736 123.19711743 35.35668945 124.57739258 C31.58934437 128.31489714 31.58934437 128.31489714 29.49462891 133.05175781 C28.87551022 135.49033981 27.89115236 136.44090644 26.0859375 138.171875 C25.49288818 138.75001953 24.89983887 139.32816406 24.28881836 139.92382812 C23.6572583 140.52646484 23.02569824 141.12910156 22.375 141.75 C21.09066757 143.00338662 19.80809652 144.25858079 18.52734375 145.515625 C17.60671143 146.41764648 17.60671143 146.41764648 16.66748047 147.33789062 C13.04404637 150.94965334 9.74467301 154.82384872 6.546875 158.8125 C5.39933095 160.23703744 4.20457112 161.62334729 3 163 C2.34 163 1.68 163 1 163 C-0.33203125 161.64453125 -0.33203125 161.64453125 -1.8125 159.8125 C-4.92353756 155.98417228 -8.38220351 152.58827997 -11.90014648 149.13452148 C-14.0408009 147.03040812 -16.17671946 144.92155942 -18.3125 142.8125 C-19.42334961 141.72678711 -19.42334961 141.72678711 -20.55664062 140.61914062 C-21.60561523 139.57983398 -21.60561523 139.57983398 -22.67578125 138.51953125 C-23.31427002 137.89151611 -23.95275879 137.26350098 -24.6105957 136.61645508 C-26 135 -26 135 -26 133 C-26.66 133 -27.32 133 -28 133 C-28.06372803 132.28287842 -28.12745605 131.56575684 -28.19311523 130.8269043 C-29.26441293 127.07363472 -31.10827242 125.46845355 -33.91015625 122.76953125 C-34.39705429 122.29303635 -34.88395233 121.81654144 -35.38560486 121.3256073 C-36.93533651 119.81137884 -38.4978142 118.3112587 -40.0625 116.8125 C-41.62890196 115.30131221 -43.19229257 113.78729784 -44.75010681 112.26725769 C-46.15910382 110.89397289 -47.57751165 109.53036355 -48.99633789 108.16723633 C-51 106 -51 106 -51 104 C-51.66 104 -52.32 104 -53 104 C-54.47265625 102.13671875 -54.47265625 102.13671875 -56.0625 99.6875 C-56.58972656 98.88699219 -57.11695313 98.08648437 -57.66015625 97.26171875 C-59 95 -59 95 -60 92 C-61.485 92.495 -61.485 92.495 -63 93 C-63.30292969 92.46890625 -63.60585938 91.9378125 -63.91796875 91.390625 C-66.48233857 87.06670297 -68.77603273 83.8964347 -73 81 C-71.84479446 77.53438338 -70.28933108 76.60553027 -67.5 74.40625 C-65.24986967 72.29675282 -64.17673735 69.81109477 -63 67 C-62.34 67 -61.68 67 -61 67 C-61 67.66 -61 68.32 -61 69 C-60.34 69 -59.68 69 -59 69 C-58.7525 67.948125 -58.505 66.89625 -58.25 65.8125 C-57.21740482 62.1836655 -55.65228327 59.73516712 -53 57 C-52.34 57 -51.68 57 -51 57 C-50.7620874 56.43466553 -50.5241748 55.86933105 -50.27905273 55.28686523 C-48.71838468 52.49648965 -46.82871839 50.63788106 -44.53515625 48.41015625 C-43.65279297 47.54326172 -42.77042969 46.67636719 -41.86132812 45.78320312 C-39.99940345 43.97325123 -38.13742452 42.16335516 -36.27539062 40.35351562 C-35.39173828 39.48533203 -34.50808594 38.61714844 -33.59765625 37.72265625 C-32.78820557 36.93640869 -31.97875488 36.15016113 -31.14477539 35.34008789 C-29.01580626 33.01724564 -27.55308644 30.72981059 -26 28 C-22.39487562 23.44615867 -18.43976908 19.41428107 -14.31738281 15.33496094 C-12.48093449 13.51646811 -10.64668829 11.69577208 -8.8125 9.875 C-8.18408203 9.25496094 -7.55566406 8.63492187 -6.90820312 7.99609375 C-6.30556641 7.39667969 -5.70292969 6.79726563 -5.08203125 6.1796875 C-4.53780518 5.64069824 -3.9935791 5.10170898 -3.43286133 4.54638672 C-1.78647068 2.85156126 -1.78647068 2.85156126 0 0 Z M-2.671875 16.34375 C-3.70613858 17.38775177 -4.73174903 18.44037469 -5.75 19.5 C-6.28496094 20.04446777 -6.81992188 20.58893555 -7.37109375 21.14990234 C-10.91687531 24.78690407 -14.30123962 28.52809265 -17.5 32.4765625 C-19.22015064 34.2235905 -20.72422977 35.10213753 -23 36 C-23.99 36 -24.98 36 -26 36 C-27.59861345 37.46426739 -27.59861345 37.46426739 -29.12109375 39.4453125 C-31.75243978 42.58744516 -34.46452008 45.51665421 -37.41015625 48.3671875 C-38.17263672 49.10839844 -38.93511719 49.84960938 -39.72070312 50.61328125 C-41.28002973 52.11928643 -42.84514331 53.61932301 -44.41601562 55.11328125 C-49.49148211 60.07271251 -54.33338044 65.31646397 -57 72 C-56.60623192 75.28765096 -55.58854393 76.92916485 -53 79 C-52.34 79 -51.68 79 -51 79 C-51 79.66 -51 80.32 -51 81 C-51.804375 81.309375 -52.60875 81.61875 -53.4375 81.9375 C-55.89080405 82.76335345 -55.89080405 82.76335345 -57 84 C-57.67689837 90.58814391 -53.83708433 94.9729991 -50 100 C-45.97499495 104.591614 -41.56778897 108.81454982 -37.1875 113.0625 C-36.03096246 114.19891538 -34.87535708 115.33628023 -33.72070312 116.47460938 C-31.6230974 118.53982906 -29.52067523 120.59981357 -27.41088867 122.65258789 C-25.93179175 124.0927415 -24.45975513 125.54024487 -23 127 C-22.11634766 127.39445312 -22.11634766 127.39445312 -21.21484375 127.796875 C-18.17229525 129.4496174 -15.95459486 131.79326498 -13.5625 134.25 C-13.07531494 134.74218018 -12.58812988 135.23436035 -12.08618164 135.74145508 C-9.57801779 138.29765029 -7.17618451 140.89249569 -4.9375 143.6875 C-3.9784375 144.8321875 -3.9784375 144.8321875 -3 146 C-2.34 146 -1.68 146 -1 146 C-0.01 147.98 -0.01 147.98 1 150 C3.04119788 148.38405168 5.04072937 146.7143618 7 145 C7 144.34 7 143.68 7 143 C7.99 142.67 8.98 142.34 10 142 C11.646476 140.37571904 11.646476 140.37571904 13.25 138.375 C15.66761322 135.53826567 18.10197778 132.74810696 20.6875 130.0625 C21.22761719 129.49660156 21.76773438 128.93070312 22.32421875 128.34765625 C24 127 24 127 25.91796875 126.58203125 C28.31314099 125.91246153 29.26091367 125.10090472 30.98828125 123.33984375 C31.52622314 122.79739014 32.06416504 122.25493652 32.6184082 121.69604492 C33.45698364 120.82556519 33.45698364 120.82556519 34.3125 119.9375 C34.89281982 119.34622314 35.47313965 118.75494629 36.07104492 118.14575195 C39.64227837 114.4823964 43.08521132 110.73704403 46.3828125 106.82421875 C48.21366007 104.75898732 50.18380657 102.89727015 52.1875 101 C56.55509916 96.68328549 59.48369989 92.31907213 60.4375 86.1875 C59.90825812 83.54129058 59.16382929 82.58125987 57 81 C56.34 81 55.68 81 55 81 C55.845625 80.29875 56.69125 79.5975 57.5625 78.875 C60.27554033 76.26968878 60.27554033 76.26968878 60.125 73.1875 C57.3531786 65.33400604 52.02537766 59.52218581 46.3125 53.625 C45.25119873 52.52007202 45.25119873 52.52007202 44.16845703 51.39282227 C42.76085391 49.93016694 41.35044858 48.47020225 39.93701172 47.01318359 C38.24593042 45.25560149 36.58709009 43.47569556 34.94140625 41.67578125 C34.09449219 40.77214844 33.24757813 39.86851563 32.375 38.9375 C31.30378906 37.77541016 31.30378906 37.77541016 30.2109375 36.58984375 C27.33957471 34.52510054 25.46492998 34.95842084 22 35 C20.234375 33.6015625 20.234375 33.6015625 18.75 31.625 C15.1779852 27.14200156 11.23726079 23.19928809 7.13671875 19.19921875 C5 17 5 17 3 14 C-0.21648107 13.67028109 -0.21648107 13.67028109 -2.671875 16.34375 Z " fill="#A5ABA9" transform="translate(98,19)"/>
<path d="M0 0 C5.21834903 4.3748723 10.14069174 8.95384862 14.98046875 13.7421875 C15.71574295 14.46938995 16.45101715 15.19659241 17.20857239 15.9458313 C18.75208456 17.47559534 20.29411151 19.00685929 21.8347168 20.53955078 C23.40416044 22.09743165 24.97807178 23.65082444 26.55639648 25.19970703 C28.85351719 27.45407172 31.13701788 29.72147692 33.41796875 31.9921875 C34.11907272 32.67578339 34.8201767 33.35937927 35.54252625 34.06369019 C40.74037832 39.28465939 45.57577393 45.1722528 45.5625 52.9375 C44.89940965 63.04182224 37.91041577 69.66183997 31.015625 76.41015625 C30.15942566 77.26306747 29.30322632 78.1159787 28.42108154 78.99473572 C26.62375238 80.7816997 24.82168683 82.5639113 23.01513672 84.34155273 C20.23576107 87.07651138 17.47027355 89.82492239 14.70703125 92.57617188 C12.95650764 94.31328484 11.20523245 96.04964081 9.453125 97.78515625 C8.62089417 98.61000015 7.78866333 99.43484406 6.93121338 100.28468323 C6.16661804 101.03644333 5.40202271 101.78820343 4.61425781 102.56274414 C3.93872864 103.22842911 3.26319946 103.89411407 2.56719971 104.57997131 C1 106 1 106 0 106 C-0.13530844 102.93601549 -0.2342407 99.87802874 -0.3125 96.8125 C-0.35439453 95.94818359 -0.39628906 95.08386719 -0.43945312 94.19335938 C-0.56410629 87.68646427 -0.56410629 87.68646427 2.44921875 84.01953125 C3.29097656 83.35308594 4.13273437 82.68664062 5 82 C5.69748583 80.68252676 6.36959957 79.35085807 7 78 C8.5 76.25 8.5 76.25 10 75 C10.66 75 11.32 75 12 75 C12.165 74.195625 12.33 73.39125 12.5 72.5625 C14.34053719 68.19122416 16.97283921 65.45339258 20.22265625 62.05078125 C22.20214943 60.03080471 22.20214943 60.03080471 23 57 C12.10525738 62.22039751 6.80014616 71.25421825 2 82 C1.67 82 1.34 82 1 82 C-0.463167 54.69014367 -0.09881688 27.33799147 0 0 Z " fill="#C8CFCB" transform="translate(99,46)"/>
<path d="M0 0 C0.69147519 5.53105658 1.30885222 10.74588681 -1.57095337 15.70550537 C-3.87555699 18.3085655 -6.29223086 20.65188756 -8.86328125 22.9921875 C-9.76620407 23.86722931 -10.66912689 24.74227112 -11.59941101 25.64382935 C-13.98875797 27.9511024 -16.4008275 30.22711677 -18.83117676 32.49066162 C-22.24931747 35.68501059 -25.62274901 38.92618596 -28.99345398 42.17044067 C-30.78561171 43.89039802 -32.59034941 45.59736905 -34.40901184 47.28927612 C-39.73108209 52.33725997 -43.11829498 56.19470763 -44.46875 63.5546875 C-44.4790625 64.32039063 -44.489375 65.08609375 -44.5 65.875 C-44.54640625 67.01582031 -44.54640625 67.01582031 -44.59375 68.1796875 C-42.74847985 76.9447207 -36.44378189 83.09575849 -30.234375 89.12109375 C-29.4003717 89.94706558 -28.56636841 90.77303741 -27.70709229 91.6240387 C-25.06409572 94.23823031 -22.4077481 96.8383149 -19.75 99.4375 C-17.08069408 102.06430258 -14.41423892 104.69393988 -11.75006104 107.32594299 C-10.09652203 108.95776819 -8.43951243 110.58608543 -6.77874756 112.21055603 C-5.66188568 113.30793846 -5.66188568 113.30793846 -4.52246094 114.42749023 C-3.86469666 115.07096909 -3.20693237 115.71444794 -2.52923584 116.37742615 C0.41721201 119.50371257 0.10694908 121.94678654 0.0625 126.125 C0.05347656 127.22070312 0.04445312 128.31640625 0.03515625 129.4453125 C0.02355469 130.28835937 0.01195312 131.13140625 0 132 C-0.99 132.33 -1.98 132.66 -3 133 C-7.39939291 129.90042772 -10.71056824 126.13911554 -14.19921875 122.0703125 C-16.00310216 119.99643353 -17.8449191 117.98128413 -19.75 116 C-20.57757813 115.13375 -20.57757813 115.13375 -21.421875 114.25 C-23.0564107 112.68954914 -23.0564107 112.68954914 -26 113 C-27.47045898 111.59716797 -27.47045898 111.59716797 -29.05859375 109.6171875 C-31.84146632 106.29411455 -34.73739587 103.21518303 -37.84765625 100.1953125 C-38.70037109 99.36386719 -39.55308594 98.53242188 -40.43164062 97.67578125 C-42.18366617 95.97708388 -43.94148684 94.28434296 -45.70507812 92.59765625 C-58.49717693 80.06701594 -58.49717693 80.06701594 -59.26586914 72.32080078 C-59 70 -59 70 -57.125 68.1875 C-55 67 -55 67 -53 67 C-53 66.34 -53 65.68 -53 65 C-53.61875 64.71125 -54.2375 64.4225 -54.875 64.125 C-57 63 -57 63 -59 61 C-57.66295692 50.26955436 -47.52754916 42.06585517 -40.1875 35 C-38.59480953 33.44992573 -37.00505769 31.89694087 -35.41755676 30.34155273 C-33.99350457 28.94887179 -32.5617778 27.56405103 -31.12963867 26.1796875 C-28.96669175 24.18770776 -28.96669175 24.18770776 -28 22 C-27.29875 22.144375 -26.5975 22.28875 -25.875 22.4375 C-21.98146801 21.845006 -20.949645 20.05081549 -18.625 17.01953125 C-16.5878219 14.48774981 -14.31628231 12.27853549 -12 10 C-11.14019531 9.11699219 -10.28039062 8.23398437 -9.39453125 7.32421875 C-8.54246094 6.45410156 -7.69039062 5.58398438 -6.8125 4.6875 C-5.95269531 3.80449219 -5.09289062 2.92148437 -4.20703125 2.01171875 C-2 0 -2 0 0 0 Z " fill="#535A5D" transform="translate(100,33)"/>
<path d="M0 0 C3.31470237 2.58708477 6.22695619 5.15886253 8.9375 8.375 C11.41038753 11.30209137 14.01218946 14.03016444 16.74609375 16.7109375 C17.4222876 17.37432129 18.09848145 18.03770508 18.79516602 18.72119141 C20.16830479 20.06064242 21.54760714 21.39380733 22.93334961 22.72021484 C23.89059937 23.65534912 23.89059937 23.65534912 24.8671875 24.609375 C25.73512939 25.4442041 25.73512939 25.4442041 26.62060547 26.29589844 C28 28 28 28 28.50830078 30.14941406 C28.67056152 30.76010742 28.83282227 31.37080078 29 32 C30.485 32.495 30.485 32.495 32 33 C33.50561523 34.53344727 33.50561523 34.53344727 35.12109375 36.50390625 C37.76248286 39.61848353 40.49009693 42.54682312 43.41015625 45.40234375 C44.17263672 46.14806641 44.93511719 46.89378906 45.72070312 47.66210938 C47.28196305 49.1790967 48.84707762 50.69212694 50.41601562 52.20117188 C55.38351832 57.07613853 59.39559093 62.04201495 63 68 C64.485 67.505 64.485 67.505 66 67 C66.45439453 67.79664062 66.45439453 67.79664062 66.91796875 68.609375 C69.51164868 72.9827184 71.867567 75.93019263 76 79 C76 79.66 76 80.32 76 81 C74.75146711 82.15271525 73.45031062 83.24895002 72.125 84.3125 C68.9896473 86.96037737 66.99769909 88.88449127 66 93 C65.34 93 64.68 93 64 93 C64 92.34 64 91.68 64 91 C63.34 91 62.68 91 62 91 C61.88309814 91.5772583 61.76619629 92.1545166 61.64575195 92.74926758 C58.93868494 102.1845987 50.13482754 109.19135859 43.3125 115.8125 C41.74070186 117.34904195 40.17117827 118.88781471 38.60429382 120.42936707 C37.19274182 121.81644822 35.77489736 123.19711743 34.35668945 124.57739258 C30.58934437 128.31489714 30.58934437 128.31489714 28.49462891 133.05175781 C27.87551022 135.49033981 26.89115236 136.44090644 25.0859375 138.171875 C24.49296875 138.7501001 23.9 139.3283252 23.2890625 139.92407227 C22.65742187 140.52662842 22.02578125 141.12918457 21.375 141.75 C20.08921336 143.00192457 18.80533835 144.25581564 17.5234375 145.51171875 C16.90952148 146.11290527 16.29560547 146.7140918 15.66308594 147.33349609 C13.67277699 149.32789552 11.81840908 151.41085305 10 153.5625 C7.26535953 156.79814331 4.33849566 159.39434485 1 162 C0.13880861 149.10126671 0.13880861 149.10126671 3.1875 145.5 C4.115625 144.675 5.04375 143.85 6 143 C8.69453718 140.34212319 11.3456271 137.64613862 13.97265625 134.921875 C15.0025347 133.86451567 16.03248332 132.80722467 17.0625 131.75 C17.8369043 130.93789063 17.8369043 130.93789063 18.62695312 130.109375 C21.4140123 127.26905992 23.21785942 125.93512431 27 125 C29.04875117 123.19397817 30.92786578 121.4005122 32.8125 119.4375 C33.34584961 118.89319336 33.87919922 118.34888672 34.42871094 117.78808594 C37.86643784 114.25422806 41.16508536 110.62554691 44.34765625 106.859375 C46.19212946 104.78379759 48.17153647 102.90869208 50.1875 101 C54.57546339 96.66315851 57.41215464 92.30663016 58.5 86.1875 C58.17688083 83.81259823 58.17688083 83.81259823 56 82.1875 C55.34 81.795625 54.68 81.40375 54 81 C55 78 55 78 58 76 C57.29198792 66.55983891 50.53060561 60.04458684 44.25 53.5625 C43.18483154 52.45370483 43.18483154 52.45370483 42.09814453 51.32250977 C40.69809194 49.86760019 39.29535453 48.41526832 37.88964844 46.96582031 C36.28716809 45.29874385 34.71735029 43.61109608 33.1640625 41.8984375 C32.40867188 41.08632813 31.65328125 40.27421875 30.875 39.4375 C30.25367188 38.75558594 29.63234375 38.07367188 28.9921875 37.37109375 C26.99476374 35.71057898 26.99476374 35.71057898 24.02734375 36.0625 C21 36 21 36 18.76171875 34.12890625 C18.07722656 33.28199219 17.39273438 32.43507812 16.6875 31.5625 C12.97022411 27.12818612 9.09451459 23.03804105 4.9453125 19.0078125 C0.09029037 13.99680573 0.09029037 13.99680573 -0.29296875 9.765625 C-0.24076172 8.02539062 -0.24076172 8.02539062 -0.1875 6.25 C-0.16042969 5.07953125 -0.13335937 3.9090625 -0.10546875 2.703125 C-0.07066406 1.81109375 -0.03585938 0.9190625 0 0 Z " fill="#D9F6EA" transform="translate(99,19)"/>
<path d="M0 0 C7.88156399 6.75562628 7.88156399 6.75562628 10.86816406 9.70703125 C11.53865784 10.36791748 12.20915161 11.02880371 12.89996338 11.7097168 C13.59813171 12.40363525 14.29630005 13.09755371 15.015625 13.8125 C15.75327087 14.5444458 16.49091675 15.2763916 17.25091553 16.03051758 C18.79854492 17.56875745 20.34476951 19.10841187 21.88964844 20.64941406 C24.25008797 23.0000876 26.62098459 25.33987826 28.9921875 27.6796875 C30.50065738 29.18163172 32.00849207 30.68421422 33.515625 32.1875 C34.22189026 32.88141846 34.92815552 33.57533691 35.65582275 34.2902832 C40.37600981 39.03200251 43.85059497 42.91229608 44.1875 49.875 C44.0946875 51.421875 44.0946875 51.421875 44 53 C41.37493198 53.02690844 38.75013827 53.04679404 36.125 53.0625 C35.37863281 53.07087891 34.63226563 53.07925781 33.86328125 53.08789062 C28.2265625 53.11328125 28.2265625 53.11328125 26 52 C26 51.34 26 50.68 26 50 C25.34 50 24.68 50 24 50 C23.938125 49.38125 23.87625 48.7625 23.8125 48.125 C23.544375 47.42375 23.27625 46.7225 23 46 C21.88625 45.566875 21.88625 45.566875 20.75 45.125 C17.65878659 43.8604127 16.4044545 42.25957916 14.39453125 39.65625 C12.35807157 37.23759761 9.98405552 35.30392163 7.55078125 33.296875 C6 32 6 32 4 30 C8.76848571 39.49302224 14.15992911 46.28496491 23.27734375 51.87109375 C23.84582031 52.24363281 24.41429688 52.61617187 25 53 C25 53.33 25 53.66 25 54 C16.75 54 8.5 54 0 54 C0 36.18 0 18.36 0 0 Z " fill="#D6DFDA" transform="translate(99,46)"/>
<path d="M0 0 C0 17.49 0 34.98 0 53 C-7.92 53 -15.84 53 -24 53 C-21.71707037 50.71707037 -19.85429792 49.15633978 -17.25 47.375 C-10.9880279 42.73051147 -5.7850459 36.73519891 -4 29 C-4.721875 29.763125 -5.44375 30.52625 -6.1875 31.3125 C-12.13953488 37 -12.13953488 37 -16 37 C-16 37.66 -16 38.32 -16 39 C-17.98 39.66 -19.96 40.32 -22 41 C-22 41.66 -22 42.32 -22 43 C-22.639375 43.433125 -23.27875 43.86625 -23.9375 44.3125 C-26.49927596 46.40849852 -26.65221564 47.78299472 -27 51 C-30.42232972 52.14077657 -33.08673217 52.09815117 -36.6875 52.0625 C-38.45673828 52.04896484 -38.45673828 52.04896484 -40.26171875 52.03515625 C-41.16535156 52.02355469 -42.06898437 52.01195312 -43 52 C-43.38032479 45.66125357 -42.45822163 41.81926474 -38.2255249 36.96490479 C-35.92626632 34.5622214 -33.579939 32.21676173 -31.2109375 29.8828125 C-30.35190826 29.02565643 -29.49287903 28.16850037 -28.6078186 27.28536987 C-26.79738788 25.48164498 -24.98337109 23.68151324 -23.16601562 21.88476562 C-20.37103763 19.121082 -17.58700234 16.34673884 -14.8046875 13.5703125 C-13.0448952 11.81968464 -11.28449958 10.069663 -9.5234375 8.3203125 C-8.68493256 7.48605743 -7.84642761 6.65180237 -6.98251343 5.79226685 C-5.82593735 4.65010208 -5.82593735 4.65010208 -4.64599609 3.48486328 C-3.96443451 2.8101297 -3.28287292 2.13539612 -2.58065796 1.44021606 C-1 0 -1 0 0 0 Z " fill="#B8BCBA" transform="translate(99,47)"/>
<path d="M0 0 C1 3 1 3 -0.1171875 5.41796875 C-5.14036982 13.33227155 -10.51498757 19.75749379 -19 24 C-11.41 24.33 -3.82 24.66 4 25 C4 35.23 4 45.46 4 56 C3.34 56 2.68 56 2 56 C0.9910492 54.3387366 -0.00669338 52.67066446 -1 51 C-2.73897589 48.97164978 -4.48648253 47.00763247 -6.3125 45.0625 C-6.80089355 44.53470947 -7.28928711 44.00691895 -7.79248047 43.46313477 C-10.34167889 40.72120034 -12.93570665 38.04173055 -15.625 35.4375 C-18 33 -18 33 -19 30 C-25.5508985 30.45759953 -31.6753842 31.2100144 -38 33 C-39.90608098 29.78817851 -40.22266247 27.46117397 -40.125 23.75 C-40.09792969 22.41195312 -40.09792969 22.41195312 -40.0703125 21.046875 C-40.04710937 20.37140625 -40.02390625 19.6959375 -40 19 C-39.67 19 -39.34 19 -39 19 C-39 20.65 -39 22.3 -39 24 C-36.87436897 23.88623383 -34.7494739 23.75864369 -32.625 23.625 C-30.84996094 23.52058594 -30.84996094 23.52058594 -29.0390625 23.4140625 C-25.89437681 23.29782654 -25.89437681 23.29782654 -24 21 C-23.525625 20.154375 -23.05125 19.30875 -22.5625 18.4375 C-21 16 -21 16 -18 15 C-18 14.34 -18 13.68 -18 13 C-15 11 -15 11 -12 11 C-12 10.34 -12 9.68 -12 9 C-6 6 -6 6 -3.75 5.0625 C-1.54340952 3.72278435 -0.94418518 2.36046295 0 0 Z " fill="#9D9E9D" transform="translate(95,75)"/>
<path d="M0 0 C3.31470237 2.58708477 6.22695619 5.15886253 8.9375 8.375 C11.41038753 11.30209137 14.01218946 14.03016444 16.74609375 16.7109375 C17.4222876 17.37432129 18.09848145 18.03770508 18.79516602 18.72119141 C20.16830479 20.06064242 21.54760714 21.39380733 22.93334961 22.72021484 C23.89059937 23.65534912 23.89059937 23.65534912 24.8671875 24.609375 C25.73512939 25.4442041 25.73512939 25.4442041 26.62060547 26.29589844 C28 28 28 28 28.50830078 30.14941406 C28.67056152 30.76010742 28.83282227 31.37080078 29 32 C30.485 32.495 30.485 32.495 32 33 C33.49682617 34.52026367 33.49682617 34.52026367 35.10546875 36.48046875 C39.24851867 41.36432171 43.74942686 45.82380458 48.3125 50.3125 C49.91507597 51.88957754 51.51544087 53.46890596 53.11328125 55.05078125 C53.81235596 55.73825439 54.51143066 56.42572754 55.23168945 57.1340332 C57 59 57 59 59 62 C58.625 64.6875 58.625 64.6875 58 67 C54.7369879 65.9123293 54.12160072 65.24933287 52 62.6875 C47.60065541 57.51016605 43.04825568 52.48902453 38.4140625 47.52246094 C37.47866819 46.51536168 36.54886053 45.50304168 35.625 44.48535156 C34.32804861 43.05927057 33.00813893 41.65417332 31.6875 40.25 C30.92824219 39.43015625 30.16898438 38.6103125 29.38671875 37.765625 C27.08969028 35.6983948 27.08969028 35.6983948 23.9765625 36.01171875 C21 36 21 36 18.76171875 34.12890625 C18.07722656 33.28199219 17.39273438 32.43507812 16.6875 31.5625 C12.97022411 27.12818612 9.09451459 23.03804105 4.9453125 19.0078125 C0.09029037 13.99680573 0.09029037 13.99680573 -0.29296875 9.765625 C-0.24076172 8.02539062 -0.24076172 8.02539062 -0.1875 6.25 C-0.16042969 5.07953125 -0.13335937 3.9090625 -0.10546875 2.703125 C-0.07066406 1.81109375 -0.03585938 0.9190625 0 0 Z " fill="#D9F5E9" transform="translate(99,19)"/>
<path d="M0 0 C0.99 0.66 1.98 1.32 3 2 C3 2.66 3 3.32 3 4 C3.99 4.33 4.98 4.66 6 5 C8.78865522 7.56849823 11.20152667 10.25042003 13.5 13.25 C16.1247942 16.13727362 17.18796825 16.78216961 21 17 C21 18.65 21 20.3 21 22 C21.66 22 22.32 22 23 22 C23 22.66 23 23.32 23 24 C28.94 24.33 34.88 24.66 41 25 C41 23.35 41 21.7 41 20 C41.33 20 41.66 20 42 20 C42.02698189 21.62490954 42.04638757 23.24994633 42.0625 24.875 C42.07410156 25.77992187 42.08570313 26.68484375 42.09765625 27.6171875 C42 30 42 30 41 32 C35.06 31.34 29.12 30.68 23 30 C22.67 31.32 22.34 32.64 22 34 C20.16391839 35.93271748 18.12737753 37.37051934 16 39 C15.34 38.67 14.68 38.34 14 38 C15.26953125 36.53515625 16.5390625 35.0703125 17.80859375 33.60546875 C19.20871231 31.89287029 19.20871231 31.89287029 20 29 C9.10525738 34.22039751 3.80014616 43.25421825 -1 54 C-1.33 54 -1.66 54 -2 54 C-2 44.76 -2 35.52 -2 26 C5.59 25.67 13.18 25.34 21 25 C16.545 22.03 16.545 22.03 12 19 C6.61724173 14.08200108 2.82190575 8.70202616 0 2 C0 1.34 0 0.68 0 0 Z " fill="#B1B7B3" transform="translate(102,74)"/>
<path d="M0 0 C4.66251557 0.46806577 6.63571186 2.16179474 9.86328125 5.47265625 C10.74951172 6.37177734 11.63574219 7.27089844 12.54882812 8.19726562 C13.46083984 9.14279297 14.37285156 10.08832031 15.3125 11.0625 C16.25232276 12.02239821 17.19306889 12.98139329 18.13476562 13.93945312 C20.43242024 16.28423912 22.7202276 18.63784527 25 21 C24.67 21.99 24.34 22.98 24 24 C19.48845274 26.13482062 14.95899795 27.44293195 10 28 C6.75421728 26.72414201 4.78321486 24.99660543 3 22 C3 21.01 3 20.02 3 19 C2.34 19 1.68 19 1 19 C0.34 16.03 -0.32 13.06 -1 10 C-1.66 10 -2.32 10 -3 10 C-2.49287967 6.28111761 -1.88391785 3.26545761 0 0 Z " fill="#F2FAF5" transform="translate(112,62)"/>
<path d="M0 0 C4.28642324 1.66463038 7.08617217 4.79075837 10.25 8 C10.80429688 8.5465625 11.35859375 9.093125 11.9296875 9.65625 C16 13.7466133 16 13.7466133 16 16 C16.99 16.33 17.98 16.66 19 17 C22.7912468 19.82928866 24.75945903 22.67548271 25.609375 27.35546875 C25.84839714 30.57875265 25.99028082 33.76837333 26 37 C25.34 37 24.68 37 24 37 C22.66796875 35.64453125 22.66796875 35.64453125 21.1875 33.8125 C18.07646244 29.98417228 14.61779649 26.58827997 11.09985352 23.13452148 C8.9591991 21.03040812 6.82328054 18.92155942 4.6875 16.8125 C3.57665039 15.72678711 3.57665039 15.72678711 2.44335938 14.61914062 C1.74404297 13.92626953 1.04472656 13.23339844 0.32421875 12.51953125 C-0.31427002 11.89151611 -0.95275879 11.26350098 -1.6105957 10.61645508 C-3 9 -3 9 -3 7 C-3.66 7 -4.32 7 -5 7 C-3.70700306 4.11562221 -2.34058637 2.12780579 0 0 Z " fill="#AEBDB7" transform="translate(75,145)"/>
<path d="M0 0 C0.33 0 0.66 0 1 0 C3.17261863 12.23795339 3.17261863 12.23795339 0.53125 16.20703125 C-1.5 17.875 -1.5 17.875 -3.7265625 19.40234375 C-6.91427608 21.64250673 -9.10661179 24.4957777 -11.5546875 27.49609375 C-12.03164062 27.99238281 -12.50859375 28.48867188 -13 29 C-13.66 29 -14.32 29 -15 29 C-15.2475 29.5775 -15.495 30.155 -15.75 30.75 C-17.16683317 33.3002997 -18.87627537 35.01785701 -21 37 C-23.88437779 35.70700306 -25.87219421 34.34058637 -28 32 C-25.15834119 25.28335191 -19.40028657 20.36475898 -14.31762695 15.33520508 C-12.48109807 13.51663004 -10.64676997 11.69585315 -8.8125 9.875 C-8.18408203 9.25496094 -7.55566406 8.63492187 -6.90820312 7.99609375 C-6.30556641 7.39667969 -5.70292969 6.79726563 -5.08203125 6.1796875 C-4.53780518 5.64069824 -3.9935791 5.10170898 -3.43286133 4.54638672 C-1.78647068 2.85156126 -1.78647068 2.85156126 0 0 Z " fill="#AEBDB7" transform="translate(98,19)"/>
<path d="M0 0 C1 3 1 3 -0.1171875 5.41796875 C-5.27980561 13.55196039 -11.55987677 21.70693376 -21 25 C-23.375 24.6875 -23.375 24.6875 -25 24 C-25.33 25.98 -25.66 27.96 -26 30 C-27.41538717 30.33872513 -28.83237963 30.67074624 -30.25 31 C-31.03890625 31.185625 -31.8278125 31.37125 -32.640625 31.5625 C-35 32 -35 32 -39 32 C-40.00496852 28.98509443 -40.10335303 26.95818308 -40.0625 23.8125 C-40.05347656 22.91144531 -40.04445312 22.01039062 -40.03515625 21.08203125 C-40.02355469 20.39496094 -40.01195312 19.70789063 -40 19 C-39.67 19 -39.34 19 -39 19 C-39 20.65 -39 22.3 -39 24 C-36.87436897 23.88623383 -34.7494739 23.75864369 -32.625 23.625 C-30.84996094 23.52058594 -30.84996094 23.52058594 -29.0390625 23.4140625 C-25.89437681 23.29782654 -25.89437681 23.29782654 -24 21 C-23.525625 20.154375 -23.05125 19.30875 -22.5625 18.4375 C-21 16 -21 16 -18 15 C-18 14.34 -18 13.68 -18 13 C-15 11 -15 11 -12 11 C-12 10.34 -12 9.68 -12 9 C-6 6 -6 6 -3.75 5.0625 C-1.54340952 3.72278435 -0.94418518 2.36046295 0 0 Z " fill="#9FA3A1" transform="translate(95,75)"/>
<path d="M0 0 C1.32 1.65 2.64 3.3 4 5 C4.99 4.67 5.98 4.34 7 4 C7.30292969 4.53109375 7.60585937 5.0621875 7.91796875 5.609375 C10.51164868 9.9827184 12.867567 12.93019263 17 16 C17 16.66 17 17.32 17 18 C15.75146711 19.15271525 14.45031062 20.24895002 13.125 21.3125 C9.9896473 23.96037737 7.99769909 25.88449127 7 30 C6.34 30 5.68 30 5 30 C5 29.34 5 28.68 5 28 C4.34 28 3.68 28 3 28 C2.67 27.01 2.34 26.02 2 25 C1.34 24.67 0.68 24.34 0 24 C-1.5 21.5 -1.5 21.5 -3 19 C-3.66 18.67 -4.32 18.34 -5 18 C-4 15 -4 15 -1 13 C-1.48578543 9.87709365 -1.9986012 7.00419641 -3 4 C-2.34 3.67 -1.68 3.34 -1 3 C-0.67 2.01 -0.34 1.02 0 0 Z " fill="#B7B8B7" transform="translate(158,82)"/>
<path d="M0 0 C2.14228262 2.85637682 3.66742181 5.15171312 5.25 8.25 C9.53017108 16.00781008 14.73460247 21.24974809 22.27734375 25.87109375 C22.84582031 26.24363281 23.41429688 26.61617187 24 27 C24 27.33 24 27.66 24 28 C16.08 28 8.16 28 0 28 C0 18.76 0 9.52 0 0 Z " fill="#FDFDFD" transform="translate(100,72)"/>
<path d="M0 0 C7.92 0 15.84 0 24 0 C19 4 19 4 16.5703125 5.9375 C9.95187585 11.51982357 6.02106634 17.39195971 2 25 C1.34 25.99 0.68 26.98 0 28 C0 18.76 0 9.52 0 0 Z " fill="#D5D5D5" transform="translate(100,100)"/>
<path d="M0 0 C0.27199219 0.5580835 0.54398438 1.11616699 0.82421875 1.69116211 C6.60260245 13.03795917 14.66281034 20.99204336 23.77880859 29.62133789 C25.48779481 31.24636478 27.18169988 32.88600347 28.875 34.52734375 C29.40504639 35.01903549 29.93509277 35.51072723 30.48120117 36.01731873 C31.9296875 37.42553711 31.9296875 37.42553711 34 40 C33.8203125 42.34204102 33.8203125 42.34204102 33 44 C29.39995962 44 28.62625092 42.98397419 26.15339661 40.54458618 C25.66578354 40.04776337 25.17817047 39.55094055 24.67578125 39.0390625 C24.16951706 38.53329681 23.66325287 38.02753113 23.14164734 37.50643921 C22.07316407 36.43561519 21.00837331 35.36109592 19.94702148 34.28320312 C18.31714329 32.62971056 16.67433505 30.98995853 15.02929688 29.3515625 C13.99399644 28.31068619 12.95946444 27.26904489 11.92578125 26.2265625 C11.43209549 25.73378815 10.93840973 25.24101379 10.42976379 24.73330688 C7 21.23102097 7 21.23102097 7 19 C6.34 19 5.68 19 5 19 C3.5625 17.20703125 3.5625 17.20703125 2 14.8125 C1.484375 14.03519531 0.96875 13.25789063 0.4375 12.45703125 C-1.00393195 9.99327936 -2.16434234 7.73161213 -3 5 C-1.625 2.1875 -1.625 2.1875 0 0 Z " fill="#9A9E9D" transform="translate(40,104)"/>
<path d="M0 0 C0.99 0.33 1.98 0.66 3 1 C3.45818784 8.18474777 0.45751937 11.63769904 -4 17 C-7.79438734 21.08827989 -11.74771007 24.99171399 -15.75 28.875 C-17.31508784 30.40481417 -18.87788466 31.93687551 -20.43804932 33.47171021 C-21.84075934 34.84998488 -23.24978185 36.22182662 -24.65917969 37.59326172 C-27.85065273 40.87460728 -30.18413407 43.43115081 -31 48 C-31.66 47.67 -32.32 47.34 -33 47 C-33.72287789 40.14383857 -33.72287789 40.14383857 -31.89404297 37.25 C-30.31532357 35.56327655 -28.67150825 34.02654023 -26.9375 32.5 C-25.73260842 31.37297943 -24.52946888 30.24408272 -23.328125 29.11328125 C-22.74869141 28.57783691 -22.16925781 28.04239258 -21.57226562 27.49072266 C-19.0503393 25.09959189 -16.84734309 22.47178001 -14.61328125 19.81640625 C-12.80937571 17.78537459 -10.86057118 15.97795418 -8.875 14.125 C-4.6491478 9.99780583 -2.29826465 5.39208245 0 0 Z " fill="#E5EEEB" transform="translate(158,106)"/>
<path d="M0 0 C4.19093221 3.59222761 8.10213793 6.98063236 11.9375 10.875 C12.70964844 11.65617187 13.48179688 12.43734375 14.27734375 13.2421875 C14.84582031 13.82226562 15.41429688 14.40234375 16 15 C15.01 15.33 14.02 15.66 13 16 C11.97299556 18.32891096 11.97299556 18.32891096 11.3125 21.0625 C11.06113281 21.98160156 10.80976562 22.90070313 10.55078125 23.84765625 C10.36902344 24.55792969 10.18726562 25.26820312 10 26 C10.66 26 11.32 26 12 26 C13.85776765 29.13498292 14.20140476 31.37471432 14 35 C13.505 33.515 13.505 33.515 13 32 C12.34 32 11.68 32 11 32 C11 31.01 11 30.02 11 29 C10.34 29 9.68 29 9 29 C8.401875 28.030625 7.80375 27.06125 7.1875 26.0625 C5.12111457 22.43147394 5.12111457 22.43147394 0 22 C0 14.74 0 7.48 0 0 Z " fill="#E2EAE5" transform="translate(99,46)"/>
<path d="M0 0 C0.66 0 1.32 0 2 0 C2.350625 0.86625 2.70125 1.7325 3.0625 2.625 C5.15808687 6.27537713 7.28964156 8.17338853 10.57421875 10.703125 C11.27998047 11.34507813 11.27998047 11.34507813 12 12 C12 12.66 12 13.32 12 14 C11.0925 14.53625 10.185 15.0725 9.25 15.625 C5.21770106 18.12846522 3.76213768 21.72940751 2 26 C1.34 26 0.68 26 0 26 C-1.11328125 24.390625 -1.11328125 24.390625 -2.3125 22.25 C-4.42767947 18.69952018 -6.55029566 16.36551155 -10 14 C-8.84479446 10.53438338 -7.28933108 9.60553027 -4.5 7.40625 C-2.24986967 5.29675282 -1.17673735 2.81109477 0 0 Z " fill="#B9BABA" transform="translate(35,86)"/>
<path d="M0 0 C4.04523736 0.49722083 5.72109952 1.28292462 8.23046875 4.48046875 C12.29147507 9.41286954 16.76095284 13.83514269 21.3125 18.3125 C22.91507597 19.88957754 24.51544087 21.46890596 26.11328125 23.05078125 C26.81235596 23.73825439 27.51143066 24.42572754 28.23168945 25.1340332 C30 27 30 27 32 30 C31.625 32.6875 31.625 32.6875 31 35 C27.7369879 33.9123293 27.12160072 33.24933287 25 30.6875 C16.77799126 21.01454854 8.05203843 11.89445943 -1 3 C-0.67 2.01 -0.34 1.02 0 0 Z " fill="#E7EFEC" transform="translate(126,51)"/>
<path d="M0 0 C1.921875 0.37109375 1.921875 0.37109375 4 1 C5.25 3.0625 5.25 3.0625 6 5 C6.99 4.67 7.98 4.34 9 4 C9.66 5.65 10.32 7.3 11 9 C10.67 9.33 10.34 9.66 10 10 C10.66 10.33 11.32 10.66 12 11 C11.91621094 11.60328125 11.83242187 12.2065625 11.74609375 12.828125 C11.64425781 13.62734375 11.54242188 14.4265625 11.4375 15.25 C11.33308594 16.03890625 11.22867188 16.8278125 11.12109375 17.640625 C10.99972651 20.00532874 11.30366743 21.7511037 12 24 C11.01 24 10.02 24 9 24 C9.33 24.66 9.66 25.32 10 26 C9.67 26.66 9.34 27.32 9 28 C8.01 28 7.02 28 6 28 C5.67 28.66 5.34 29.32 5 30 C4.34 30 3.68 30 3 30 C2.67 31.32 2.34 32.64 2 34 C1.34 34 0.68 34 0 34 C0.48726562 32.54207031 0.48726562 32.54207031 0.984375 31.0546875 C2.21719639 26.7223876 2.30294327 22.60532412 2.25 18.125 C2.24613281 17.33432129 2.24226562 16.54364258 2.23828125 15.72900391 C2.15687659 10.24210368 1.5653743 5.28313826 0 0 Z " fill="#000000" transform="translate(175,83)"/>
<path d="M0 0 C0.66 0 1.32 0 2 0 C1.79503906 0.51304688 1.59007812 1.02609375 1.37890625 1.5546875 C-1.65803473 10.18599343 -1.71398341 18.94609547 -2 28 C-3.32 27.67 -4.64 27.34 -6 27 C-6.33 27.66 -6.66 28.32 -7 29 C-8.5625 26.75 -8.5625 26.75 -10 24 C-9.625 22.125 -9.625 22.125 -9 20 C-9.165 18.88625 -9.33 17.7725 -9.5 16.625 C-10.08605915 12.37607114 -9.93516011 8.87032022 -8 5 C-7.01 5.33 -6.02 5.66 -5 6 C-4.67 4.68 -4.34 3.36 -4 2 C-3.34 2.66 -2.68 3.32 -2 4 C-1.34 2.68 -0.68 1.36 0 0 Z M-9 22 C-9 22.66 -9 23.32 -9 24 C-8.34 23.67 -7.68 23.34 -7 23 C-7.66 22.67 -8.32 22.34 -9 22 Z " fill="#000000" transform="translate(23,82)"/>
<path d="M0 0 C10.11479883 3.4735875 17.37441767 12.66396228 22 22 C22.68359375 24.828125 22.68359375 24.828125 23 27 C18.90663257 25.42414963 16.44809349 22.46303967 13.625 19.25 C12.65089338 18.16042571 11.67564351 17.07187237 10.69921875 15.984375 C10.23435059 15.46552734 9.76948242 14.94667969 9.29052734 14.41210938 C7.73375328 12.70866987 6.10359674 11.09616181 4.4375 9.5 C1.29012011 6.27191806 0 4.50390456 0 0 Z " fill="#737774" transform="translate(75,101)"/>
<path d="M0 0 C0.99 1.32 1.98 2.64 3 4 C4.00842741 5.23936498 5.02899503 6.46896856 6.0625 7.6875 C6.82240234 8.59048828 6.82240234 8.59048828 7.59765625 9.51171875 C8.95074249 11.11882114 8.95074249 11.11882114 11 12 C11 12.66 11 13.32 11 14 C9.35546875 15.5859375 9.35546875 15.5859375 7.1875 17.375 C4.2156942 19.83255889 2.37769022 21.82974637 0 25 C0 16.75 0 8.5 0 0 Z " fill="#F7F8F7" transform="translate(164,86)"/>
<path d="M0 0 C-1.49426003 8.4612474 -11.14690398 15.24899287 -17 21 C-18.00110681 21.99889197 -19.00158102 22.99842147 -20 24 C-18.6309445 15.05338151 -12.74812741 7.75143062 -6 2 C-3 0 -3 0 0 0 Z " fill="#7F8482" transform="translate(122,103)"/>
<path d="M0 0 C1 3 1 3 -0.1171875 5.41796875 C-5.222581 13.46179984 -10.75377792 20.73949011 -20 24 C-17.82134623 16.25367549 -10.0289358 9.09039434 -4 4 C-3.34 4 -2.68 4 -2 4 C-1.34 2.68 -0.68 1.36 0 0 Z " fill="#848885" transform="translate(95,75)"/>
<path d="M0 0 C1.32 1.65 2.64 3.3 4 5 C5.81762354 6.63660006 7.69663466 8.14500953 9.609375 9.66796875 C10.06828125 10.10753906 10.5271875 10.54710938 11 11 C11 11.66 11 12.32 11 13 C9.63875 13.8353125 9.63875 13.8353125 8.25 14.6875 C4.31902949 17.48453671 3.12861436 19.74277128 1 24 C0.67 24 0.34 24 0 24 C0 16.08 0 8.16 0 0 Z " fill="#F4F4F4" transform="translate(36,87)"/>
<path d="M0 0 C1.485 0.99 1.485 0.99 3 2 C3 2.66 3 3.32 3 4 C3.99 4.33 4.98 4.66 6 5 C9.5810218 8.3114195 12.71666256 11.92423491 15.8125 15.6875 C16.60269531 16.64011719 17.39289063 17.59273437 18.20703125 18.57421875 C20 21 20 21 20 23 C13.43458156 21.97042302 8.4639099 15.92619724 4.625 10.875 C0 2.69230769 0 2.69230769 0 0 Z " fill="#A5ABA8" transform="translate(102,74)"/>
<path d="M0 0 C1.65 0 3.3 0 5 0 C9 4.10810811 9 4.10810811 9 7 C9.66 7 10.32 7 11 7 C11.33 9.64 11.66 12.28 12 15 C8.86556776 12.42280015 5.86848555 9.86848555 3 7 C2.67 7 2.34 7 2 7 C1.67 15.25 1.34 23.5 1 32 C0.67 32 0.34 32 0 32 C0 21.44 0 10.88 0 0 Z " fill="#CDD2CF" transform="translate(99,68)"/>
<path d="M0 0 C0.99 0.33 1.98 0.66 3 1 C3.88229454 6.73491451 1.50103025 9.76938812 -1.6875 14.2421875 C-2.120625 14.82226562 -2.55375 15.40234375 -3 16 C-3.99 15.34 -4.98 14.68 -6 14 C-6.99 14 -7.98 14 -9 14 C-7.88625 12.7625 -7.88625 12.7625 -6.75 11.5 C-3.77547127 7.95768374 -1.94706468 4.18258338 0 0 Z " fill="#E0E6E2" transform="translate(158,106)"/>
<path d="M0 0 C3.63 0 7.26 0 11 0 C11.33 4.29 11.66 8.58 12 13 C11.34 13 10.68 13 10 13 C10 12.34 10 11.68 10 11 C9.34 11 8.68 11 8 11 C7.67 10.01 7.34 9.02 7 8 C6.34 7.67 5.68 7.34 5 7 C3.98133771 5.34467377 2.98189187 3.67739862 2 2 C1.34 1.34 0.68 0.68 0 0 Z " fill="#9D9E9D" transform="translate(153,99)"/>
<path d="M0 0 C3.63 0 7.26 0 11 0 C11.33 4.29 11.66 8.58 12 13 C11.34 13 10.68 13 10 13 C8.88671875 11.42578125 8.88671875 11.42578125 7.6875 9.3125 C5.48392751 5.62020442 3.16489182 2.89361538 0 0 Z " fill="#9B9B9B" transform="translate(25,99)"/>
<path d="M0 0 C1.65 0.33 3.3 0.66 5 1 C4.1875 3.9375 4.1875 3.9375 3 7 C2.01 7.33 1.02 7.66 0 8 C-1.68711423 9.6459651 -3.3545622 11.31237149 -5 13 C-5.99 13.495 -5.99 13.495 -7 14 C-6.505 12.6078125 -6.505 12.6078125 -6 11.1875 C-4.85032996 8.07970709 -4.85032996 8.07970709 -5 5 C-3.68 4.67 -2.36 4.34 -1 4 C-0.67 2.68 -0.34 1.36 0 0 Z " fill="#9EA2A1" transform="translate(94,69)"/>
<path d="M0 0 C3.63 0 7.26 0 11 0 C10.2575 0.721875 9.515 1.44375 8.75 2.1875 C6.30506867 4.68799795 4.15419518 7.25154408 2 10 C1.34 10.66 0.68 11.32 0 12 C0 8.04 0 4.08 0 0 Z " fill="#CFCFCF" transform="translate(164,99)"/>
<path d="M0 0 C0.33 0.66 0.66 1.32 1 2 C1.99 2 2.98 2 4 2 C2.43358249 6.30764815 0.31663844 10.06171464 -2 14 C-3.32 12.68 -4.64 11.36 -6 10 C-5.34 9.67 -4.68 9.34 -4 9 C-3.32215008 6.66989091 -2.65583207 4.33640176 -2 2 C-1.34 1.34 -0.68 0.68 0 0 Z " fill="#9AA09E" transform="translate(43,79)"/>
<path d="M0 0 C0.33 0.66 0.66 1.32 1 2 C-3.42154487 7.56838307 -7.72861435 11.61182282 -14 15 C-14.33 14.34 -14.66 13.68 -15 13 C-13.33333333 11.33333333 -11.66666667 9.66666667 -10 8 C-9.175 7.13375 -8.35 6.2675 -7.5 5.375 C-5.12597023 3.11967172 -2.86707851 1.55641405 0 0 Z " fill="#828682" transform="translate(90,84)"/>
<path d="M0 0 C0.33 0.66 0.66 1.32 1 2 C-0.36125 2.7734375 -0.36125 2.7734375 -1.75 3.5625 C-5.51762616 6.03556267 -7.0084148 9.01682961 -9 13 C-9.33 13 -9.66 13 -10 13 C-10 9.04 -10 5.08 -10 1 C-6.7 0.67 -3.4 0.34 0 0 Z " fill="#D2D2D2" transform="translate(46,98)"/>
<path d="M0 0 C0.33 0 0.66 0 1 0 C1.495 6.93 1.495 6.93 2 14 C1.34 14 0.68 14 0 14 C0 11.03 0 8.06 0 5 C-5.5930976 9.76008307 -10.86877855 14.74595676 -16 20 C-16.66 19.67 -17.32 19.34 -18 19 C-17.52578613 18.53102295 -17.05157227 18.0620459 -16.56298828 17.57885742 C-14.41436915 15.45103477 -12.26965202 13.31932077 -10.125 11.1875 C-9.37863281 10.44951172 -8.63226563 9.71152344 -7.86328125 8.95117188 C-7.14785156 8.23896484 -6.43242188 7.52675781 -5.6953125 6.79296875 C-5.03547363 6.1383667 -4.37563477 5.48376465 -3.69580078 4.80932617 C-1.81831708 2.9054354 -1.81831708 2.9054354 0 0 Z " fill="#99A3A0" transform="translate(98,19)"/>
<path d="M0 0 C0.66 0.33 1.32 0.66 2 1 C0.56877218 2.48523642 -0.87020889 3.96300462 -2.3125 5.4375 C-3.11300781 6.26121094 -3.91351563 7.08492188 -4.73828125 7.93359375 C-7 10 -7 10 -10 11 C-11.68538601 12.99665314 -11.68538601 12.99665314 -13 15 C-13.33 14.34 -13.66 13.68 -14 13 C-12.75 10.4375 -12.75 10.4375 -11 8 C-10.01 7.67 -9.02 7.34 -8 7 C-8 6.34 -8 5.68 -8 5 C-5 3 -5 3 -2 3 C-2 2.34 -2 1.68 -2 1 C-1.34 0.67 -0.68 0.34 0 0 Z " fill="#A9AFAC" transform="translate(85,83)"/>
<path d="M0 0 C6.11987083 1.19997467 8.4549418 2.84355171 12 8 C12 8.66 12 9.32 12 10 C8.39428893 9.40716913 6.45570562 7.97258223 3.75 5.5625 C3.04359375 4.94503906 2.3371875 4.32757813 1.609375 3.69140625 C0 2 0 2 0 0 Z " fill="#A1A3A2" transform="translate(110,87)"/>
<path d="M0 0 C0.33 0 0.66 0 1 0 C1.5022251 2.76223803 1.35673215 4.45674123 -0.1953125 6.8203125 C-2.8877822 10.05398214 -5.10668449 12.28186294 -9 14 C-8.75 12.125 -8.75 12.125 -8 10 C-7.360625 9.71125 -6.72125 9.4225 -6.0625 9.125 C-3.66868994 8.11092319 -3.66868994 8.11092319 -2.875 5 C-2.441875 3.515 -2.441875 3.515 -2 2 C-1.34 1.34 -0.68 0.68 0 0 Z " fill="#B9C1BF" transform="translate(115,113)"/>
<path d="M0 0 C2.5625 2.1875 2.5625 2.1875 5 5 C4.8125 7.8125 4.8125 7.8125 4 10 C0.00003714 8.66667905 -0.83782337 6.5042173 -3 3 C-2.01 2.01 -1.02 1.02 0 0 Z " fill="#E1E9E4" transform="translate(153,76)"/>
<path d="M0 0 C0.66 0.33 1.32 0.66 2 1 C-1.72346836 5.42094803 -5.29521038 9.57833482 -10 13 C-9.40336911 7.82919893 -5.56485751 4.26880339 -1.6875 1.125 C-1.130625 0.75375 -0.57375 0.3825 0 0 Z " fill="#858B87" transform="translate(119,106)"/>
<path d="M0 0 C3 1 3 1 4 2.9375 C4.33 3.618125 4.66 4.29875 5 5 C5.99 5.66 6.98 6.32 8 7 C8.6875 10.125 8.6875 10.125 9 13 C7.86800647 12.0919838 6.74467637 11.17316174 5.625 10.25 C4.99851562 9.73953125 4.37203125 9.2290625 3.7265625 8.703125 C1.88150118 6.88310976 0.93802941 5.40666131 0 3 C0 2.01 0 1.02 0 0 Z " fill="#7C817E" transform="translate(75,101)"/>
<path d="M0 0 C0.66 0.33 1.32 0.66 2 1 C1.34 1.66 0.68 2.32 0 3 C-0.46006346 5.20250992 -0.46006346 5.20250992 -0.625 7.625 C-0.69976562 8.44226562 -0.77453125 9.25953125 -0.8515625 10.1015625 C-0.90054688 10.72804688 -0.94953125 11.35453125 -1 12 C-2.65 10.68 -4.3 9.36 -6 8 C-4.55746343 4.63408134 -2.66735273 2.48952921 0 0 Z " fill="#C3D5CE" transform="translate(76,43)"/>
<path d="M0 0 C1.52299523 2.93720508 2.80100302 5.9168649 4 9 C3.01 9 2.02 9 1 9 C0.67 9.99 0.34 10.98 0 12 C-2.37823834 7.50777202 -2.37823834 7.50777202 -3 5 C-1.6875 2.0625 -1.6875 2.0625 0 0 Z " fill="#888C8A" transform="translate(40,104)"/>
<path d="M0 0 C0.66 0 1.32 0 2 0 C1.67 2.97 1.34 5.94 1 9 C0.01 8.67 -0.98 8.34 -2 8 C-2 7.34 -2 6.68 -2 6 C-2.66 6 -3.32 6 -4 6 C-2.84826645 3.53199953 -1.95216435 1.95216435 0 0 Z " fill="#C0D5CE" transform="translate(74,146)"/>
<path d="M0 0 C1.98 1.65 3.96 3.3 6 5 C5.67 5.66 5.34 6.32 5 7 C3.68 6.67 2.36 6.34 1 6 C1 8.31 1 10.62 1 13 C0.67 13 0.34 13 0 13 C0 8.71 0 4.42 0 0 Z " fill="#C6DCD5" transform="translate(99,19)"/>
<path d="M0 0 C0.99 0.33 1.98 0.66 3 1 C3 2.98 3 4.96 3 7 C2.01 7.495 2.01 7.495 1 8 C0.01 7.34 -0.98 6.68 -2 6 C-1.34 4.02 -0.68 2.04 0 0 Z " fill="#C5CBC5" transform="translate(158,106)"/>
<path d="M0 0 C0 4.06892857 -1.64505053 5.33622345 -4.265625 8.28125 C-6.64672681 10.64090044 -9.12396741 12.28807584 -12 14 C-10.41332422 10.09714233 -7.86649519 7.66479018 -4.875 4.75 C-3.96492188 3.85796875 -3.05484375 2.9659375 -2.1171875 2.046875 C-1.41851562 1.37140625 -0.71984375 0.6959375 0 0 Z " fill="#8A8F8D" transform="translate(90,80)"/>
<path d="M0 0 C1.65 0.33 3.3 0.66 5 1 C5 2.32 5 3.64 5 5 C3.02 5.33 1.04 5.66 -1 6 C-0.67 4.02 -0.34 2.04 0 0 Z " fill="#959696" transform="translate(70,99)"/>
<path d="M0 0 C1.65 0 3.3 0 5 0 C5.66 1.65 6.32 3.3 7 5 C5.35 5 3.7 5 2 5 C1.34 3.35 0.68 1.7 0 0 Z " fill="#9FA3A2" transform="translate(71,104)"/>
<path d="M0 0 C1.32 0.33 2.64 0.66 4 1 C4 2.32 4 3.64 4 5 C4.66 5 5.32 5 6 5 C6 5.66 6 6.32 6 7 C6.66 7.33 7.32 7.66 8 8 C7.34 8 6.68 8 6 8 C5.67 8.66 5.34 9.32 5 10 C2.35534962 6.8745041 1.15585285 3.91211733 0 0 Z " fill="#BAC1BF" transform="translate(119,91)"/>
<path d="M0 0 C2.29013653 3.4352048 2.17842973 4.985331 2 9 C0.0625 8.1875 0.0625 8.1875 -2 7 C-2.33 6.01 -2.66 5.02 -3 4 C-2.34 3.67 -1.68 3.34 -1 3 C-0.67 2.01 -0.34 1.02 0 0 Z " fill="#C8CFCA" transform="translate(158,82)"/>
<path d="M0 0 C1.99097846 2.98646769 2.94124926 5.59687262 4 9 C3.01 9 2.02 9 1 9 C0.71125 8.236875 0.4225 7.47375 0.125 6.6875 C-0.96269013 3.84970692 -0.96269013 3.84970692 -3 1 C-2.01 0.67 -1.02 0.34 0 0 Z " fill="#000000" transform="translate(21,110)"/>
<path d="M0 0 C1.32 0.66 2.64 1.32 4 2 C3.67 3.32 3.34 4.64 3 6 C3.66 6.33 4.32 6.66 5 7 C4.01 7.33 3.02 7.66 2 8 C0.4375 5.6875 0.4375 5.6875 -1 3 C-0.67 2.01 -0.34 1.02 0 0 Z " fill="#020202" transform="translate(172,75)"/>
<path d="M0 0 C1.32 0.33 2.64 0.66 4 1 C0.535 3.97 0.535 3.97 -3 7 C-3.66 6.67 -4.32 6.34 -5 6 C-3.35 4.02 -1.7 2.04 0 0 Z " fill="#B5BDB8" transform="translate(121,106)"/>
<path d="M0 0 C0.66 0.33 1.32 0.66 2 1 C2.625 3.5625 2.625 3.5625 3 6 C-0.16115776 4.63016497 -0.9927092 4.0109362 -3 1 C-2.01 0.67 -1.02 0.34 0 0 Z " fill="#7A807E" transform="translate(95,122)"/>
<path d="M0 0 C3 4 3 4 2.85546875 6.359375 C2.63503906 7.14828125 2.41460937 7.9371875 2.1875 8.75 C1.97480469 9.54921875 1.76210937 10.3484375 1.54296875 11.171875 C1.36378906 11.77515625 1.18460938 12.3784375 1 13 C0.67 13 0.34 13 0 13 C0 8.71 0 4.42 0 0 Z " fill="#E6E7E6" transform="translate(164,86)"/>
<path d="M0 0 C2.0625 0.4375 2.0625 0.4375 4 1 C2.68 2.65 1.36 4.3 0 6 C-0.38218767 4.34385343 -0.71395102 2.67542976 -1 1 C-0.67 0.67 -0.34 0.34 0 0 Z " fill="#868C8B" transform="translate(40,87)"/>
<path d="" fill="#000000" transform="translate(0,0)"/>
<path d="" fill="#000000" transform="translate(0,0)"/>
<path d="" fill="#000000" transform="translate(0,0)"/>
<path d="" fill="#000000" transform="translate(0,0)"/>
<path d="" fill="#000000" transform="translate(0,0)"/>
</svg>
